<?xml version="1.0" encoding="UTF-8"?>
<!DOCTYPE svg PUBLIC "-//W3C//DTD SVG 1.1//EN" "http://www.w3.org/Graphics/SVG/1.1/DTD/svg11.dtd">
<!-- Creator: CorelDRAW -->
<svg xmlns="http://www.w3.org/2000/svg" xml:space="preserve" width="360.098mm" height="148.431mm" version="1.1" style="shape-rendering:geometricPrecision; text-rendering:geometricPrecision; image-rendering:optimizeQuality; fill-rule:evenodd; clip-rule:evenodd"
viewBox="0 0 13339.04 5498.31"
 xmlns:xlink="http://www.w3.org/1999/xlink">
 <defs>
  <style type="text/css">
   <![CDATA[
    .str0 {stroke:black;stroke-width:9.8;stroke-miterlimit:22.9256}
    .fil1 {fill:none}
    .fil0 {fill:black}
   ]]>
  </style>
 </defs>
 <g id="Layer_x0020_1">
  <metadata id="CorelCorpID_0Corel-Layer"/>
  <g>
   <path class="fil0" d="M4.9 4.9l0 5493.41 0 -5493.41zm13329.24 5096.47l-13328.99 0 13328.99 0 0 0zm0 -392.04l-12937.2 0 12937.2 0zm-12937.2 0l-391.54 0 391.54 0zm12937.2 -392.04l-12937.2 0 12937.2 0zm-12937.2 0l-391.29 0 391.29 0zm12937.2 -392.04l-13328.24 0 13328.24 0 0 0zm0 -392.04l-12937.2 0 12937.2 0zm-12937.2 0l-390.79 0 390.79 0zm12937.2 -392.04l-12937.2 0 12937.2 0zm-12937.2 0l-390.54 0 390.54 0zm12937.2 -392.04l-13327.49 0 13327.49 0 0 0zm0 -392.04l-12937.2 0 12937.2 0zm-12937.2 0l-390.04 0 390.04 0zm12937.2 -392.04l-12937.2 0 12937.2 0zm-12937.2 0l-389.79 0 389.79 0zm12937.2 -392.04l-13326.75 0 13326.75 0 0 0zm0 -392.03l-12937.2 0 12937.2 0zm-12937.2 0l-389.29 0 389.29 0zm12937.2 -392.04l-12937.2 0 12937.2 0zm-12937.2 0l-389.04 0 389.04 0zm12937.2 -392.04l-13326 0 13326 0 0 0zm0 -392.04l0 5488.51 0 4.9 0 -5493.41zm-392.04 0l0 5488.51 0 4.9 0 -5493.41zm-392.03 0l0 5488.51 0 4.9 0 -5493.41zm-392.04 0l0 5488.51 0 4.9 0 -5493.41zm-392.04 0l0 5488.51 0 4.9 0 -5493.41zm-392.04 0l0 5488.51 0 4.9 0 -5493.41zm-392.04 0l0 5488.51 0 4.9 0 -5493.41zm-392.04 0l0 5488.51 0 4.9 0 -5493.41zm-392.04 0l0 5488.51 0 4.9 0 -5493.41zm-392.04 0l0 5488.51 0 4.9 0 -5493.41zm-392.04 0l0 5488.51 0 4.9 0 -5493.41zm-392.04 0l0 5488.51 0 4.9 0 -5493.41zm-392.04 0l0 5488.51 0 4.9 0 -5493.41zm-392.04 0l0 5488.51 0 4.9 0 -5493.41zm-392.04 0l0 5488.51 0 4.9 0 -5493.41zm-392.04 0l0 5488.51 0 4.9 0 -5493.41zm-392.04 0l0 5488.51 0 4.9 0 -5493.41zm-392.04 0l0 5488.51 0 4.9 0 -5493.41zm-392.04 0l0 5488.51 0 4.9 0 -5493.41zm-392.04 0l0 5488.51 0 4.9 0 -5493.41zm-392.04 0l0 5488.51 0 4.9 0 -5493.41zm-392.04 0l0 5488.51 0 4.9 0 -5493.41zm-392.04 0l0 5488.51 0 4.9 0 -5493.41zm-392.04 0l0 5488.51 0 4.9 0 -5493.41zm-392.04 0l0 5488.51 0 4.9 0 -5493.41zm-392.04 0l0 5488.51 0 4.9 0 -5493.41zm-392.04 0l0 5488.51 0 4.9 0 -5493.41zm-392.04 0l0 5488.51 0 4.9 0 -5493.41zm-392.04 0l0 5488.51 0 4.9 0 -5493.41zm-392.04 0l0 5488.51 0 4.9 0 -5493.41zm-392.04 0l0 5488.51 0 4.9 0 -5493.41zm-392.04 0l0 5488.51 0 4.9 0 -5493.41zm-392.04 0l0 5488.51 0 4.9 0 -5493.41zm-392.04 0l0 5488.51 0 4.9 0 -5493.41zm-388.54 0l-3.5 0 3.5 0 0.21 0 388.33 0 3.7 0 388.33 0 3.7 0 388.33 0 3.7 0 388.33 0 3.7 0 388.33 0 3.7 0 388.33 0 3.7 0 388.33 0 3.7 0 388.33 0 3.7 0 388.33 0 3.7 0 388.33 0 3.7 0 388.33 0 3.7 0 388.33 0 3.7 0 388.33 0 3.7 0 388.33 0 3.7 0 388.33 0 3.7 0 388.33 0 3.7 0 388.33 0 3.7 0 388.33 0 3.7 0 388.33 0 3.7 0 388.33 0 3.7 0 388.33 0 3.7 0 388.33 0 3.7 0 388.33 0 3.7 0 388.33 0 3.7 0 388.33 0 3.7 0 388.33 0 3.7 0 388.33 0 3.7 0 388.33 0 3.7 0 388.33 0 3.7 0 388.33 0 3.7 0 388.33 0 3.7 0 388.33 0 3.7 0 388.33 0 3.7 0 388.33 0 -388.33 0 -3.7 0 -388.33 0 -3.7 0 -388.33 0 -3.7 0 -388.33 0 -3.7 0 -388.33 0 -3.7 0 -388.33 0 -3.7 0 -388.33 0 -3.7 0 -388.33 0 -3.7 0 -388.33 0 -3.7 0 -388.33 0 -3.7 0 -388.33 0 -3.7 0 -388.33 0 -3.7 0 -388.33 0 -3.7 0 -388.33 0 -3.7 0 -388.33 0 -3.7 0 -388.33 0 -3.7 0 -388.33 0 -3.7 0 -388.33 0 -3.7 0 -388.33 0 -3.7 0 -388.33 0 -3.7 0 -388.33 0 -3.7 0 -388.33 0 -3.7 0 -388.33 0 -3.7 0 -388.33 0 -3.7 0 -388.33 0 -3.7 0 -388.33 0 -3.7 0 -388.33 0 -3.7 0 -388.33 0 -3.7 0 -388.33 0 -3.7 0 -388.33 0 -3.7 0 -388.33 0 -3.7 0 -388.33 0 -3.7 0 -388.33 0 -3.7 0 -388.33 0 -0.21 0zm13325.75 5488.51l-392.04 0 -0 0 -392.03 0 -0 0 -392.03 0 -0 0 -392.04 0 -0 0 -392.03 0 -0 0 -392.03 0 -0 0 -392.04 0 -0 0 -392.03 0 -0 0 -392.03 0 -0 0 -392.04 0 -0 0 -392.03 0 -0 0 -392.03 0 -0 0 -392.04 0 -0 0 -392.03 0 -0 0 -392.03 0 -0 0 -392.04 0 -0 0 -392.03 0 -0 0 -392.03 0 -0 0 -392.04 0 -0 0 -392.03 0 -0 0 -392.03 0 -0 0 -392.04 0 -0 0 -392.03 0 -0 0 -392.03 0 -0 0 -392.03 0 -0 0 -392.03 0 -0 0 -392.03 0 -0 0 -392.04 0 -0 0 -392.03 0 -0 0 -392.03 0 -0 0 -392.04 0 -0 0 -392.03 0 -0 0 -392.03 0 -0 0 -392.04 0 392.04 0 0 0 392.03 0 0 0 392.03 0 0 0 392.04 0 0 0 392.03 0 0 0 392.03 0 0 0 392.04 0 0 0 392.03 0 0 0 392.03 0 0 0 392.03 0 0 0 392.03 0 0 0 392.03 0 0 0 392.04 0 0 0 392.03 0 0 0 392.03 0 0 0 392.04 0 0 0 392.03 0 0 0 392.03 0 0 0 392.04 0 0 0 392.03 0 0 0 392.03 0 0 0 392.04 0 0 0 392.03 0 0 0 392.03 0 0 0 392.04 0 0 0 392.03 0 0 0 392.03 0 0 0 392.04 0 0 0 392.03 0 0 0 392.03 0 0 0 392.04 0 0 0 392.03 0 0 0 392.03 0 0 0 392.04 0z"/>
   <path id="1" class="fil1 str0" d="M4.9 4.9l0 5493.41m13329.24 -396.94l-13328.99 0 13328.99 0m0 -392.04l-12937.2 0m0 0l-391.54 0m13328.74 -392.04l-12937.2 0m0 0l-391.29 0m13328.49 -392.04l-13328.24 0 13328.24 0m0 -392.04l-12937.2 0m0 0l-390.79 0m13327.99 -392.04l-12937.2 0m0 0l-390.54 0m13327.74 -392.04l-13327.49 0 13327.49 0m0 -392.04l-12937.2 0m0 0l-390.04 0m13327.24 -392.04l-12937.2 0m0 0l-389.79 0m13326.99 -392.04l-13326.75 0 13326.75 0m0 -392.03l-12937.2 0m0 0l-389.29 0m13326.49 -392.04l-12937.2 0m0 0l-389.04 0m13326.25 -392.04l-13326 0 13326 0m0 -392.04l0 5488.51 0 4.9m-392.04 -5493.41l0 5488.51 0 4.9m-392.03 -5493.41l0 5488.51 0 4.9m-392.04 -5493.41l0 5488.51 0 4.9m-392.04 -5493.41l0 5488.51 0 4.9m-392.04 -5493.41l0 5488.51 0 4.9m-392.04 -5493.41l0 5488.51 0 4.9m-392.04 -5493.41l0 5488.51 0 4.9m-392.04 -5493.41l0 5488.51 0 4.9m-392.04 -5493.41l0 5488.51 0 4.9m-392.04 -5493.41l0 5488.51 0 4.9m-392.04 -5493.41l0 5488.51 0 4.9m-392.04 -5493.41l0 5488.51 0 4.9m-392.04 -5493.41l0 5488.51 0 4.9m-392.04 -5493.41l0 5488.51 0 4.9m-392.04 -5493.41l0 5488.51 0 4.9m-392.04 -5493.41l0 5488.51 0 4.9m-392.04 -5493.41l0 5488.51 0 4.9m-392.04 -5493.41l0 5488.51 0 4.9m-392.04 -5493.41l0 5488.51 0 4.9m-392.04 -5493.41l0 5488.51 0 4.9m-392.04 -5493.41l0 5488.51 0 4.9m-392.04 -5493.41l0 5488.51 0 4.9m-392.04 -5493.41l0 5488.51 0 4.9m-392.04 -5493.41l0 5488.51 0 4.9m-392.04 -5493.41l0 5488.51 0 4.9m-392.04 -5493.41l0 5488.51 0 4.9m-392.04 -5493.41l0 5488.51 0 4.9m-392.04 -5493.41l0 5488.51 0 4.9m-392.04 -5493.41l0 5488.51 0 4.9m-392.04 -5493.41l0 5488.51 0 4.9m-392.04 -5493.41l0 5488.51 0 4.9m-392.04 -5493.41l0 5488.51 0 4.9m-392.04 -5493.41l0 5488.51 0 4.9m-388.54 -5493.41l-3.5 0 3.5 0 0.21 0 388.33 0 3.7 0 388.33 0 3.7 0 388.33 0 3.7 0 388.33 0 3.7 0 388.33 0 3.7 0 388.33 0 3.7 0 388.33 0 3.7 0 388.33 0 3.7 0 388.33 0 3.7 0 388.33 0 3.7 0 388.33 0 3.7 0 388.33 0 3.7 0 388.33 0 3.7 0 388.33 0 3.7 0 388.33 0 3.7 0 388.33 0 3.7 0 388.33 0 3.7 0 388.33 0 3.7 0 388.33 0 3.7 0 388.33 0 3.7 0 388.33 0 3.7 0 388.33 0 3.7 0 388.33 0 3.7 0 388.33 0 3.7 0 388.33 0 3.7 0 388.33 0 3.7 0 388.33 0 3.7 0 388.33 0 3.7 0 388.33 0 3.7 0 388.33 0 3.7 0 388.33 0 3.7 0 388.33 0 3.7 0 388.33 0 3.7 0 388.33 0 -388.33 0 -3.7 0 -388.33 0 -3.7 0 -388.33 0 -3.7 0 -388.33 0 -3.7 0 -388.33 0 -3.7 0 -388.33 0 -3.7 0 -388.33 0 -3.7 0 -388.33 0 -3.7 0 -388.33 0 -3.7 0 -388.33 0 -3.7 0 -388.33 0 -3.7 0 -388.33 0 -3.7 0 -388.33 0 -3.7 0 -388.33 0 -3.7 0 -388.33 0 -3.7 0 -388.33 0 -3.7 0 -388.33 0 -3.7 0 -388.33 0 -3.7 0 -388.33 0 -3.7 0 -388.33 0 -3.7 0 -388.33 0 -3.7 0 -388.33 0 -3.7 0 -388.33 0 -3.7 0 -388.33 0 -3.7 0 -388.33 0 -3.7 0 -388.33 0 -3.7 0 -388.33 0 -3.7 0 -388.33 0 -3.7 0 -388.33 0 -3.7 0 -388.33 0 -3.7 0 -388.33 0 -3.7 0 -388.33 0 -3.7 0 -388.33 0 -3.7 0 -388.33 0 -0.21 0zm13325.75 5488.51l-392.04 0 -0 0 -392.03 0 -0 0 -392.03 0 -0 0 -392.04 0 -0 0 -392.03 0 -0 0 -392.03 0 -0 0 -392.04 0 -0 0 -392.03 0 -0 0 -392.03 0 -0 0 -392.04 0 -0 0 -392.03 0 -0 0 -392.03 0 -0 0 -392.04 0 -0 0 -392.03 0 -0 0 -392.03 0 -0 0 -392.04 0 -0 0 -392.03 0 -0 0 -392.03 0 -0 0 -392.04 0 -0 0 -392.03 0 -0 0 -392.03 0 -0 0 -392.04 0 -0 0 -392.03 0 -0 0 -392.03 0 -0 0 -392.03 0 -0 0 -392.03 0 -0 0 -392.03 0 -0 0 -392.04 0 -0 0 -392.03 0 -0 0 -392.03 0 -0 0 -392.04 0 -0 0 -392.03 0 -0 0 -392.03 0 -0 0 -392.04 0 392.04 0 0 0 392.03 0 0 0 392.03 0 0 0 392.04 0 0 0 392.03 0 0 0 392.03 0 0 0 392.04 0 0 0 392.03 0 0 0 392.03 0 0 0 392.03 0 0 0 392.03 0 0 0 392.03 0 0 0 392.04 0 0 0 392.03 0 0 0 392.03 0 0 0 392.04 0 0 0 392.03 0 0 0 392.03 0 0 0 392.04 0 0 0 392.03 0 0 0 392.03 0 0 0 392.04 0 0 0 392.03 0 0 0 392.03 0 0 0 392.04 0 0 0 392.03 0 0 0 392.03 0 0 0 392.04 0 0 0 392.03 0 0 0 392.03 0 0 0 392.04 0 0 0 392.03 0 0 0 392.03 0 0 0 392.04 0z"/>
  </g>
 </g>
</svg>
