<svg width="1440" height="881" viewBox="0 0 1440 881" fill="none" xmlns="http://www.w3.org/2000/svg">
<line x1="1617" y1="0.5" x2="-15" y2="0.499948" stroke="black"/>
<line x1="1617" y1="40.5" x2="-15" y2="40.4999" stroke="black"/>
<line x1="1617" y1="80.5" x2="-15" y2="80.4999" stroke="black"/>
<line x1="1617" y1="120.5" x2="-15" y2="120.5" stroke="black"/>
<line x1="1617" y1="160.5" x2="-15" y2="160.5" stroke="black"/>
<line x1="1617" y1="200.5" x2="-15" y2="200.5" stroke="black"/>
<line x1="1617" y1="240.5" x2="-15" y2="240.5" stroke="black"/>
<line x1="1617" y1="280.5" x2="-15" y2="280.5" stroke="black"/>
<line x1="1617" y1="320.5" x2="-15" y2="320.5" stroke="black"/>
<line x1="1617" y1="360.5" x2="-15" y2="360.5" stroke="black"/>
<line x1="1617" y1="400.5" x2="-15" y2="400.5" stroke="black"/>
<line x1="1617" y1="440.5" x2="-15" y2="440.5" stroke="black"/>
<line x1="1617" y1="480.5" x2="-15" y2="480.5" stroke="black"/>
<line x1="1617" y1="520.5" x2="-15" y2="520.5" stroke="black"/>
<line x1="1617" y1="560.5" x2="-15" y2="560.5" stroke="black"/>
<line x1="1617" y1="600.5" x2="-15" y2="600.5" stroke="black"/>
<line x1="1617" y1="640.5" x2="-15" y2="640.5" stroke="black"/>
<line x1="1617" y1="680.5" x2="-15" y2="680.5" stroke="black"/>
<line x1="1617" y1="720.5" x2="-15" y2="720.5" stroke="black"/>
<line x1="1617" y1="760.5" x2="-15" y2="760.5" stroke="black"/>
<line x1="1617" y1="800.5" x2="-15" y2="800.5" stroke="black"/>
<line x1="1617" y1="840.5" x2="-15" y2="840.5" stroke="black"/>
<line x1="1617" y1="880.5" x2="-15" y2="880.5" stroke="black"/>
</svg>
