<svg width="428" height="94" viewBox="0 0 428 94" fill="none" xmlns="http://www.w3.org/2000/svg">
<g clip-path="url(#clip0_47_55)">
<path d="M-235 -833.468C-176.116 -844.645 -110.074 -854.263 -59 -797.504C106.103 -614.023 478.657 -722.084 501 -654.864C523.342 -587.644 515.35 -190.305 501 -16.1825C490.092 116.168 -20.4746 -2.15462 -71.5252 84.5372C-113.84 156.395 -121.465 586.934 -90 678.628C-50.3385 794.207 425.654 707.256 471 692.898C516.346 678.54 544.374 693.681 558.388 736.428C578.781 798.635 591.756 1165.88 571.132 1322.83C543.113 1536.07 47.6813 1090.23 96.1658 1642" stroke="black" stroke-width="72"/>
<path d="M-235 -833.468C-176.116 -844.645 -110.074 -854.263 -59 -797.504C106.103 -614.023 478.657 -722.084 501 -654.864C523.342 -587.644 515.35 -190.305 501 -16.1825C490.092 116.168 -20.4746 -2.15462 -71.5252 84.5372C-113.84 156.395 -121.465 586.934 -90 678.628C-50.3385 794.207 425.654 707.256 471 692.898C516.346 678.54 544.374 693.681 558.388 736.428C578.781 798.635 591.756 1165.88 571.132 1322.83C543.113 1536.07 47.6813 1090.23 96.1658 1642" stroke="#F8F4DF" stroke-width="69"/>
<path d="M-235 -833.468C-176.116 -844.645 -110.074 -854.263 -59 -797.504C106.103 -614.023 478.657 -722.084 501 -654.864C523.342 -587.644 515.35 -190.305 501 -16.1825C490.092 116.168 -20.4746 -2.15462 -71.5252 84.5372C-113.84 156.395 -121.465 586.934 -90 678.628C-50.3385 794.207 425.654 707.256 471 692.898C516.346 678.54 544.374 693.681 558.388 736.428C578.781 798.635 591.756 1165.88 571.132 1322.83C543.113 1536.07 47.6813 1090.23 96.1658 1642" stroke="black" stroke-width="50" stroke-dasharray="100 3"/>
</g>
<defs>
<clipPath id="clip0_47_55">
<rect width="428" height="8823" fill="white" transform="translate(0 -2243)"/>
</clipPath>
</defs>
</svg>
