<svg width="428" height="418" viewBox="0 0 428 418" fill="none" xmlns="http://www.w3.org/2000/svg">
<g clip-path="url(#clip0_47_55)">
<path d="M-235 -2125.47C-176.116 -2136.65 -110.074 -2146.26 -59 -2089.5C106.103 -1906.02 478.657 -2014.08 501 -1946.86C523.342 -1879.64 515.35 -1482.31 501 -1308.18C490.092 -1175.83 -20.4746 -1294.15 -71.5252 -1207.46C-113.84 -1135.61 -121.465 -705.066 -90 -613.372C-50.3385 -497.793 425.654 -584.744 471 -599.102C516.346 -613.46 544.374 -598.319 558.388 -555.572C578.781 -493.365 591.756 -126.12 571.132 30.835C543.113 244.066 47.6813 -201.774 96.1658 350" stroke="black" stroke-width="72"/>
<path d="M-235 -2125.47C-176.116 -2136.65 -110.074 -2146.26 -59 -2089.5C106.103 -1906.02 478.657 -2014.08 501 -1946.86C523.342 -1879.64 515.35 -1482.31 501 -1308.18C490.092 -1175.83 -20.4746 -1294.15 -71.5252 -1207.46C-113.84 -1135.61 -121.465 -705.066 -90 -613.372C-50.3385 -497.793 425.654 -584.744 471 -599.102C516.346 -613.46 544.374 -598.319 558.388 -555.572C578.781 -493.365 591.756 -126.12 571.132 30.835C543.113 244.066 47.6813 -201.774 96.1658 350" stroke="#F8F4DF" stroke-width="69"/>
<path d="M-235 -2125.47C-176.116 -2136.65 -110.074 -2146.26 -59 -2089.5C106.103 -1906.02 478.657 -2014.08 501 -1946.86C523.342 -1879.64 515.35 -1482.31 501 -1308.18C490.092 -1175.83 -20.4746 -1294.15 -71.5252 -1207.46C-113.84 -1135.61 -121.465 -705.066 -90 -613.372C-50.3385 -497.793 425.654 -584.744 471 -599.102C516.346 -613.46 544.374 -598.319 558.388 -555.572C578.781 -493.365 591.756 -126.12 571.132 30.835C543.113 244.066 47.6813 -201.774 96.1658 350" stroke="black" stroke-width="50" stroke-dasharray="100 3"/>
<path d="M50.2646 362.441L153.76 353.141L156.794 386.901L107.002 413.318L53.2984 396.201L50.2646 362.441Z" fill="#66ADD8"/>
<path d="M79.4015 389.272L78.4306 378.948L82.6952 378.547C83.4682 378.474 84.1483 378.551 84.7358 378.777C85.3263 379 85.7988 379.355 86.1533 379.844C86.5075 380.329 86.7177 380.925 86.7841 381.631C86.8514 382.347 86.7524 382.97 86.4869 383.5C86.2212 384.026 85.8133 384.448 85.2633 384.764C84.7129 385.077 84.0446 385.27 83.2582 385.344L80.5613 385.598L80.3764 383.632L82.6095 383.422C82.9859 383.386 83.2956 383.308 83.5384 383.187C83.7844 383.062 83.9634 382.893 84.0755 382.679C84.1873 382.462 84.2281 382.193 84.1981 381.874C84.1681 381.555 84.0777 381.297 83.9271 381.101C83.7761 380.902 83.568 380.762 83.3028 380.682C83.0373 380.598 82.718 380.574 82.345 380.609L81.115 380.725L81.8968 389.037L79.4015 389.272ZM84.77 384.007L87.7846 388.483L85.0625 388.739L82.0983 384.258L84.77 384.007ZM88.8003 388.388L87.8294 378.064L95.0278 377.387L95.2184 379.414L90.5152 379.856L90.7143 381.973L95.0495 381.565L95.2406 383.597L90.9054 384.005L91.105 386.127L95.8082 385.684L95.9987 387.711L88.8003 388.388ZM99.7945 387.354L97.1128 387.606L99.6251 376.955L102.947 376.642L107.401 386.639L104.72 386.891L101.569 379.396L101.488 379.404L99.7945 387.354ZM99.0545 383.325L104.66 382.797L104.838 384.693L99.2328 385.22L99.0545 383.325ZM112.329 386.175L108.513 386.534L107.542 376.21L111.353 375.852C112.405 375.753 113.33 375.874 114.128 376.216C114.93 376.555 115.573 377.091 116.059 377.825C116.545 378.555 116.838 379.457 116.939 380.529C117.04 381.604 116.921 382.548 116.58 383.36C116.243 384.171 115.712 384.819 114.988 385.305C114.264 385.786 113.377 386.076 112.329 386.175ZM110.808 384.172L112.033 384.057C112.611 384.002 113.091 383.859 113.472 383.627C113.857 383.39 114.131 383.041 114.294 382.578C114.461 382.111 114.509 381.507 114.439 380.764C114.369 380.021 114.209 379.44 113.959 379.019C113.709 378.595 113.372 378.305 112.947 378.148C112.525 377.988 112.018 377.935 111.427 377.991L110.237 378.103L110.808 384.172ZM116.718 375.347L119.505 375.085L122.094 379.2L122.185 379.191L123.961 374.666L126.749 374.404L123.62 381.635L123.944 385.083L121.464 385.316L121.14 381.868L116.718 375.347ZM130.409 381.286L130.39 381.079C130.336 380.508 130.34 380.048 130.403 379.7C130.468 379.351 130.584 379.066 130.749 378.844C130.915 378.618 131.122 378.407 131.371 378.21C131.57 378.056 131.746 377.902 131.897 377.749C132.052 377.592 132.171 377.428 132.253 377.258C132.335 377.087 132.367 376.9 132.347 376.695C132.329 376.496 132.265 376.326 132.157 376.184C132.049 376.041 131.908 375.938 131.736 375.872C131.567 375.803 131.383 375.778 131.185 375.797C130.987 375.816 130.804 375.879 130.638 375.986C130.475 376.093 130.346 376.235 130.251 376.414C130.159 376.589 130.123 376.794 130.141 377.029L127.822 377.247C127.766 376.541 127.875 375.947 128.148 375.467C128.425 374.987 128.816 374.615 129.32 374.35C129.823 374.082 130.391 373.919 131.023 373.859C131.715 373.794 132.34 373.844 132.898 374.009C133.46 374.173 133.915 374.45 134.263 374.841C134.612 375.232 134.815 375.732 134.872 376.34C134.91 376.74 134.876 377.099 134.77 377.418C134.664 377.736 134.502 378.024 134.282 378.282C134.065 378.537 133.804 378.775 133.5 378.997C133.262 379.168 133.066 379.343 132.913 379.52C132.764 379.697 132.657 379.893 132.592 380.109C132.528 380.322 132.509 380.578 132.537 380.877L132.557 381.084L130.409 381.286ZM131.834 384.488C131.472 384.522 131.149 384.424 130.866 384.193C130.586 383.961 130.431 383.664 130.401 383.301C130.364 382.945 130.461 382.629 130.693 382.353C130.928 382.073 131.226 381.916 131.589 381.882C131.936 381.849 132.252 381.948 132.538 382.179C132.824 382.407 132.985 382.698 133.022 383.054C133.041 383.296 132.998 383.523 132.892 383.733C132.79 383.942 132.645 384.115 132.458 384.251C132.274 384.387 132.066 384.466 131.834 384.488Z" fill="black"/>
</g>
<defs>
<clipPath id="clip0_47_55">
<rect width="428" height="8823" fill="white" transform="translate(0 -3535)"/>
</clipPath>
</defs>
</svg>
