<svg width="428" height="146" viewBox="0 0 428 146" fill="none" xmlns="http://www.w3.org/2000/svg">
<g clip-path="url(#clip0_47_55)">
<path d="M-235 -1485.47C-176.116 -1496.65 -110.074 -1506.26 -59 -1449.5C106.103 -1266.02 478.657 -1374.08 501 -1306.86C523.342 -1239.64 515.35 -842.305 501 -668.182C490.092 -535.832 -20.4746 -654.155 -71.5252 -567.463C-113.84 -495.605 -121.465 -65.066 -90 26.6275C-50.3385 142.207 425.654 55.2555 471 40.8978C516.346 26.5401 544.374 41.6807 558.388 84.4275C578.781 146.635 591.756 513.88 571.132 670.835C543.113 884.066 47.6813 438.226 96.1658 990" stroke="black" stroke-width="72"/>
<path d="M-235 -1485.47C-176.116 -1496.65 -110.074 -1506.26 -59 -1449.5C106.103 -1266.02 478.657 -1374.08 501 -1306.86C523.342 -1239.64 515.35 -842.305 501 -668.182C490.092 -535.832 -20.4746 -654.155 -71.5252 -567.463C-113.84 -495.605 -121.465 -65.066 -90 26.6275C-50.3385 142.207 425.654 55.2555 471 40.8978C516.346 26.5401 544.374 41.6807 558.388 84.4275C578.781 146.635 591.756 513.88 571.132 670.835C543.113 884.066 47.6813 438.226 96.1658 990" stroke="#F8F4DF" stroke-width="69"/>
<path d="M-235 -1485.47C-176.116 -1496.65 -110.074 -1506.26 -59 -1449.5C106.103 -1266.02 478.657 -1374.08 501 -1306.86C523.342 -1239.64 515.35 -842.305 501 -668.182C490.092 -535.832 -20.4746 -654.155 -71.5252 -567.463C-113.84 -495.605 -121.465 -65.066 -90 26.6275C-50.3385 142.207 425.654 55.2555 471 40.8978C516.346 26.5401 544.374 41.6807 558.388 84.4275C578.781 146.635 591.756 513.88 571.132 670.835C543.113 884.066 47.6813 438.226 96.1658 990" stroke="black" stroke-width="50" stroke-dasharray="100 3"/>
</g>
<defs>
<clipPath id="clip0_47_55">
<rect width="428" height="8823" fill="white" transform="translate(0 -2895)"/>
</clipPath>
</defs>
</svg>
