<svg width="428" height="199" viewBox="0 0 428 199" fill="none" xmlns="http://www.w3.org/2000/svg">
<rect width="428" height="199" fill="#1E1E1E"/>
<g clip-path="url(#clip0_0_1)">
<rect width="428" height="8823" transform="translate(0 -1449)" fill="#F8F4DF"/>
<path d="M-235 -39.4682C-176.116 -50.6454 -110.074 -60.2629 -59 -3.5037C106.103 179.977 478.657 71.9157 501 139.136C523.342 206.356 515.35 603.695 501 777.818C490.092 910.168 -20.4746 791.845 -71.5252 878.537C-113.84 950.395 -121.465 1380.93 -90 1472.63C-50.3385 1588.21 425.654 1501.26 471 1486.9C516.346 1472.54 544.374 1487.68 558.388 1530.43C578.781 1592.63 591.756 1959.88 571.132 2116.83C543.113 2330.07 47.6813 1884.23 96.1658 2436" stroke="black" stroke-width="72"/>
<path d="M-235 -39.4682C-176.116 -50.6454 -110.074 -60.2629 -59 -3.5037C106.103 179.977 478.657 71.9157 501 139.136C523.342 206.356 515.35 603.695 501 777.818C490.092 910.168 -20.4746 791.845 -71.5252 878.537C-113.84 950.395 -121.465 1380.93 -90 1472.63C-50.3385 1588.21 425.654 1501.26 471 1486.9C516.346 1472.54 544.374 1487.68 558.388 1530.43C578.781 1592.63 591.756 1959.88 571.132 2116.83C543.113 2330.07 47.6813 1884.23 96.1658 2436" stroke="#F8F4DF" stroke-width="69"/>
<path d="M-235 -39.4682C-176.116 -50.6454 -110.074 -60.2629 -59 -3.5037C106.103 179.977 478.657 71.9157 501 139.136C523.342 206.356 515.35 603.695 501 777.818C490.092 910.168 -20.4746 791.845 -71.5252 878.537C-113.84 950.395 -121.465 1380.93 -90 1472.63C-50.3385 1588.21 425.654 1501.26 471 1486.9C516.346 1472.54 544.374 1487.68 558.388 1530.43C578.781 1592.63 591.756 1959.88 571.132 2116.83C543.113 2330.07 47.6813 1884.23 96.1658 2436" stroke="black" stroke-width="50" stroke-dasharray="100 3"/>
</g>
<defs>
<clipPath id="clip0_0_1">
<rect width="428" height="8823" fill="white" transform="translate(0 -1449)"/>
</clipPath>
</defs>
</svg>
