<?xml version="1.0" encoding="UTF-8"?>
<!DOCTYPE svg PUBLIC "-//W3C//DTD SVG 1.1//EN" "http://www.w3.org/Graphics/SVG/1.1/DTD/svg11.dtd">
<svg xmlns="http://www.w3.org/2000/svg" xml:space="preserve" width="44.7352mm" height="44.7352mm" version="1.1" style="shape-rendering:geometricPrecision; text-rendering:geometricPrecision; image-rendering:optimizeQuality; fill-rule:evenodd; clip-rule:evenodd"
viewBox="0 0 1172.17 1172.17"
 xmlns:xlink="http://www.w3.org/1999/xlink">
 <defs>
  <style type="text/css">
   <![CDATA[
    .fil0 {fill:black}
   ]]>
  </style>
 </defs>
 <g id="Layer_x0020_1">
  <metadata id="CorelCorpID_0Corel-Layer"/>
  <path class="fil0" d="M586.08 0l57.94 369.85 235.1 -291.33 -134.75 349.27 349.27 -134.75 -291.33 235.1 369.85 57.94 -369.85 57.94 291.33 235.1 -349.27 -134.74 134.75 349.26 -235.1 -291.33 -57.94 369.85 -57.94 -369.85 -235.1 291.33 134.75 -349.26 -349.27 134.74 291.33 -235.1 -369.85 -57.94 369.85 -57.94 -291.33 -235.1 349.27 134.75 -134.75 -349.27 235.1 291.33 57.94 -369.85zm0 615.98l-48.48 -48.49 11.31 -11.31 37.17 37.17 37.18 -37.17 11.31 11.31 -48.49 48.49z"/>
 </g>
</svg>
