<svg width="144" height="40" viewBox="0 0 144 40" fill="none" xmlns="http://www.w3.org/2000/svg">
<g clip-path="url(#clip0_32_639)">
<mask id="mask0_32_639" style="mask-type:luminance" maskUnits="userSpaceOnUse" x="0" y="0" width="144" height="40">
<path d="M144 0H0V40H144V0Z" fill="white"/>
</mask>
<g mask="url(#mask0_32_639)">
<path fill-rule="evenodd" clip-rule="evenodd" d="M31.8296 38.4354L31.9952 37.9834C32.465 36.6896 32.7576 35.9964 32.7612 28.1144V20.0102C32.7648 18.2555 32.7482 16.7122 32.2774 15.6864C31.804 14.6789 30.9764 14.0717 28.9844 14.0533C25.5578 14.0578 23.6774 15.874 22.788 16.7634V28.1144C22.788 31.6864 22.7888 33.4904 22.968 35.4052C23.0896 36.7726 23.3094 37.2456 23.5576 37.9924L23.7052 38.4354H16.0543L16.2801 37.9552C16.5453 37.3856 16.7306 36.984 16.876 35.6576C17.0178 34.3364 17.0937 32.1338 17.0937 28.1144V19.4084C17.0973 18.2591 17.0838 16.8949 16.5902 15.8758C16.0916 14.8687 15.2013 14.131 13.1347 14.1157C10.3659 14.118 8.66642 15.4759 7.11956 16.78V28.1144C7.11956 31.6864 7.12044 33.4904 7.2995 35.4052C7.42112 36.7726 7.6419 37.2448 7.88872 37.9924L8.03502 38.4354H0.497212L0.66101 37.9834C1.12727 36.6896 1.42255 35.9964 1.42614 28.1144V22.9158C1.42704 22.5546 1.42614 17.3468 1.24619 14.836C1.12458 13.2945 0.840064 12.5715 0.538498 11.7126L0.426758 11.3967L6.58912 9.20495L6.86734 11.8145C8.08842 10.759 10.5193 9.08198 14.5272 9.08692C15.7119 9.08872 17.8848 9.26956 19.8365 10.4619C20.6164 10.9066 21.0706 11.4604 21.4848 12.0236C22.7538 11.0036 25.542 9.08424 29.9516 9.08692C32.4968 9.0977 36.1048 9.92163 37.5696 12.5338C38.3374 14.0013 38.4554 15.3583 38.4546 18.3152V28.1144C38.4546 32.291 38.5166 33.9082 38.636 35.403C38.758 36.708 38.9806 37.252 39.226 37.9924L39.3746 38.4354H31.8296Z" fill="#FFF3D6"/>
<path fill-rule="evenodd" clip-rule="evenodd" d="M70.3039 36.1072C69.4589 34.4888 69.4745 32.5332 69.4709 30.9602V14.5397H66.5679V9.66532V9.2924L66.9383 9.3301C68.0327 9.44004 68.5223 9.49974 69.5321 9.55492V3.07888L75.2259 1.01953V9.57154H80.0321C80.9113 9.57154 81.7199 9.45486 82.6075 9.2188L83.0823 9.09226L83.0285 9.58186C82.8449 11.2189 82.7183 12.2865 82.4975 13.0306C82.2939 13.7665 81.8931 14.2476 81.2923 14.4114C80.9017 14.5254 80.4625 14.5388 79.9101 14.5397H75.2259V29.8106C75.2227 31.1286 75.3097 32.2298 75.6477 32.934C75.9919 33.6272 76.4837 33.9944 77.6119 34.0122C79.6305 34.0186 81.4429 32.6472 82.9297 31.033L83.5459 30.3652L83.5135 31.2736C83.4207 33.853 83.3045 35.2038 83.0953 36.0254C82.9063 36.8484 82.4855 37.19 82.0945 37.4108C81.1185 38.0596 79.0153 38.9154 76.1593 38.9182H76.1073C72.8937 38.9182 71.1431 37.729 70.3039 36.1072Z" fill="#FFF3D6"/>
<path fill-rule="evenodd" clip-rule="evenodd" d="M86.6285 38.4348L86.7919 37.9838C87.2591 36.6896 87.5529 35.9968 87.5565 28.1148V22.9764C87.5565 20.4966 87.5565 17.2346 87.3761 14.8221C87.3157 13.2855 87.0347 12.572 86.7299 11.714L86.6177 11.4012L92.5283 9.20181L92.8587 11.788C94.0155 10.6607 95.9287 9.08199 99.0843 9.08693C99.2441 9.08783 99.7861 9.08379 100.324 9.24489C100.846 9.38895 101.48 9.79239 101.478 10.5764C101.474 11.017 101.34 11.3967 101.162 12.0622L100.214 15.1784L99.8871 15.0689C99.3289 14.8826 98.9219 14.7229 98.0589 14.7202C95.3911 14.7229 93.8173 16.255 93.1925 16.8823V28.1148C93.1925 32.2914 93.2495 33.9082 93.3711 35.4044C93.4919 36.708 93.7131 37.252 93.9599 37.9924L94.1067 38.4348H86.6285Z" fill="#FFF3D6"/>
<path fill-rule="evenodd" clip-rule="evenodd" d="M104.451 38.435L104.626 37.9786C105.089 36.7554 105.386 35.9952 105.389 28.1144L105.39 22.8524C105.39 20.4968 105.389 17.1096 105.208 14.8362C105.089 13.3562 104.802 12.4968 104.505 11.7218L104.378 11.3906L111.085 9.2002V28.1144C111.085 32.2906 111.145 33.9084 111.265 35.4042C111.385 36.7078 111.609 37.2512 111.854 37.9916L112.002 38.435H104.451Z" fill="#FFF3D6"/>
<path fill-rule="evenodd" clip-rule="evenodd" d="M123.693 9.57129H123.982L124.026 9.85805C124.319 11.7801 125.194 13.4899 126.329 15.0982L129.709 19.948C134.888 13.9705 135.47 12.1705 135.884 9.85043L135.933 9.57129H142.319L142.158 10.0214C140.229 15.3845 136.707 19.8972 132.718 23.9208L138.909 32.7658C140.716 35.3516 141.724 36.4134 143.057 37.8714L143.573 38.4354H134.911V38.099C134.899 36.8132 134.912 36.6252 132.79 33.3892L128.727 27.44C126.939 29.3154 123.09 33.6616 122.267 38.16L122.217 38.4354H115.463L115.634 37.9804C117.746 32.3704 121.565 27.7322 125.678 23.4828L120.332 15.6636C119.001 13.7353 117.619 11.8698 116.117 10.1278L115.638 9.57129H123.693Z" fill="#FFF3D6"/>
<path fill-rule="evenodd" clip-rule="evenodd" d="M56.91 30.3024C56.7974 31.317 56.63 32.4982 55.0002 33.5078C54.1552 34.0132 53.2006 34.2406 52.3578 34.2406C49.322 34.2406 48.9284 31.9332 48.9284 30.8118C48.9284 26.7622 53.2006 25.6946 56.91 25.5258V30.3024ZM64.815 36.0842C63.3484 34.8218 62.725 34.0854 62.6964 30.4142V16.9855C62.6936 15.654 62.7084 13.6844 61.5714 12.0159C60.4284 10.3411 58.1504 9.08055 53.8302 9.08595C51.3634 9.08729 48.9252 9.59259 47.079 10.3366C45.254 11.0973 43.9274 12.0186 43.875 13.2352C43.8786 13.657 44.0056 14.1264 43.9966 14.2036V14.2489L44.0082 14.2911L44.9484 17.7739L45.3608 17.3382C48.591 13.9348 52.5238 13.9366 53.1046 13.9366C54.9884 13.9442 55.8586 14.4477 56.3294 15.1716C56.8072 15.9035 56.8844 16.9935 56.8808 18.1971V20.6042C53.9092 20.8076 50.6082 21.3928 47.9788 22.8628C45.2558 24.3766 43.2606 26.9116 43.2696 30.8414C43.2718 32.5556 43.6704 34.5724 44.8626 36.1902C46.0532 37.8096 48.0588 38.9864 51.1066 38.9796H51.1354C54.9776 38.98 57.1188 37.3798 58.1584 36.4518C58.8886 38.358 59.787 38.9544 60.4248 38.9796C60.8852 38.9662 61.3034 38.6946 61.5452 38.5802L65.1762 36.3862L64.815 36.0842Z" fill="#FFF3D6"/>
</g>
</g>
<defs>
<clipPath id="clip0_32_639">
<rect width="144" height="40" fill="white"/>
</clipPath>
</defs>
</svg>
