<svg width="197" height="197" viewBox="0 0 197 197" fill="none" xmlns="http://www.w3.org/2000/svg">
<mask id="mask0_32_650" style="mask-type:luminance" maskUnits="userSpaceOnUse" x="6" y="74" width="32" height="46">
<path d="M32.3297 94.0584C34.1728 94.421 35.5023 95.2066 36.2576 96.4152C37.013 97.6238 37.4058 99.5575 37.4058 102.186C37.4058 107.383 35.8346 111.643 32.7225 114.967C29.5802 118.291 25.5918 119.922 20.7273 119.922C18.7935 119.922 16.9504 119.59 15.1375 118.895C13.3247 118.2 11.7837 117.233 10.4845 115.994C9.00395 114.635 7.88601 113.184 7.13064 111.674C6.37527 110.163 6.0127 108.592 6.0127 107.021C6.0127 105.238 6.40549 103.878 7.16086 102.911C7.91622 101.944 9.12481 101.28 10.7866 100.917C10.4845 100.192 10.2428 99.5877 10.0917 99.1043C9.94061 98.6208 9.88018 98.2281 9.88018 97.9561C9.88018 97.0195 10.3636 96.0828 11.3607 95.1159C12.3276 94.1491 13.2642 93.6656 14.1405 93.6656C14.503 93.6656 14.8958 93.7261 15.3188 93.8771C15.7418 93.998 16.1951 94.2397 16.7389 94.5419C15.1375 90.0399 13.9894 86.5652 13.2642 84.1178C12.5391 81.6704 12.1765 79.9784 12.1765 79.0417C12.1765 77.7727 12.5089 76.7454 13.1736 75.99C13.8383 75.2346 14.7448 74.8721 15.8627 74.8721C17.7964 74.8721 20.274 79.1928 23.2351 87.8644C23.7487 89.3449 24.1415 90.4931 24.4135 91.3089C24.6552 90.6744 24.9573 89.7679 25.3803 88.5896C28.3414 80.0086 30.9096 75.7181 33.0549 75.7181C34.1124 75.7181 34.9584 76.0807 35.5929 76.7756C36.2274 77.5008 36.5296 78.4374 36.5296 79.646C36.5296 80.5524 36.1972 82.2142 35.5023 84.6314C34.7771 86.9882 33.7498 90.1607 32.3297 94.0584ZM10.1521 106.688C10.4543 107.051 10.8471 107.564 11.3607 108.229C12.7204 110.102 13.9894 111.039 15.1375 111.039C15.5303 111.039 15.8929 110.918 16.1951 110.677C16.4972 110.435 16.6483 110.163 16.6483 109.891C16.6483 109.589 16.4368 109.075 16.044 108.35C15.621 107.625 15.0771 106.809 14.352 105.903C13.5362 104.845 12.8412 104.09 12.2974 103.606C11.7535 103.123 11.3003 102.881 10.9679 102.881C10.2428 102.881 9.57803 103.274 8.97374 104.029C8.36944 104.815 8.0673 105.721 8.0673 106.779C8.0673 107.625 8.2788 108.561 8.70181 109.619C9.12481 110.677 9.72911 111.704 10.5449 112.761C11.7535 114.393 13.2642 115.632 15.0771 116.538C16.89 117.414 18.8842 117.868 21.0596 117.868C25.0782 117.868 28.4622 116.357 31.1816 113.366C33.9009 110.374 35.2605 106.598 35.2605 102.065C35.2605 100.675 35.1699 99.5877 34.9584 98.7719C34.7469 97.9561 34.4145 97.3518 33.9311 96.9892C33.0851 96.2943 31.4233 95.6598 29.0061 95.0857C26.5587 94.5419 23.9905 94.2397 21.3316 94.2397C20.5762 94.2397 20.0625 94.3606 19.7604 94.6023C19.4582 94.844 19.3072 95.267 19.3072 95.8713C19.3072 97.2612 20.0928 98.2885 21.6639 98.923C23.2351 99.5575 25.7731 99.8596 29.278 99.8596H30.5471C30.8492 99.8596 31.0607 99.9805 31.242 100.192C31.4233 100.404 31.5441 100.736 31.6046 101.159C31.242 101.491 30.5168 101.854 29.4291 102.277C28.3414 102.7 27.4954 103.123 26.9213 103.546C25.6825 104.452 24.6854 105.54 23.93 106.779C23.1747 108.018 22.8121 109.196 22.8121 110.314C22.8121 111.009 22.9632 111.825 23.2955 112.761C23.6279 113.728 23.779 114.302 23.779 114.544V114.756L23.7185 115.027C22.8121 114.967 22.0869 114.423 21.5733 113.426C21.0596 112.429 20.7877 111.1 20.7877 109.408V109.136C20.6366 109.287 20.4553 109.377 20.3043 109.438C20.1532 109.498 19.9719 109.528 19.7906 109.528C19.6093 109.528 19.428 109.498 19.277 109.468C19.1259 109.438 18.9144 109.377 18.7331 109.317C18.7935 109.559 18.854 109.77 18.8842 109.982C18.9144 110.193 18.9446 110.374 18.9446 110.495C18.9446 111.251 18.6425 111.915 18.0382 112.459C17.4339 113.003 16.7389 113.275 15.8929 113.275C14.5937 113.275 13.2642 112.64 11.9348 111.371C10.6053 110.102 9.91039 108.864 9.91039 107.625C9.91039 107.383 9.94061 107.202 10.001 107.021C9.94061 106.96 10.0313 106.809 10.1521 106.688ZM19.4582 107.444C19.8208 107.444 20.123 107.292 20.4251 106.96C20.7273 106.628 20.8481 106.295 20.8481 105.933C20.8481 105.54 20.5762 104.634 20.0021 103.183C19.428 101.763 18.7331 100.343 17.8871 98.9532C17.2526 97.9259 16.6483 97.1403 16.0742 96.6267C15.4699 96.113 14.8958 95.8411 14.3822 95.8411C13.9592 95.8411 13.4757 96.113 12.9319 96.6569C12.4182 97.2007 12.1463 97.7144 12.1463 98.1978C12.1463 98.6813 12.4182 99.4366 12.9319 100.434C13.4455 101.431 14.1405 102.488 15.0167 103.606C15.9231 104.815 16.7691 105.782 17.5849 106.446C18.3403 107.081 18.9748 107.444 19.4582 107.444ZM22.4797 92.4873L19.1259 82.8185C18.2497 80.3712 17.5849 78.7698 17.1015 78.0144C16.6181 77.259 16.1044 76.8965 15.5605 76.8965C15.1375 76.8965 14.775 77.0475 14.503 77.3799C14.2311 77.7123 14.1102 78.1655 14.1102 78.7093C14.1102 79.646 14.4728 81.3078 15.198 83.6646C15.9231 86.0213 17.0109 89.1032 18.4612 92.9103C18.582 92.6685 18.7633 92.5175 18.9748 92.4268C19.2165 92.3362 19.5187 92.2757 19.9115 92.2757C20.0323 92.2757 20.274 92.2758 20.6668 92.306C21.0294 92.3362 21.6337 92.3966 22.4797 92.4873ZM25.9846 101.854C25.1084 101.824 24.2624 101.733 23.4466 101.582C22.661 101.431 21.9056 101.219 21.1805 100.978C21.5128 101.642 21.815 102.307 22.0567 102.972C22.3286 103.636 22.5401 104.271 22.6912 104.936C23.1747 104.331 23.7185 103.757 24.2624 103.244C24.8063 102.7 25.3803 102.247 25.9846 101.854ZM30.0938 93.5146C31.4837 89.7679 32.5412 86.6558 33.3268 84.2084C34.1124 81.761 34.475 80.2503 34.475 79.7064C34.475 79.1021 34.3541 78.6489 34.0822 78.3166C33.8102 77.9842 33.4779 77.8331 33.0247 77.8331C32.4506 77.8331 31.8463 78.3165 31.2722 79.2834C30.6679 80.2503 30.0032 81.7912 29.278 83.9063L26.1961 92.8498L30.0938 93.5146Z" fill="white"/>
</mask>
<g mask="url(#mask0_32_650)">
<mask id="mask1_32_650" style="mask-type:luminance" maskUnits="userSpaceOnUse" x="5" y="74" width="34" height="46">
<path d="M38.0103 74.751H5.37842V119.922H38.0103V74.751Z" fill="white"/>
</mask>
<g mask="url(#mask1_32_650)">
<path d="M40.5484 71.6992H2.87061V123.064H40.5484V71.6992Z" fill="#FFF3D6"/>
</g>
</g>
<mask id="mask2_32_650" style="mask-type:luminance" maskUnits="userSpaceOnUse" x="51" y="82" width="137" height="29">
<path d="M187.301 88.4685V91.4295H184.068V99.4364C184.068 100.192 184.189 100.675 184.43 100.947C184.672 101.189 185.186 101.31 185.911 101.31C186.153 101.31 186.394 101.31 186.636 101.28C186.878 101.249 187.089 101.219 187.301 101.189V104.633C186.938 104.694 186.515 104.724 186.062 104.754C185.609 104.784 185.156 104.784 184.733 104.784C184.038 104.784 183.403 104.724 182.799 104.633C182.195 104.543 181.651 104.361 181.198 104.09C180.744 103.818 180.351 103.425 180.11 102.941C179.838 102.428 179.717 101.793 179.717 100.977V91.4295H177.058V88.4685H179.717V83.6341H184.128V88.4685H187.301ZM165.758 100.615C165.939 100.947 166.211 101.249 166.513 101.461C166.815 101.672 167.178 101.854 167.571 101.944C167.963 102.035 168.386 102.095 168.84 102.095C169.142 102.095 169.474 102.065 169.807 101.974C170.139 101.914 170.471 101.793 170.743 101.642C171.015 101.491 171.257 101.28 171.438 101.008C171.619 100.736 171.71 100.434 171.71 100.011C171.71 99.3458 171.257 98.8321 170.381 98.4998C169.504 98.1674 168.266 97.8351 166.694 97.5027C166.06 97.3516 165.425 97.1703 164.821 96.989C164.217 96.7775 163.673 96.5358 163.19 96.2035C162.706 95.8711 162.344 95.4783 162.041 94.9949C161.739 94.5114 161.618 93.9071 161.618 93.182C161.618 92.1245 161.83 91.2785 162.223 90.6137C162.615 89.949 163.159 89.4052 163.824 89.0426C164.489 88.6498 165.244 88.3778 166.06 88.2268C166.876 88.0757 167.722 87.9851 168.598 87.9851C169.474 87.9851 170.32 88.0757 171.136 88.2268C171.952 88.4081 172.677 88.68 173.311 89.0728C173.946 89.4656 174.49 90.0094 174.913 90.644C175.336 91.3087 175.578 92.1245 175.668 93.1216H171.468C171.408 92.2756 171.076 91.7015 170.501 91.3993C169.927 91.0972 169.232 90.9461 168.447 90.9461C168.205 90.9461 167.933 90.9763 167.631 91.0065C167.329 91.0367 167.087 91.0972 166.846 91.218C166.604 91.3087 166.392 91.4597 166.241 91.6713C166.09 91.8828 166 92.1245 166 92.4568C166 92.8496 166.151 93.182 166.423 93.4237C166.725 93.6654 167.087 93.8769 167.54 94.028C167.994 94.1791 168.538 94.3302 169.142 94.451C169.746 94.5719 170.35 94.7229 170.985 94.8438C171.619 94.9949 172.254 95.1762 172.858 95.3877C173.463 95.5992 174.006 95.8711 174.49 96.2035C174.973 96.5358 175.336 96.989 175.638 97.4725C175.94 97.9861 176.061 98.6206 176.061 99.376C176.061 100.434 175.849 101.34 175.426 102.065C175.003 102.79 174.46 103.364 173.765 103.787C173.07 104.21 172.314 104.543 171.408 104.724C170.532 104.905 169.625 104.996 168.719 104.996C167.782 104.996 166.876 104.905 166 104.724C165.123 104.543 164.307 104.21 163.613 103.787C162.918 103.364 162.344 102.76 161.921 102.065C161.467 101.34 161.226 100.434 161.195 99.3458H165.395C165.456 99.8594 165.546 100.282 165.758 100.615ZM154.488 85.9607V82.3047H158.899V85.9607H154.488ZM154.488 104.633V88.4685H158.899V104.633H154.488ZM141.858 82.3047V100.524H152.645V104.664H136.963V82.3349H141.858V82.3047ZM129.077 104.633V82.3047H133.488V104.633H129.077ZM116.236 100.766C116.901 101.4 117.837 101.733 119.076 101.733C119.952 101.733 120.738 101.521 121.372 101.068C122.007 100.615 122.4 100.131 122.551 99.6479H126.418C125.784 101.582 124.847 102.972 123.578 103.818C122.309 104.664 120.738 105.056 118.925 105.056C117.656 105.056 116.538 104.845 115.511 104.452C114.483 104.059 113.637 103.455 112.942 102.73C112.247 101.974 111.704 101.068 111.311 100.041C110.918 98.9832 110.737 97.8653 110.737 96.5963C110.737 95.3877 110.918 94.2697 111.341 93.2122C111.734 92.1849 112.278 91.2785 113.003 90.4929C113.728 89.7375 114.604 89.1332 115.601 88.68C116.598 88.257 117.716 88.0153 118.925 88.0153C120.285 88.0153 121.493 88.2872 122.49 88.8009C123.518 89.3447 124.333 90.0397 124.998 90.9461C125.663 91.8525 126.116 92.8798 126.418 93.9978C126.72 95.1459 126.811 96.3545 126.72 97.5933H115.148C115.209 99.0739 115.571 100.101 116.236 100.766ZM121.221 92.2453C120.708 91.6713 119.892 91.3691 118.804 91.3691C118.109 91.3691 117.505 91.49 117.052 91.7317C116.598 91.9734 116.206 92.2755 115.934 92.6381C115.662 93.0007 115.45 93.3633 115.329 93.7561C115.209 94.1489 115.148 94.5114 115.118 94.8136H122.279C122.128 93.6956 121.735 92.8194 121.221 92.2453ZM108.108 105.812C107.927 106.658 107.564 107.413 106.99 108.138C106.416 108.863 105.57 109.468 104.482 109.981C103.395 110.495 101.914 110.737 100.071 110.737C99.2854 110.737 98.4696 110.646 97.6538 110.435C96.838 110.223 96.0826 109.921 95.4179 109.498C94.7532 109.075 94.1791 108.531 93.7561 107.897C93.3029 107.232 93.0611 106.446 93.0007 105.54H97.3819C97.5934 106.386 97.9861 106.96 98.5904 107.262C99.1947 107.594 99.8897 107.745 100.675 107.745C101.914 107.745 102.821 107.383 103.395 106.628C103.969 105.872 104.241 104.936 104.21 103.787V101.672H104.15C103.667 102.518 103.002 103.153 102.126 103.576C101.249 103.969 100.313 104.18 99.3458 104.18C98.1372 104.18 97.1099 103.969 96.2337 103.546C95.3575 103.123 94.6625 102.549 94.0884 101.793C93.5446 101.038 93.1216 100.192 92.8496 99.1947C92.5777 98.1976 92.4569 97.1703 92.4569 96.0524C92.4569 94.9949 92.6079 93.9978 92.9101 93.0309C93.2122 92.064 93.6352 91.218 94.2395 90.4627C94.8136 89.7073 95.5388 89.1332 96.3848 88.68C97.2308 88.257 98.2279 88.0153 99.3458 88.0153C100.403 88.0153 101.34 88.2268 102.126 88.6196C102.911 89.0124 103.576 89.6771 104.12 90.6137H104.18V88.4685H108.38V103.606C108.38 104.241 108.289 104.996 108.108 105.812ZM102.065 100.434C102.549 100.192 102.941 99.8594 103.244 99.4364C103.546 99.0134 103.787 98.5602 103.938 98.0163C104.09 97.4725 104.18 96.9286 104.18 96.3545C104.18 95.6898 104.12 95.0553 103.999 94.451C103.878 93.8467 103.667 93.3331 103.364 92.8798C103.062 92.4266 102.7 92.064 102.216 91.7921C101.733 91.5202 101.128 91.3993 100.403 91.3993C99.7688 91.3993 99.2552 91.5202 98.8019 91.7619C98.3487 92.0036 97.9861 92.3662 97.684 92.7892C97.3819 93.2122 97.1704 93.6956 97.0193 94.2697C96.8984 94.8136 96.8078 95.3877 96.8078 95.992C96.8078 96.566 96.8682 97.1401 96.9891 97.7142C97.1099 98.2883 97.2912 98.8019 97.5934 99.2551C97.8653 99.7084 98.2279 100.101 98.6811 100.373C99.1343 100.675 99.7084 100.796 100.373 100.796C101.038 100.826 101.582 100.705 102.065 100.434ZM79.1624 88.4685V90.7346H79.253C79.7969 89.7979 80.522 89.103 81.4285 88.68C82.3047 88.257 83.2414 88.0455 84.1478 88.0455C85.3262 88.0455 86.2931 88.1966 87.0484 88.5289C87.8038 88.8613 88.4081 89.3145 88.8311 89.8886C89.2541 90.4627 89.5562 91.1576 89.7375 91.9734C89.9188 92.7892 90.0095 93.6956 90.0095 94.7229V104.664H85.5981V95.5387C85.5981 94.2093 85.3866 93.2122 84.9636 92.5475C84.5406 91.8828 83.8154 91.5504 82.7579 91.5504C81.5493 91.5504 80.7033 91.913 80.1595 92.6381C79.6156 93.3633 79.3437 94.5417 79.3437 96.2035V104.694H74.9323V88.5289H79.1624V88.4685ZM65.2636 82.3047L73.5424 104.633H68.4966L66.8348 99.6479H58.5559L56.8035 104.633H51.9087L60.2782 82.3047H65.2636ZM65.5355 95.992L62.7558 87.8038H62.6953L59.8249 95.992H65.5355Z" fill="white"/>
</mask>
<g mask="url(#mask2_32_650)">
<mask id="mask3_32_650" style="mask-type:luminance" maskUnits="userSpaceOnUse" x="51" y="82" width="137" height="29">
<path d="M187.301 82.3047H51.8784V110.737H187.301V82.3047Z" fill="white"/>
</mask>
<g mask="url(#mask3_32_650)">
<path d="M194.069 75.5366H45.1104V117.505H194.069V75.5366Z" fill="#FFF3D6"/>
</g>
</g>
</svg>
