<svg width="1440" height="881" viewBox="0 0 1440 881" fill="none" xmlns="http://www.w3.org/2000/svg">
<line x1="39.5" y1="287" x2="39.5" y2="881" stroke="black"/>
<line x1="79.5" y1="287" x2="79.5" y2="881" stroke="black"/>
<line x1="119.5" y1="287" x2="119.5" y2="881" stroke="black"/>
<line x1="159.5" y1="287" x2="159.5" y2="881" stroke="black"/>
<line x1="199.5" y1="287" x2="199.5" y2="881" stroke="black"/>
<line x1="239.5" y1="287" x2="239.5" y2="881" stroke="black"/>
<line x1="279.5" y1="287" x2="279.5" y2="881" stroke="black"/>
<line x1="319.5" y1="287" x2="319.5" y2="881" stroke="black"/>
<line x1="359.5" y1="287" x2="359.5" y2="881" stroke="black"/>
<line x1="399.5" y1="287" x2="399.5" y2="881" stroke="black"/>
<line x1="439.5" y1="287" x2="439.5" y2="881" stroke="black"/>
<line x1="479.5" y1="287" x2="479.5" y2="881" stroke="black"/>
<line x1="519.5" y1="287" x2="519.5" y2="881" stroke="black"/>
<line x1="559.5" y1="287" x2="559.5" y2="881" stroke="black"/>
<line x1="599.5" y1="287" x2="599.5" y2="881" stroke="black"/>
<line x1="639.5" y1="287" x2="639.5" y2="881" stroke="black"/>
<line x1="679.5" y1="287" x2="679.5" y2="881" stroke="black"/>
<line x1="719.5" y1="287" x2="719.5" y2="881" stroke="black"/>
<line x1="759.5" y1="287" x2="759.5" y2="881" stroke="black"/>
<line x1="799.5" y1="287" x2="799.5" y2="881" stroke="black"/>
<line x1="839.5" y1="287" x2="839.5" y2="881" stroke="black"/>
<line x1="879.5" y1="287" x2="879.5" y2="881" stroke="black"/>
<line x1="919.5" y1="287" x2="919.5" y2="881" stroke="black"/>
<line x1="959.5" y1="287" x2="959.5" y2="881" stroke="black"/>
<line x1="999.5" y1="287" x2="999.5" y2="881" stroke="black"/>
<line x1="1039.5" y1="287" x2="1039.5" y2="881" stroke="black"/>
<line x1="1079.5" y1="287" x2="1079.5" y2="881" stroke="black"/>
<line x1="1119.5" y1="287" x2="1119.5" y2="881" stroke="black"/>
<line x1="1159.5" y1="287" x2="1159.5" y2="881" stroke="black"/>
<line x1="1199.5" y1="287" x2="1199.5" y2="881" stroke="black"/>
<line x1="1239.5" y1="287" x2="1239.5" y2="881" stroke="black"/>
<line x1="1279.5" y1="287" x2="1279.5" y2="881" stroke="black"/>
<line x1="1319.5" y1="287" x2="1319.5" y2="881" stroke="black"/>
<line x1="1359.5" y1="287" x2="1359.5" y2="881" stroke="black"/>
<line x1="1399.5" y1="287" x2="1399.5" y2="881" stroke="black"/>
<line x1="1617" y1="0.5" x2="-15" y2="0.499948" stroke="black"/>
<line x1="1617" y1="40.5" x2="-15" y2="40.4999" stroke="black"/>
<line x1="1617" y1="80.5" x2="-15" y2="80.4999" stroke="black"/>
<line x1="1617" y1="120.5" x2="-15" y2="120.5" stroke="black"/>
<line x1="1617" y1="160.5" x2="-15" y2="160.5" stroke="black"/>
<line x1="1617" y1="200.5" x2="-15" y2="200.5" stroke="black"/>
<line x1="1617" y1="240.5" x2="-15" y2="240.5" stroke="black"/>
<line x1="1617" y1="280.5" x2="-15" y2="280.5" stroke="black"/>
<line x1="1617" y1="320.5" x2="-15" y2="320.5" stroke="black"/>
<line x1="1617" y1="360.5" x2="-15" y2="360.5" stroke="black"/>
<line x1="1617" y1="400.5" x2="-15" y2="400.5" stroke="black"/>
<line x1="1617" y1="440.5" x2="-15" y2="440.5" stroke="black"/>
<line x1="1617" y1="480.5" x2="-15" y2="480.5" stroke="black"/>
<line x1="1617" y1="520.5" x2="-15" y2="520.5" stroke="black"/>
<line x1="1617" y1="560.5" x2="-15" y2="560.5" stroke="black"/>
<line x1="1617" y1="600.5" x2="-15" y2="600.5" stroke="black"/>
<line x1="1617" y1="640.5" x2="-15" y2="640.5" stroke="black"/>
<line x1="1617" y1="680.5" x2="-15" y2="680.5" stroke="black"/>
<line x1="1617" y1="720.5" x2="-15" y2="720.5" stroke="black"/>
<line x1="1617" y1="760.5" x2="-15" y2="760.5" stroke="black"/>
<line x1="1617" y1="800.5" x2="-15" y2="800.5" stroke="black"/>
<line x1="1617" y1="840.5" x2="-15" y2="840.5" stroke="black"/>
<line x1="1617" y1="880.5" x2="-15" y2="880.5" stroke="black"/>
</svg>
