<?xml version="1.0" encoding="utf-8"?>
<!-- Generator: Adobe Illustrator 27.5.0, SVG Export Plug-In . SVG Version: 6.00 Build 0)  -->
<svg version="1.1" id="Layer_1" xmlns="http://www.w3.org/2000/svg" xmlns:xlink="http://www.w3.org/1999/xlink" x="0px" y="0px"
	 viewBox="0 0 1312 3112" style="enable-background:new 0 0 1312 3112;" xml:space="preserve">
<style type="text/css">
	.st0{fill:none;stroke:#000000;stroke-width:127;}
	.st1{fill:none;stroke:#F8F4DF;stroke-width:123;}
	.st2{fill:#F8F4DF;}
	.st3{fill:#66ADD8;}
	.st4{fill:#DB94A3;stroke:#F8F4DF;stroke-width:1.7708;}
	.st5{fill:#DB94A3;}
	.st6{fill:#72609E;stroke:#F8F4DF;stroke-width:1.7708;}
	.st7{fill:#72609E;}
	.st8{fill-rule:evenodd;clip-rule:evenodd;fill:#FFF3D6;}
	.st9{fill-rule:evenodd;clip-rule:evenodd;}
	.st10{fill-rule:evenodd;clip-rule:evenodd;fill:#FFFFFF;filter:url(#Adobe_OpacityMaskFilter);}
	.st11{mask:url(#path-19-inside-1_202_2_00000159436267423137517630000014449087887029046672_);fill:#F8F4DF;}
	
		.st12{fill-rule:evenodd;clip-rule:evenodd;fill:#FFFFFF;filter:url(#Adobe_OpacityMaskFilter_00000090974047154049599110000018204172946935819424_);}
	.st13{mask:url(#path-22-inside-2_202_2_00000115490891810997076960000004926274735856659128_);fill:#F8F4DF;}
	.st14{stroke:#F8F4DF;}
	.st15{fill:#F8F4DF;fill-opacity:0.75;}
	.st16{fill:#F8F4DF;fill-opacity:0.5;}
	.st17{fill:#F8F4DF;fill-opacity:0.25;}
	.st18{stroke:#F8F4DF;stroke-width:0.679;}
	.st19{fill:none;}
</style>
<path class="st0" d="M-141,79c218-20.5,371.4,63.4,566.9,27c421.9-78.4,662.7-44.3,745.4,79c82.7,123.3,53.1,375.5,0,694.8
	C1131,1122.6,536.5,831,347.5,990c-156.7,131.8-184.9,524.8-68.4,693c146.8,212,400.9,127.5,568.7,101.1
	c167.9-26.3,271.6,1.4,323.5,79.8c75.5,114.1,110.1,315.8,33.8,603.6c-94.6,356.8-946.5-253.1-958.8,405.9"/>
<path class="st1" d="M-141,79c218-20.5,371.4,63.4,566.9,27c421.9-78.4,662.7-44.3,745.4,79c82.7,123.3,53.1,375.5,0,694.8
	C1131,1122.6,536.5,831,347.5,990c-156.7,131.8-184.9,524.8-68.4,693c146.8,212,400.9,127.5,568.7,101.1
	c167.9-26.3,271.6,1.4,323.5,79.8c75.5,114.1,110.1,315.8,33.8,603.6c-95.4,359.7-960.6-263.2-958.9,422.4"/>
<path d="M197.3,2931.7c-0.4-8.1-0.7-16.1-0.8-23.9c-0.1-6.7-0.2-13.3-0.2-19.7c0-65.4,7.7-123.1,22.8-171.5l95.4,29.9
	c-12.1,38.7-18.2,86.4-18.2,141.7c0,5.7,0.1,11.6,0.2,17.5c0.2,7,0.4,14.2,0.7,21.5L197.3,2931.7z M315.8,2742.3l-95-31.2
	c27.5-83.5,78.7-143.1,152.4-177.1l41.9,90.8c-23.3,10.7-42.3,24.7-58.2,42.8C339.4,2687.2,325.6,2712.4,315.8,2742.3z
	 M997.8,2639.2c-60.2,0-126.5-8.3-200.7-18.4l13.4-99.1c72.6,9.8,136.9,17.9,191.9,17.5l0.9,100
	C1001.5,2639.2,999.7,2639.2,997.8,2639.2z M1008.8,2639.1l-1.8-100c93.4-1.6,122.1-29.7,135.5-50.7l84.2,54
	c-22.3,34.8-54.8,60.6-96.3,76.4C1096.9,2631.7,1057.1,2638.3,1008.8,2639.1z M418.8,2623.1l-40.1-91.6
	c50.4-22.1,111.2-32.8,186-32.8c10.3,0,21.2,0.2,32.2,0.6l-3.7,99.9c-9.8-0.4-19.4-0.5-28.6-0.5
	C503.9,2598.7,456.2,2606.7,418.8,2623.1z M792.2,2620.2l-6.1-0.8c-62.8-8.5-127.8-17.4-188.1-19.9l4.2-99.9
	c65,2.7,132.3,11.9,197.4,20.7l6.1,0.8L792.2,2620.2z M1230.3,2536.7l-86-51c5.2-8.8,9.4-19.2,12.6-30.9
	c13.1-49.4,23.2-97.8,30.1-143.9l98.9,14.7c-7.4,49.7-18.3,101.8-32.3,154.8C1248,2501.1,1240.2,2520,1230.3,2536.7z M1286.6,2320.5
	l-99-14.3c6.9-47.9,10.4-94.3,10.4-137.7c0-17.4-0.6-34.6-1.7-51.2l99.8-6.7c1.3,18.8,1.9,38.3,1.9,57.9
	C1298,2216.7,1294.1,2267.8,1286.6,2320.5z M1196,2112.6c-5-67.4-19-126.7-41.7-176.4l90.9-41.6c27.7,60.5,44.7,131.4,50.5,210.6
	L1196,2112.6z M1152.4,1932.2c-6.9-14.5-14.5-28.2-22.7-40.6c-19.2-29.1-48.4-48.2-89.1-58.4l24.3-97c65.1,16.3,115,50,148.2,100.2
	c10.9,16.4,20.9,34.3,29.8,53.1L1152.4,1932.2z M566.7,1873.1c-51,0-96.1-6.3-137.7-19.1l29.5-95.5c31.9,9.9,67.3,14.7,108.1,14.7
	c21.7,0,44.5-1.3,69.9-4.1l10.8,99.4C618.3,1871.5,591.9,1873.1,566.7,1873.1z M652.6,1867.8l-11.3-99.4c43.3-4.9,85.8-13,127-20.8
	c23.8-4.5,46.2-8.8,67.9-12.3l15.9,98.7c-20.3,3.3-42.1,7.4-65.2,11.8C746,1853.7,699.6,1862.5,652.6,1867.8z M423.5,1852.2
	c-73.8-24.1-135.2-70-182.4-136.3l81.5-57.9c35,49.2,78.2,81.7,131.9,99.2L423.5,1852.2z M856.8,1833.4l-15.4-98.8
	c42.9-6.7,82.8-10.1,118.6-10.1c36.2,0,69.6,3.5,99.2,10.3l-22.6,97.4c-22.2-5.1-47.9-7.8-76.6-7.8
	C929.4,1824.5,894.6,1827.5,856.8,1833.4z M237.8,1711.2c-36.2-52.4-61.4-124.7-73-209.1l99.1-13.6c9.4,68.9,28.9,126.3,56.2,165.8
	L237.8,1711.2z M164.1,1496.8c-4.3-32.9-6.4-67.3-6.4-102.2c0-36.7,2.4-73.8,7.1-110.1l99.2,12.8c-4.2,32.1-6.3,64.8-6.3,97.3
	c0,30.6,1.9,60.7,5.6,89.4L164.1,1496.8z M264.6,1292.7l-99.1-13.5c10.4-76.7,31.1-148.2,59.7-206.7l89.8,43.9
	C291,1165.5,273.6,1226.4,264.6,1292.7z M316.9,1112.5l-89.3-44.9c24.3-48.3,53.8-87.3,87.7-115.8c22.5-18.9,50.1-33.6,82.2-43.7
	l30.1,95.4c-19.4,6.1-35.5,14.5-47.9,24.8C356.2,1048,335.1,1076.3,316.9,1112.5z M990.5,1031c-54.5,0-115-6.7-172.2-13.9l12.5-99.2
	c54,6.8,110.6,13.1,159.7,13.1c10.7,0,20.9-0.3,30.2-0.9l6.5,99.8C1015.7,1030.6,1003.4,1031,990.5,1031z M1032.8,1029.5l-7.7-99.7
	c88.4-6.8,94-40.2,96.9-58.1c0.5-3.3,1.1-6.5,1.6-9.8l98.7,16.3c-0.5,3.3-1.1,6.6-1.6,9.9c-7.7,46-31.5,83-69,107
	C1121.4,1014.4,1082.5,1025.7,1032.8,1029.5z M813.3,1016.5c-14.8-1.9-30-3.9-44.7-5.8c-50.5-6.6-102.7-13.5-151.7-17.4l8-99.7
	c51.5,4.2,105,11.2,156.7,18c14.6,1.9,29.7,3.9,44.3,5.8L813.3,1016.5z M431.4,1002.2l-28.2-95.9c37.8-11.1,82.3-16.5,135.9-16.5
	c24.6,0,51,1.1,80.7,3.4l-7.7,99.7c-27.1-2.1-51-3.1-73-3.1C495.2,989.8,459.9,993.8,431.4,1002.2z M1223.1,873.2l-98.7-16.3
	c13-78.9,22.4-141.2,29.6-196.1l99.2,13C1245.9,729.9,1236.4,793.2,1223.1,873.2z M1253.9,668.8l-99.2-12.8
	c9.9-76.1,15.6-139.7,17.5-194.4l99.9,3.5C1270.1,522.9,1264.2,589.5,1253.9,668.8z M1272.3,459.8l-100-3.1
	c0.4-11.8,0.5-23.4,0.5-34.4c0-60.9-5.4-109.6-16.5-149l96.3-27.1c13.6,48.3,20.2,105.9,20.2,176.1
	C1272.9,434.4,1272.7,447,1272.3,459.8z M1155.2,269.2c-6.6-22.1-15.1-41-25.4-56.4c-15.9-23.8-40.7-43.6-73.7-58.9l42.1-90.7
	c49.8,23.1,88.3,54.7,114.6,93.9c15.9,23.7,28.8,51.8,38.2,83.6L1155.2,269.2z M322.6,165.3c-19.3,0-38.9-0.8-60-2.4l7.7-99.7
	c18.5,1.4,35.6,2.1,52.3,2.1c32.9,0,63.7-2.8,94.2-8.4c13.4-2.5,26.8-4.9,39.8-7.2l17.1,98.5c-12.7,2.2-25.7,4.5-38.7,7
	C398.5,162,361.8,165.3,322.6,165.3z M257.4,162.4c-43.4-3.6-86.4-10.3-128-16.7c-23.6-3.7-48.1-7.4-72.5-10.7l13-99.1
	c25.5,3.4,50.5,7.2,74.7,11c41.7,6.5,81.1,12.6,121,15.9L257.4,162.4z M1052.3,152.2c-44.9-20-104.5-32.3-177.3-36.5l5.8-99.8
	c84.8,5,156.2,20.1,212.1,45L1052.3,152.2z M478.6,147.4l-17-98.5c72-12.4,140-21.6,202-27.3l9.2,99.6
	C613.4,126.6,548,135.4,478.6,147.4z M52.1,134.4c-46.3-5.9-85.1-8.7-122.3-8.7c-22.6,0-44.2,1-66.1,3.1l-9.4-99.6
	c24.7-2.3,50-3.5,75.4-3.5c41.6,0,84.5,3,135.1,9.5L52.1,134.4z M677.7,120.6l-9-99.6c51.7-4.7,100.5-7,145.3-7
	c21.2,0,42,0.5,61.6,1.6l-5.3,99.9c-17.9-1-36.8-1.4-56.3-1.4C772.3,114,726.4,116.2,677.7,120.6z"/>
<path class="st2" d="M144,2836.1l197.8-6.1l17.2,132H144V2836.1z"/>
<path class="st3" d="M162.2,2843.7l174.8-5.5l1.8,57l-86.3,39.5l-88.6-34L162.2,2843.7z"/>
<path d="M208.5,2891.1l-0.6-17.5l7.2-0.2c1.3,0,2.4,0.1,3.4,0.6c1,0.4,1.7,1.1,2.3,1.9c0.5,0.9,0.8,1.9,0.9,3.1
	c0,1.2-0.2,2.2-0.7,3.1c-0.5,0.9-1.2,1.5-2.2,2c-1,0.5-2.1,0.7-3.4,0.8l-4.6,0.2l-0.1-3.3l3.8-0.1c0.6,0,1.2-0.1,1.6-0.3
	c0.4-0.2,0.7-0.5,1-0.8s0.3-0.8,0.3-1.3c0-0.5-0.1-1-0.4-1.3c-0.2-0.4-0.6-0.6-1-0.8c-0.4-0.2-1-0.2-1.6-0.2l-2.1,0.1l0.5,14.1
	L208.5,2891.1z M218.1,2882.8l4.6,7.8l-4.6,0.2l-4.5-7.8L218.1,2882.8z M224.4,2890.5l-0.6-17.4l12.2-0.4l0.1,3.4l-7.9,0.3l0.1,3.6
	l7.3-0.3l0.1,3.4l-7.3,0.3l0.1,3.6l7.9-0.3l0.1,3.4L224.4,2890.5z M243,2889.9l-4.5,0.2l5.3-17.7l5.6-0.2l6.5,17.2l-4.5,0.2
	l-4.6-12.9h-0.1L243,2889.9z M242.1,2883l9.5-0.3l0.1,3.2l-9.5,0.3L242.1,2883z M264.2,2889.1l-6.4,0.2l-0.6-17.4l6.4-0.2
	c1.8-0.1,3.3,0.2,4.6,0.9c1.3,0.6,2.3,1.6,3.1,2.9s1.1,2.8,1.2,4.6c0.1,1.8-0.2,3.4-0.9,4.7c-0.6,1.3-1.6,2.4-2.9,3.1
	C267.5,2888.7,265.9,2889.1,264.2,2889.1z M261.8,2885.6l2.1-0.1c1,0,1.8-0.2,2.5-0.6c0.7-0.4,1.2-0.9,1.5-1.7
	c0.3-0.8,0.5-1.8,0.4-3c0-1.2-0.3-2.2-0.6-3c-0.4-0.7-0.9-1.2-1.6-1.6c-0.7-0.3-1.5-0.4-2.5-0.4l-2,0.1L261.8,2885.6z M272.6,2871.4
	l4.7-0.2l3.9,7.2h0.2l3.4-7.4l4.7-0.2l-6,11.8l0.2,5.8l-4.2,0.2l-0.2-5.8L272.6,2871.4z M295,2882.7l0-0.3c0-1,0-1.7,0.2-2.3
	c0.1-0.6,0.4-1.1,0.7-1.4c0.3-0.4,0.7-0.7,1.1-1c0.4-0.2,0.7-0.5,0.9-0.7c0.3-0.2,0.5-0.5,0.6-0.8c0.2-0.3,0.2-0.6,0.2-0.9
	c0-0.3-0.1-0.6-0.3-0.9c-0.2-0.2-0.4-0.4-0.7-0.6c-0.3-0.1-0.6-0.2-0.9-0.2c-0.3,0-0.6,0.1-0.9,0.3c-0.3,0.2-0.5,0.4-0.7,0.7
	c-0.2,0.3-0.3,0.6-0.2,1l-3.9,0.1c0-1.2,0.2-2.2,0.7-3c0.5-0.8,1.2-1.4,2.1-1.8c0.9-0.4,1.8-0.6,2.9-0.7c1.2,0,2.2,0.1,3.1,0.4
	c0.9,0.3,1.7,0.9,2.2,1.5c0.5,0.7,0.8,1.6,0.9,2.6c0,0.7-0.1,1.3-0.3,1.8c-0.2,0.5-0.5,1-0.9,1.4c-0.4,0.4-0.9,0.8-1.4,1.1
	c-0.4,0.3-0.8,0.5-1,0.8c-0.3,0.3-0.5,0.6-0.6,1c-0.1,0.4-0.2,0.8-0.2,1.3l0,0.4L295,2882.7z M297.1,2888.2c-0.6,0-1.1-0.2-1.6-0.6
	c-0.4-0.4-0.7-0.9-0.7-1.5c0-0.6,0.2-1.1,0.6-1.6c0.4-0.4,0.9-0.7,1.6-0.7c0.6,0,1.1,0.2,1.6,0.6c0.5,0.4,0.7,0.9,0.7,1.5
	c0,0.4-0.1,0.8-0.3,1.1c-0.2,0.4-0.5,0.6-0.8,0.8C297.9,2888.1,297.5,2888.2,297.1,2888.2z"/>
<path class="st2" d="M550.7,919.2l-2.4,34.8l-7.4-0.5l1.9-27.8l-0.2,0l-8.3,4.4l0.5-6.5l9-4.9L550.7,919.2z M570.2,956.3
	c-2.9-0.2-5.4-1.1-7.4-2.7c-2-1.6-3.5-3.8-4.4-6.5c-0.9-2.8-1.3-6.1-1-9.9c0.3-3.8,1.1-7,2.4-9.6c1.3-2.6,3.1-4.5,5.3-5.8
	c2.2-1.3,4.8-1.8,7.7-1.6c2.9,0.2,5.4,1.1,7.4,2.6c2,1.6,3.5,3.7,4.4,6.5c0.9,2.7,1.3,6,1,9.8c-0.3,3.8-1.1,7-2.4,9.7
	c-1.3,2.6-3.1,4.6-5.3,5.9S573.1,956.5,570.2,956.3z M570.6,950.2c2,0.1,3.7-0.8,5-2.7c1.3-1.9,2.1-4.9,2.4-8.9
	c0.2-2.6,0.1-4.9-0.4-6.7c-0.4-1.8-1.1-3.2-2-4.1c-0.9-1-2-1.5-3.4-1.6c-2-0.1-3.6,0.7-5,2.6c-1.3,1.9-2.1,4.8-2.4,8.8
	c-0.2,2.7-0.1,4.9,0.3,6.8c0.4,1.8,1.1,3.2,2,4.2C568.1,949.6,569.3,950.1,570.6,950.2z"/>
<path class="st2" d="M448.5,1789.3l-4.3,34.6l-7.3-0.9l3.4-27.7l-0.2,0l-8.6,4l0.8-6.5l9.3-4.4L448.5,1789.3z M465.9,1827.4
	c-2.9-0.4-5.3-1.4-7.2-3.1c-1.9-1.7-3.3-3.9-4.1-6.8c-0.8-2.8-0.9-6.1-0.5-9.9c0.5-3.8,1.4-6.9,2.9-9.4c1.5-2.5,3.3-4.4,5.6-5.5
	c2.3-1.1,4.9-1.5,7.8-1.2s5.3,1.4,7.2,3c1.9,1.7,3.3,3.9,4.1,6.7c0.8,2.8,1,6.1,0.5,9.8c-0.5,3.8-1.4,7-2.9,9.5
	c-1.5,2.5-3.3,4.4-5.6,5.6C471.4,1827.4,468.8,1827.8,465.9,1827.4z M466.7,1821.3c2,0.2,3.7-0.5,5.1-2.4c1.4-1.8,2.4-4.8,2.9-8.8
	c0.3-2.6,0.3-4.9,0-6.7c-0.3-1.8-0.9-3.2-1.8-4.2c-0.9-1-2-1.6-3.3-1.8c-2-0.2-3.7,0.5-5.1,2.4c-1.4,1.8-2.4,4.7-2.9,8.6
	c-0.3,2.7-0.3,4.9,0,6.8c0.3,1.8,0.9,3.3,1.8,4.3C464.3,1820.6,465.3,1821.2,466.7,1821.3z"/>
<path class="st2" d="M441.2,2543.1l5.3,34.5l-7.3,1.1l-4.3-27.6l-0.2,0l-7.1,6.2l-1-6.5l7.7-6.7L441.2,2543.1z M468.4,2575
	c-2.9,0.4-5.5,0.1-7.8-1c-2.3-1.1-4.2-2.9-5.7-5.4c-1.5-2.5-2.6-5.6-3.1-9.4c-0.6-3.8-0.5-7.1,0.2-9.9c0.7-2.8,2-5.1,3.9-6.8
	c1.9-1.7,4.3-2.8,7.1-3.2c2.9-0.4,5.5-0.1,7.8,0.9c2.3,1.1,4.2,2.8,5.8,5.3c1.5,2.5,2.6,5.6,3.1,9.3c0.6,3.8,0.5,7.1-0.2,10
	c-0.7,2.8-2,5.1-3.8,6.9C473.7,2573.5,471.3,2574.6,468.4,2575z M467.5,2569c2-0.3,3.4-1.5,4.3-3.7c0.9-2.2,1-5.2,0.4-9.2
	c-0.4-2.6-1-4.8-1.8-6.4c-0.8-1.7-1.8-2.8-2.9-3.6c-1.1-0.7-2.3-1-3.6-0.8c-2,0.3-3.4,1.5-4.3,3.7c-0.9,2.2-1,5.2-0.4,9.1
	c0.4,2.6,1,4.8,1.8,6.5c0.8,1.7,1.8,2.9,2.9,3.6C465,2568.9,466.2,2569.2,467.5,2569z"/>
<rect x="396.6" y="94.6" transform="matrix(0.9935 -0.1141 0.1141 0.9935 -9.488 50.0793)" class="st4" width="71.9" height="26.6"/>
<ellipse transform="matrix(0.9935 -0.1141 0.1141 0.9935 -11.1522 50.3676)" class="st2" cx="434.3" cy="122.6" rx="36.8" ry="16.3"/>
<ellipse transform="matrix(0.9935 -0.1141 0.1141 0.9935 -10.6983 50.289)" class="st5" cx="433.8" cy="118.6" rx="35.3" ry="15"/>
<path class="st4" d="M466.7,89.7c0.6,5.2-2.6,10.6-8.7,15c-6.1,4.4-14.8,7.7-24.8,8.8c-10,1.1-19.2-0.1-26.1-3
	c-6.9-2.9-11.3-7.4-11.9-12.6c-0.6-5.2,2.6-10.6,8.7-15c6-4.4,14.8-7.7,24.8-8.8c10-1.1,19.2,0.1,26.1,3
	C461.7,80,466.1,84.5,466.7,89.7z"/>
<rect x="818.3" y="28.5" transform="matrix(0.1304 -0.9915 0.9915 0.1304 659.3049 880.5038)" class="st6" width="26.6" height="71.9"/>
<ellipse transform="matrix(0.1304 -0.9915 0.9915 0.1304 643.1087 891.3333)" class="st2" cx="829.6" cy="79.1" rx="16.3" ry="36.8"/>
<ellipse transform="matrix(0.1304 -0.9915 0.9915 0.1304 647.5259 888.3799)" class="st7" cx="830.2" cy="75.1" rx="15" ry="35.3"/>
<path class="st6" d="M869.1,55c-0.7,5.2-5.1,9.6-12.1,12.4c-6.9,2.8-16.2,3.9-26.2,2.6c-10-1.3-18.6-4.8-24.6-9.2
	c-6-4.5-9.1-9.9-8.4-15.1c0.7-5.2,5.1-9.6,12.1-12.4c6.9-2.8,16.2-3.9,26.2-2.6c10,1.3,18.6,4.8,24.6,9.2
	C866.6,44.4,869.8,49.8,869.1,55z"/>
<path class="st8" d="M1208.2,240.1l16-4.9l-17.9,41.3l-37.9-24.3l17.8-5.4C1151.8,140.5,1049.3,92.3,1002,81.6l5-22.4
	C1058.6,70.8,1170.4,122.7,1208.2,240.1z"/>
<path class="st9" d="M1213.2,238.9l16-4.9l-17.9,41.3l-37.9-24.3l17.8-5.4C1156.8,139.3,1054.3,91.1,1007,80.4l5-22.4
	C1063.6,69.6,1175.4,121.5,1213.2,238.9z"/>
<defs>
	<filter id="Adobe_OpacityMaskFilter" filterUnits="userSpaceOnUse" x="1004.7" y="55.6" width="228.1" height="222.7">
		<feColorMatrix  type="matrix" values="1 0 0 0 0  0 1 0 0 0  0 0 1 0 0  0 0 0 1 0"/>
	</filter>
</defs>
<mask maskUnits="userSpaceOnUse" x="1004.7" y="55.6" width="228.1" height="222.7" id="path-19-inside-1_202_2_00000159436267423137517630000014449087887029046672_">
	<path class="st10" d="M1213.2,238.9l16-4.9l-17.9,41.3l-37.9-24.3l17.8-5.4C1156.8,139.3,1054.3,91.1,1007,80.4l5-22.4
		C1063.6,69.6,1175.4,121.5,1213.2,238.9z"/>
</mask>
<path class="st11" d="M1213.2,238.9l-1.9,0.6l0.6,1.9l1.9-0.6L1213.2,238.9z M1229.2,234l1.8,0.8l1.7-4l-4.1,1.3L1229.2,234z
	 M1211.3,275.3l-1.1,1.7l2,1.3l0.9-2.2L1211.3,275.3z M1173.4,251l-0.6-1.9l-4.1,1.3l3.6,2.3L1173.4,251z M1191.2,245.6l0.6,1.9
	l1.9-0.6l-0.6-1.9L1191.2,245.6z M1007,80.4l-2-0.4l-0.4,2l1.9,0.4L1007,80.4z M1012.1,58l0.4-2l-2-0.4l-0.4,2L1012.1,58z
	 M1213.8,240.8l16-4.9l-1.2-3.8l-16,4.9L1213.8,240.8z M1227.4,233.2l-17.9,41.3l3.7,1.6l17.9-41.3L1227.4,233.2z M1212.4,273.6
	l-37.9-24.3l-2.2,3.4l37.9,24.3L1212.4,273.6z M1174,252.9l17.8-5.4l-1.2-3.8l-17.8,5.4L1174,252.9z M1193.1,245
	c-34.7-107.2-138-155.8-185.7-166.5l-0.9,3.9c46.9,10.5,148.6,58.5,182.7,163.8L1193.1,245z M1009,80.9l5-22.4l-3.9-0.9l-5,22.4
	L1009,80.9z M1011.6,60c51.2,11.5,162.2,63.1,199.7,179.6l3.8-1.2C1177,120,1064.4,67.7,1012.5,56L1011.6,60z"/>
<path class="st8" d="M1032.6,2595.4l1.9,16.6l-37.4-25l30.7-32.9l2.1,18.5c110.8-14.7,176.6-106.9,195.6-151.5l21.2,9
	C1226.1,2478.6,1154.9,2579.3,1032.6,2595.4z"/>
<path class="st9" d="M1032.9,2600.5l1.9,16.6l-37.4-25l30.7-32.9l2.1,18.5c110.8-14.7,176.6-106.8,195.6-151.5l21.2,9
	C1226.4,2483.8,1155.1,2584.5,1032.9,2600.5z"/>
<defs>
	
		<filter id="Adobe_OpacityMaskFilter_00000043418537944803580160000012314561304853131908_" filterUnits="userSpaceOnUse" x="994.3" y="2423.6" width="255.3" height="197.6">
		<feColorMatrix  type="matrix" values="1 0 0 0 0  0 1 0 0 0  0 0 1 0 0  0 0 0 1 0"/>
	</filter>
</defs>
<mask maskUnits="userSpaceOnUse" x="994.3" y="2423.6" width="255.3" height="197.6" id="path-22-inside-2_202_2_00000115490891810997076960000004926274735856659128_">
	
		<path style="fill-rule:evenodd;clip-rule:evenodd;fill:#FFFFFF;filter:url(#Adobe_OpacityMaskFilter_00000043418537944803580160000012314561304853131908_);" d="
		M1032.9,2600.5l1.9,16.6l-37.4-25l30.7-32.9l2.1,18.5c110.8-14.7,176.6-106.8,195.6-151.5l21.2,9
		C1226.4,2483.8,1155.1,2584.5,1032.9,2600.5z"/>
</mask>
<path class="st13" d="M1032.9,2600.5l-0.3-2l-1.9,0.2l0.2,2L1032.9,2600.5z M1034.8,2617.1l-1.1,1.7l3.6,2.4l-0.5-4.3L1034.8,2617.1
	z M997.4,2592.1l-1.5-1.4l-1.6,1.7l2,1.3L997.4,2592.1z M1028.1,2559.2l2-0.2l-0.5-4.3l-2.9,3.2L1028.1,2559.2z M1030.2,2577.7
	l-2,0.2l0.2,2l2-0.3L1030.2,2577.7z M1225.8,2426.2l0.8-1.9l-1.8-0.8l-0.8,1.8L1225.8,2426.2z M1247,2435.2l1.8,0.8l0.8-1.8
	l-1.8-0.8L1247,2435.2z M1030.9,2600.8l1.9,16.6l4-0.5l-1.9-16.6L1030.9,2600.8z M1035.9,2615.5l-37.4-25l-2.2,3.3l37.4,25
	L1035.9,2615.5z M998.9,2593.5l30.7-32.9l-2.9-2.7l-30.7,32.9L998.9,2593.5z M1026.1,2559.4l2.1,18.5l4-0.5l-2.1-18.5L1026.1,2559.4
	z M1030.5,2579.7c111.7-14.9,178.1-107.7,197.2-152.7l-3.7-1.6c-18.8,44.3-84.2,135.7-194,150.3L1030.5,2579.7z M1225.1,2428.1
	l21.2,9l1.6-3.7l-21.2-9L1225.1,2428.1z M1245.2,2434.4c-20.5,48.3-91.3,148.2-212.5,164.1l0.5,4
	c123.2-16.2,194.9-117.6,215.7-166.5L1245.2,2434.4z"/>
<circle class="st14" cx="1207.5" cy="634.5" r="40"/>
<circle class="st2" cx="1207.5" cy="634.5" r="33.5"/>
<path d="M1199.9,643.8c-1.8-0.2-3.2-0.8-4.4-1.7c-1.2-1-2-2.3-2.5-4c-0.5-1.7-0.7-3.7-0.4-5.9c0.2-2.3,0.8-4.2,1.6-5.7
	c0.8-1.5,1.9-2.7,3.3-3.4c1.3-0.7,2.9-1,4.6-0.8c1.7,0.2,3.2,0.7,4.4,1.7c1.2,1,2,2.3,2.6,4c0.5,1.7,0.7,3.6,0.4,5.9
	c-0.2,2.3-0.8,4.2-1.6,5.8c-0.8,1.6-1.9,2.7-3.3,3.4C1203.2,643.7,1201.7,643.9,1199.9,643.8z M1200.3,640.1c1.2,0.1,2.2-0.4,3-1.5
	c0.8-1.1,1.4-2.9,1.6-5.3c0.2-1.6,0.1-2.9-0.1-4c-0.2-1.1-0.6-1.9-1.1-2.5c-0.5-0.6-1.2-0.9-2-1c-1.2-0.1-2.2,0.4-3,1.5
	c-0.8,1.1-1.4,2.9-1.6,5.2c-0.2,1.6-0.1,3,0.1,4.1c0.2,1.1,0.6,1.9,1.1,2.5C1198.8,639.7,1199.5,640,1200.3,640.1z M1222.7,624.5
	l-2.1,20.8l-4.4-0.4l1.7-16.6l-0.1,0l-5.1,2.5l0.4-3.9l5.5-2.7L1222.7,624.5z"/>
<circle class="st14" cx="216.5" cy="1497.5" r="40"/>
<circle class="st2" cx="216.5" cy="1497.5" r="33.5"/>
<path d="M207.5,1508.8c-1.7,0.3-3.3,0.2-4.7-0.4c-1.4-0.6-2.6-1.6-3.6-3.1c-1-1.5-1.7-3.3-2.1-5.6c-0.4-2.2-0.5-4.2-0.1-5.9
	c0.4-1.7,1.1-3.1,2.1-4.2c1.1-1.1,2.5-1.8,4.2-2.1c1.7-0.3,3.3-0.2,4.7,0.4c1.4,0.6,2.6,1.6,3.6,3c1,1.4,1.7,3.3,2.1,5.5
	c0.4,2.2,0.5,4.2,0.1,6c-0.3,1.7-1.1,3.1-2.1,4.2C210.6,1507.7,209.2,1508.4,207.5,1508.8z M206.8,1505.2c1.2-0.2,2-1,2.5-2.3
	c0.5-1.3,0.5-3.2,0-5.5c-0.3-1.6-0.7-2.8-1.3-3.8c-0.5-1-1.1-1.7-1.8-2.1c-0.7-0.4-1.4-0.5-2.2-0.4c-1.2,0.2-2,1-2.5,2.3
	c-0.5,1.3-0.5,3.1,0,5.5c0.3,1.6,0.7,2.9,1.3,3.8c0.5,1,1.1,1.7,1.8,2.1C205.3,1505.2,206,1505.3,206.8,1505.2z M218.8,1506.1
	l-0.6-3.1l6-8.2c0.5-0.7,0.9-1.4,1.2-1.9c0.3-0.6,0.6-1.1,0.7-1.6c0.1-0.5,0.1-1,0-1.6c-0.1-0.6-0.4-1.1-0.7-1.5
	c-0.4-0.4-0.8-0.7-1.3-0.8c-0.5-0.2-1.1-0.2-1.7,0c-0.6,0.1-1.2,0.4-1.6,0.7c-0.4,0.3-0.7,0.8-0.9,1.3c-0.2,0.5-0.2,1.1,0,1.8
	l-4.1,0.8c-0.3-1.3-0.2-2.6,0.2-3.7s1.1-2,2.1-2.8c1-0.8,2.2-1.3,3.6-1.6c1.5-0.3,2.8-0.3,4,0c1.2,0.3,2.2,0.8,3,1.6
	c0.8,0.8,1.3,1.8,1.5,3c0.2,0.8,0.2,1.6,0,2.4c-0.2,0.8-0.5,1.8-1.1,2.8c-0.6,1.1-1.5,2.4-2.6,4l-2.4,3.5l0,0.1l8.6-1.7l0.7,3.6
	L218.8,1506.1z"/>
<circle class="st14" cx="1247.5" cy="2093.5" r="40"/>
<circle class="st2" cx="1247.5" cy="2093.5" r="33.5"/>
<path d="M1238.6,2103c-1.8,0-3.3-0.4-4.5-1.3c-1.3-0.9-2.2-2.1-2.9-3.7c-0.7-1.6-1-3.6-1-5.9c0-2.3,0.3-4.2,1-5.8
	c0.7-1.6,1.7-2.8,2.9-3.7c1.3-0.8,2.8-1.3,4.5-1.3s3.3,0.4,4.5,1.3c1.3,0.8,2.2,2.1,2.9,3.7c0.7,1.6,1,3.6,1,5.8
	c0,2.3-0.3,4.3-1,5.9c-0.7,1.6-1.6,2.9-2.9,3.7C1241.8,2102.5,1240.3,2102.9,1238.6,2103z M1238.6,2099.3c1.2,0,2.2-0.6,2.9-1.8
	c0.7-1.2,1.1-3,1.1-5.4c0-1.6-0.2-2.9-0.5-4c-0.3-1.1-0.8-1.9-1.4-2.4s-1.3-0.8-2.1-0.8c-1.2,0-2.1,0.6-2.9,1.8
	c-0.7,1.2-1.1,3-1.1,5.4c0,1.6,0.2,2.9,0.5,4c0.3,1.1,0.8,1.9,1.4,2.4C1237.1,2099,1237.8,2099.3,1238.6,2099.3z M1257.9,2102.8
	c-1.5,0-2.9-0.3-4.1-0.8c-1.2-0.5-2.1-1.3-2.8-2.2c-0.7-0.9-1-2-1.1-3.2h4.5c0,0.5,0.2,1,0.5,1.3c0.3,0.4,0.7,0.7,1.2,0.9
	c0.5,0.2,1.1,0.3,1.7,0.3c0.7,0,1.3-0.1,1.8-0.4c0.5-0.2,0.9-0.6,1.2-1c0.3-0.4,0.4-0.9,0.4-1.5c0-0.6-0.2-1.1-0.5-1.5
	c-0.3-0.4-0.8-0.8-1.3-1c-0.6-0.2-1.3-0.4-2.1-0.4h-1.9v-3.2h1.9c0.7,0,1.3-0.1,1.8-0.3c0.5-0.2,0.9-0.6,1.2-1
	c0.3-0.4,0.4-0.9,0.4-1.4c0-0.5-0.1-1-0.4-1.4c-0.2-0.4-0.6-0.7-1-0.9c-0.4-0.2-1-0.3-1.5-0.3c-0.6,0-1.2,0.1-1.7,0.3
	c-0.5,0.2-0.9,0.5-1.2,0.9c-0.3,0.4-0.5,0.9-0.5,1.4h-4.2c0-1.2,0.4-2.3,1-3.2c0.7-0.9,1.6-1.6,2.7-2.2c1.1-0.5,2.4-0.8,3.8-0.8
	c1.5,0,2.7,0.3,3.8,0.8c1.1,0.5,1.9,1.2,2.5,2.1c0.6,0.9,0.9,1.9,0.9,3c0,1.2-0.3,2.2-1.1,2.9c-0.7,0.8-1.7,1.3-2.8,1.5v0.2
	c1.5,0.2,2.7,0.7,3.5,1.6c0.8,0.9,1.2,1.9,1.2,3.2c0,1.2-0.3,2.2-1,3.2c-0.7,0.9-1.6,1.7-2.8,2.2
	C1260.8,2102.5,1259.5,2102.8,1257.9,2102.8z"/>
<rect x="728.7" y="854" transform="matrix(0.1222 -0.9925 0.9925 0.1222 -298.9007 1586.5444)" class="st2" width="37.6" height="216.4"/>
<rect x="723.5" y="847.6" transform="matrix(0.1222 -0.9925 0.9925 0.1222 -297.1206 1579.2152)" class="st14" width="41.5" height="220"/>
<path class="st2" d="M687.3,946.8c0-0.7-0.2-1.3-0.7-1.7c-0.5-0.4-1.1-0.7-2-0.8c-0.6-0.1-1.1-0.1-1.5,0.1c-0.4,0.1-0.8,0.3-1,0.6
	c-0.3,0.3-0.4,0.6-0.4,1c-0.1,0.3,0,0.6,0.1,0.8c0.1,0.2,0.3,0.5,0.5,0.7c0.2,0.2,0.5,0.4,0.8,0.5c0.3,0.2,0.7,0.3,1,0.4l1.5,0.6
	c0.7,0.3,1.4,0.6,2,0.9c0.6,0.4,1.1,0.8,1.5,1.2c0.4,0.5,0.7,1,0.9,1.6c0.2,0.6,0.2,1.2,0.2,2c-0.1,1.1-0.5,1.9-1.2,2.7
	c-0.6,0.7-1.5,1.2-2.5,1.5c-1.1,0.3-2.3,0.4-3.7,0.2c-1.4-0.2-2.6-0.5-3.6-1.1c-1-0.6-1.7-1.3-2.2-2.2c-0.5-0.9-0.6-2-0.5-3.3
	l3.5,0.5c0,0.6,0.1,1.1,0.3,1.5c0.2,0.4,0.6,0.8,1.1,1c0.5,0.3,1,0.4,1.7,0.5c0.6,0.1,1.2,0.1,1.6-0.1c0.5-0.1,0.9-0.3,1.2-0.6
	s0.5-0.6,0.5-1.1c0.1-0.4,0-0.7-0.2-1c-0.2-0.3-0.5-0.6-0.9-0.8c-0.4-0.2-0.9-0.5-1.5-0.7l-1.8-0.7c-1.4-0.5-2.5-1.2-3.2-2.1
	c-0.7-0.9-1-1.9-0.9-3.2c0.1-1,0.5-1.9,1.2-2.6c0.7-0.7,1.5-1.2,2.6-1.5c1-0.3,2.2-0.4,3.5-0.2c1.3,0.2,2.4,0.5,3.3,1.1
	c0.9,0.6,1.6,1.3,2,2.1s0.6,1.8,0.5,2.8L687.3,946.8z M693.1,945.5l0.4-3l14.2,1.8l-0.4,3l-5.3-0.7l-1.8,14.3l-3.6-0.5l1.8-14.3
	L693.1,945.5z M708.7,962.1l-3.9-0.5l8.2-16.5l4.7,0.6l3.7,18.1l-3.9-0.5l-2.6-13.9l-0.1,0L708.7,962.1z M709.3,955.2l9.3,1.2
	l-0.4,2.9l-9.3-1.2L709.3,955.2z M723.5,964l2.2-17.3l6.8,0.9c1.3,0.2,2.4,0.5,3.3,1.1c0.9,0.6,1.5,1.3,1.9,2.2
	c0.4,0.9,0.5,1.9,0.4,3.1c-0.1,1.1-0.5,2.1-1.1,2.9c-0.6,0.8-1.4,1.3-2.4,1.6c-1,0.3-2.2,0.4-3.5,0.2l-4.6-0.6l0.4-2.9l4,0.5
	c0.7,0.1,1.3,0.1,1.8-0.1c0.5-0.1,0.9-0.4,1.1-0.7c0.3-0.4,0.5-0.8,0.5-1.4c0.1-0.6,0-1.1-0.2-1.5c-0.2-0.4-0.5-0.8-0.9-1
	c-0.4-0.3-1-0.4-1.7-0.5l-2.5-0.3l-1.8,14.3L723.5,964z M733.8,957.3l3.3,8.4l-4-0.5l-3.2-8.4L733.8,957.3z M740.3,951.6l0.4-3
	l14.2,1.8l-0.4,3l-5.3-0.7l-1.8,14.3l-3.6-0.5l1.8-14.3L740.3,951.6z M767.9,952.1l3.7,0.5l-1.4,11.2c-0.2,1.3-0.6,2.3-1.3,3.2
	c-0.7,0.9-1.7,1.5-2.8,1.9c-1.1,0.4-2.4,0.5-3.9,0.3c-1.4-0.2-2.7-0.6-3.7-1.3c-1-0.7-1.8-1.5-2.2-2.5c-0.5-1-0.6-2.2-0.5-3.4
	l1.4-11.2l3.7,0.5l-1.4,10.9c-0.1,0.7,0,1.3,0.2,1.8c0.2,0.6,0.6,1,1.1,1.4c0.5,0.4,1.1,0.6,1.8,0.7c0.7,0.1,1.3,0,1.9-0.2
	c0.6-0.2,1-0.6,1.4-1.1c0.4-0.5,0.6-1,0.7-1.7L767.9,952.1z M772.4,970.2l2.2-17.3l6.8,0.9c1.3,0.2,2.4,0.6,3.3,1.2
	c0.9,0.6,1.5,1.4,1.8,2.3c0.4,0.9,0.5,2,0.3,3.1c-0.1,1.1-0.5,2.1-1.1,2.9c-0.6,0.8-1.4,1.4-2.4,1.8c-1,0.4-2.2,0.5-3.5,0.3
	l-4.4-0.6l0.4-2.9l3.8,0.5c0.7,0.1,1.3,0,1.8-0.1c0.5-0.2,0.9-0.5,1.2-0.9c0.3-0.4,0.5-0.9,0.5-1.5c0.1-0.6,0-1.1-0.2-1.5
	c-0.2-0.5-0.5-0.8-0.9-1.1c-0.4-0.3-1-0.5-1.7-0.6l-2.5-0.3l-1.8,14.3L772.4,970.2z M798.8,961.1c0-0.7-0.2-1.3-0.7-1.7
	c-0.5-0.4-1.1-0.7-2-0.8c-0.6-0.1-1.1-0.1-1.5,0.1c-0.4,0.1-0.8,0.3-1,0.6c-0.3,0.3-0.4,0.6-0.4,1c-0.1,0.3,0,0.6,0.1,0.8
	c0.1,0.2,0.3,0.5,0.5,0.7c0.2,0.2,0.5,0.4,0.8,0.5c0.3,0.2,0.7,0.3,1,0.4l1.5,0.6c0.7,0.3,1.4,0.6,2,0.9c0.6,0.4,1.1,0.8,1.5,1.2
	c0.4,0.5,0.7,1,0.9,1.6c0.2,0.6,0.2,1.2,0.2,2c-0.1,1.1-0.5,1.9-1.2,2.7c-0.6,0.7-1.5,1.2-2.5,1.5c-1.1,0.3-2.3,0.4-3.7,0.2
	c-1.4-0.2-2.6-0.5-3.6-1.1c-1-0.6-1.7-1.3-2.2-2.2c-0.5-0.9-0.6-2-0.5-3.3l3.5,0.5c0,0.6,0.1,1.1,0.3,1.5c0.2,0.4,0.6,0.8,1.1,1
	c0.5,0.3,1,0.4,1.7,0.5c0.6,0.1,1.2,0.1,1.6-0.1c0.5-0.1,0.9-0.3,1.2-0.6c0.3-0.3,0.5-0.6,0.5-1.1c0-0.4,0-0.7-0.2-1
	c-0.2-0.3-0.5-0.6-0.9-0.8c-0.4-0.2-0.9-0.5-1.5-0.7l-1.8-0.7c-1.4-0.5-2.5-1.2-3.2-2.1c-0.7-0.9-1-1.9-0.9-3.2
	c0.1-1,0.5-1.9,1.2-2.6c0.7-0.7,1.5-1.2,2.6-1.5c1-0.3,2.2-0.4,3.5-0.2c1.3,0.2,2.4,0.5,3.3,1.1c0.9,0.6,1.6,1.3,2,2.1
	c0.4,0.9,0.6,1.8,0.5,2.8L798.8,961.1z"/>
<rect x="581.4" y="1794.5" transform="matrix(0.9904 -0.1386 0.1386 0.9904 -244.6301 113.0607)" class="st2" width="216.4" height="37.6"/>
<rect x="575.3" y="1788.9" transform="matrix(0.9904 -0.1386 0.1386 0.9904 -244.1639 112.4224)" class="st14" width="220" height="41.5"/>
<path class="st2" d="M636.9,1825.2l-3.9,0.5l3.6-18.1l4.7-0.6l8.3,16.5l-3.9,0.5l-6.1-12.8l-0.1,0L636.9,1825.2z M635.7,1818.4
	l9.3-1.2l0.4,2.9l-9.3,1.2L635.7,1818.4z M660.7,1810.1c-0.2-0.4-0.4-0.7-0.6-1c-0.3-0.3-0.6-0.5-0.9-0.7c-0.3-0.2-0.7-0.3-1.1-0.4
	c-0.4-0.1-0.8-0.1-1.3,0c-0.9,0.1-1.6,0.4-2.2,1c-0.6,0.5-1,1.2-1.3,2.1c-0.3,0.9-0.3,1.9-0.1,3.1c0.2,1.2,0.5,2.2,1,3
	c0.5,0.8,1.1,1.4,1.8,1.7c0.7,0.3,1.5,0.5,2.5,0.3c0.8-0.1,1.5-0.4,2.1-0.7c0.6-0.4,0.9-0.9,1.2-1.4c0.2-0.6,0.3-1.2,0.2-2l0.8,0
	l-4.5,0.6l-0.4-2.8l7.2-1l0.3,2.2c0.2,1.5,0.1,2.9-0.4,4c-0.5,1.2-1.3,2.1-2.3,2.9s-2.3,1.2-3.8,1.4c-1.6,0.2-3.1,0.1-4.4-0.5
	c-1.3-0.6-2.4-1.4-3.3-2.7c-0.9-1.2-1.4-2.8-1.7-4.6c-0.2-1.4-0.2-2.7,0.1-3.8c0.3-1.2,0.7-2.2,1.3-3c0.6-0.9,1.4-1.6,2.3-2.1
	c0.9-0.5,2-0.9,3.1-1c1-0.1,1.9-0.1,2.8,0.1c0.9,0.2,1.7,0.5,2.4,0.9c0.7,0.4,1.3,1,1.9,1.6c0.5,0.7,0.9,1.4,1.1,2.2L660.7,1810.1z
	 M668.9,1820.9l-2.3-17.3l11.7-1.6l0.4,3l-8,1.1l0.6,4.1l7.4-1l0.4,3l-7.4,1l0.6,4.1l8-1.1l0.4,3L668.9,1820.9z M695.7,1799.7
	l2.3,17.3l-3.2,0.4l-9-9.9l-0.1,0l1.5,10.9l-3.7,0.5l-2.3-17.3l3.2-0.4l8.9,9.9l0.2,0l-1.5-10.9L695.7,1799.7z M698.4,1802.3l-0.4-3
	l14.2-1.9l0.4,3l-5.3,0.7l1.9,14.3l-3.6,0.5l-1.9-14.3L698.4,1802.3z M724.6,1800.8c-0.2-0.7-0.5-1.2-1.1-1.5
	c-0.6-0.3-1.3-0.4-2.2-0.3c-0.6,0.1-1.1,0.2-1.5,0.5c-0.4,0.2-0.7,0.5-0.9,0.8c-0.2,0.3-0.2,0.7-0.2,1c0,0.3,0.1,0.6,0.3,0.8
	c0.2,0.2,0.4,0.4,0.7,0.5c0.3,0.1,0.6,0.2,0.9,0.3c0.3,0.1,0.7,0.1,1.1,0.2l1.6,0.2c0.8,0.1,1.5,0.2,2.2,0.4
	c0.7,0.2,1.3,0.5,1.8,0.8c0.5,0.3,0.9,0.8,1.3,1.3c0.3,0.5,0.6,1.2,0.7,1.9c0.1,1.1,0,2-0.4,2.9c-0.4,0.8-1.1,1.5-2.1,2.1
	c-0.9,0.5-2.1,0.9-3.5,1.1c-1.4,0.2-2.6,0.1-3.7-0.2c-1.1-0.3-2-0.8-2.7-1.6c-0.7-0.8-1.1-1.8-1.3-3l3.5-0.5c0.1,0.6,0.3,1,0.7,1.4
	c0.4,0.3,0.8,0.6,1.3,0.7c0.5,0.1,1.1,0.1,1.7,0.1c0.6-0.1,1.1-0.2,1.6-0.5c0.4-0.2,0.8-0.5,1-0.9c0.2-0.3,0.3-0.7,0.2-1.2
	c-0.1-0.4-0.2-0.7-0.5-0.9c-0.3-0.2-0.6-0.4-1.1-0.5c-0.5-0.1-1-0.2-1.7-0.3l-1.9-0.2c-1.5-0.2-2.7-0.6-3.7-1.2
	c-0.9-0.6-1.5-1.6-1.7-2.9c-0.1-1,0-2,0.5-2.9c0.5-0.9,1.2-1.6,2.1-2.1c0.9-0.6,2-0.9,3.3-1.1c1.3-0.2,2.4-0.1,3.5,0.2
	c1,0.3,1.9,0.8,2.5,1.5c0.6,0.7,1,1.6,1.2,2.6L724.6,1800.8z"/>
<rect x="666.1" y="2453.2" transform="matrix(5.605745e-02 -0.9984 0.9984 5.605745e-02 -1910.9558 3101.6562)" class="st2" width="37.6" height="216.4"/>
<rect x="660.6" y="2447" transform="matrix(5.605745e-02 -0.9984 0.9984 5.605745e-02 -1909.8767 3093.9109)" class="st14" width="41.5" height="220"/>
<path class="st2" d="M637.3,2563.3l1.1-17.4l6.9,0.4c1.3,0.1,2.4,0.4,3.3,0.9c0.9,0.5,1.6,1.2,2,2.1c0.4,0.9,0.6,1.9,0.6,3
	c-0.1,1.2-0.4,2.1-0.9,2.9c-0.5,0.8-1.3,1.4-2.3,1.8c-1,0.4-2.1,0.5-3.5,0.4l-4.6-0.3l0.2-3l4,0.2c0.7,0,1.3,0,1.8-0.2
	c0.5-0.2,0.8-0.4,1.1-0.8c0.3-0.4,0.4-0.8,0.4-1.4c0-0.6-0.1-1.1-0.3-1.5c-0.2-0.4-0.5-0.7-1-1c-0.5-0.2-1-0.4-1.7-0.4l-2.5-0.1
	l-0.9,14.4L637.3,2563.3z M647.2,2555.9l3.8,8.2l-4.1-0.2l-3.8-8.2L647.2,2555.9z M653,2564.3l1.1-17.4l11.7,0.7l-0.2,3l-8.1-0.5
	l-0.3,4.1l7.5,0.4l-0.2,3l-7.5-0.4l-0.3,4.2l8.1,0.5l-0.2,3L653,2564.3z M667.7,2565.2l1.1-17.4l6.9,0.4c1.3,0.1,2.4,0.4,3.3,1
	c0.9,0.6,1.6,1.3,2,2.2c0.4,0.9,0.6,1.9,0.6,3.1c-0.1,1.2-0.4,2.2-0.9,3c-0.6,0.9-1.3,1.5-2.3,1.9c-1,0.4-2.1,0.6-3.5,0.5l-4.4-0.3
	l0.2-2.9l3.8,0.2c0.7,0.1,1.3,0,1.8-0.3c0.5-0.2,0.8-0.5,1.1-1c0.3-0.4,0.4-0.9,0.4-1.5c0-0.6,0-1.1-0.3-1.5c-0.2-0.4-0.5-0.8-1-1.1
	c-0.4-0.3-1-0.4-1.7-0.5l-2.5-0.1l-0.9,14.4L667.7,2565.2z M699.7,2558.4c-0.1,1.9-0.6,3.5-1.4,4.8c-0.8,1.3-1.8,2.2-3.1,2.9
	c-1.3,0.6-2.7,0.9-4.2,0.8c-1.5-0.1-2.9-0.5-4.1-1.3c-1.2-0.8-2.1-1.9-2.7-3.2c-0.6-1.4-0.9-3-0.8-4.9c0.1-1.9,0.6-3.5,1.4-4.8
	c0.8-1.3,1.8-2.2,3.1-2.9c1.3-0.6,2.7-0.9,4.2-0.8c1.5,0.1,2.9,0.5,4.1,1.3c1.2,0.8,2.1,1.9,2.7,3.2
	C699.6,2554.8,699.8,2556.5,699.7,2558.4z M696,2558.1c0.1-1.2,0-2.3-0.4-3.1c-0.3-0.9-0.8-1.5-1.4-2c-0.6-0.5-1.4-0.7-2.3-0.8
	c-0.9-0.1-1.7,0.1-2.4,0.5c-0.7,0.4-1.2,1-1.7,1.8c-0.4,0.8-0.7,1.8-0.7,3.1c-0.1,1.2,0,2.3,0.4,3.1c0.3,0.9,0.8,1.5,1.4,2
	c0.6,0.5,1.4,0.7,2.3,0.8c0.9,0.1,1.7-0.1,2.4-0.5c0.7-0.4,1.2-1,1.7-1.8C695.7,2560.4,695.9,2559.4,696,2558.1z M712.1,2555.4
	c0-0.7-0.3-1.2-0.8-1.7c-0.5-0.4-1.2-0.6-2.1-0.7c-0.6,0-1.1,0-1.5,0.2c-0.4,0.1-0.8,0.4-1,0.6c-0.2,0.3-0.4,0.6-0.4,1
	c0,0.3,0,0.6,0.1,0.8c0.1,0.2,0.3,0.5,0.6,0.6c0.2,0.2,0.5,0.3,0.9,0.5c0.3,0.1,0.7,0.3,1.1,0.4l1.5,0.5c0.8,0.2,1.4,0.5,2.1,0.8
	c0.6,0.3,1.1,0.7,1.6,1.2c0.4,0.4,0.8,0.9,1,1.5c0.2,0.6,0.3,1.2,0.3,2c-0.1,1.1-0.4,2-1,2.7c-0.6,0.7-1.4,1.3-2.4,1.7
	c-1,0.4-2.3,0.5-3.7,0.4c-1.4-0.1-2.6-0.4-3.6-0.9c-1-0.5-1.8-1.2-2.3-2.1c-0.5-0.9-0.8-2-0.7-3.2l3.6,0.2c0,0.6,0.1,1.1,0.4,1.5
	c0.3,0.4,0.7,0.7,1.1,0.9c0.5,0.2,1.1,0.4,1.7,0.4c0.6,0,1.2,0,1.6-0.2c0.5-0.1,0.9-0.4,1.1-0.7c0.3-0.3,0.4-0.7,0.5-1.1
	c0-0.4-0.1-0.7-0.3-1c-0.2-0.3-0.5-0.5-1-0.7c-0.4-0.2-0.9-0.4-1.6-0.6l-1.9-0.6c-1.4-0.4-2.6-1.1-3.4-1.9c-0.8-0.8-1.2-1.9-1.1-3.1
	c0.1-1.1,0.4-2,1-2.7c0.6-0.8,1.4-1.3,2.5-1.7c1-0.4,2.2-0.5,3.4-0.4c1.3,0.1,2.4,0.4,3.3,0.9c0.9,0.5,1.7,1.2,2.2,2
	c0.5,0.8,0.7,1.8,0.7,2.8L712.1,2555.4z"/>
<path class="st2" d="M235.6,1117.3l-5.9-2l5.6-16.5l5.9,2c1.7,0.6,3,1.4,4,2.5c1,1.1,1.6,2.3,1.8,3.8c0.2,1.4,0.1,3-0.5,4.8
	c-0.6,1.7-1.4,3.1-2.5,4.1c-1.1,1-2.3,1.7-3.7,1.9C238.8,1118.1,237.3,1117.9,235.6,1117.3z M234.2,1113.6l2.2,0.8
	c1,0.3,2,0.5,2.8,0.3c0.8-0.1,1.6-0.5,2.2-1.2c0.6-0.7,1.1-1.6,1.6-2.8c0.4-1.2,0.6-2.3,0.5-3.2c-0.1-0.9-0.4-1.6-1-2.2
	c-0.6-0.6-1.4-1.1-2.4-1.4l-2.2-0.8L234.2,1113.6z M246.3,1121l5.6-16.5l11.1,3.8l-1,2.9l-7.6-2.6l-1.3,3.9l7.1,2.4l-1,2.9l-7.1-2.4
	l-1.3,3.9l7.7,2.6l-1,2.9L246.3,1121z M260.2,1125.7l5.6-16.5l11.1,3.8l-1,2.9l-7.6-2.6l-1.3,3.9l7.1,2.4l-1,2.9l-7.1-2.4l-1.3,3.9
	l7.7,2.6l-1,2.9L260.2,1125.7z M274.1,1130.4l5.6-16.5l6.5,2.2c1.3,0.4,2.2,1,3,1.8c0.7,0.8,1.2,1.7,1.4,2.7c0.2,1,0.1,2-0.3,3.1
	s-0.9,2-1.7,2.7c-0.8,0.7-1.7,1.1-2.7,1.3c-1.1,0.2-2.2,0-3.5-0.4l-4.2-1.4l0.9-2.8l3.6,1.2c0.7,0.2,1.3,0.3,1.8,0.2
	c0.5-0.1,1-0.3,1.3-0.6c0.4-0.3,0.6-0.8,0.8-1.3c0.2-0.6,0.2-1.1,0.2-1.6c-0.1-0.5-0.3-0.9-0.7-1.3c-0.4-0.4-0.9-0.7-1.6-0.9
	l-2.4-0.8l-4.6,13.7L274.1,1130.4z"/>
<path class="st15" d="M227.6,1140.9l-5.9-2l5.6-16.5l5.9,2c1.7,0.6,3,1.4,4,2.4c1,1.1,1.6,2.3,1.8,3.8c0.2,1.4,0.1,3-0.5,4.8
	c-0.6,1.7-1.4,3.1-2.5,4.1c-1.1,1-2.3,1.7-3.7,1.9C230.9,1141.7,229.3,1141.5,227.6,1140.9z M226.3,1137.1l2.2,0.8
	c1,0.3,2,0.5,2.8,0.3c0.8-0.1,1.6-0.5,2.2-1.2c0.6-0.7,1.1-1.6,1.6-2.8c0.4-1.2,0.6-2.3,0.5-3.2c-0.1-0.9-0.4-1.7-1-2.2
	c-0.6-0.6-1.4-1.1-2.4-1.4l-2.2-0.8L226.3,1137.1z M238.3,1144.5l5.6-16.5l11.1,3.8l-1,2.9l-7.6-2.6l-1.3,3.9l7.1,2.4l-1,2.9
	l-7.1-2.4l-1.3,3.9l7.7,2.6l-1,2.9L238.3,1144.5z M252.2,1149.2l5.6-16.5l11.1,3.8l-1,2.9l-7.6-2.6l-1.3,3.9l7.1,2.4l-1,2.9
	l-7.1-2.4l-1.3,4l7.7,2.6l-1,2.9L252.2,1149.2z M266.2,1153.9l5.6-16.5l6.5,2.2c1.3,0.4,2.2,1,3,1.8c0.7,0.8,1.2,1.6,1.4,2.7
	c0.2,1,0.1,2-0.3,3.1c-0.4,1.1-0.9,2-1.7,2.7c-0.8,0.7-1.7,1.1-2.7,1.3c-1.1,0.2-2.2,0-3.5-0.4l-4.2-1.4l0.9-2.8l3.6,1.2
	c0.7,0.2,1.3,0.3,1.8,0.2c0.5-0.1,1-0.3,1.3-0.6c0.4-0.3,0.6-0.8,0.8-1.3c0.2-0.6,0.2-1.1,0.2-1.6c-0.1-0.5-0.3-0.9-0.7-1.3
	c-0.4-0.4-0.9-0.7-1.6-0.9l-2.4-0.8l-4.6,13.7L266.2,1153.9z"/>
<path class="st16" d="M219.7,1164.5l-5.9-2l5.6-16.5l5.9,2c1.7,0.6,3,1.4,4,2.4c1,1.1,1.6,2.3,1.8,3.8c0.2,1.5,0.1,3-0.5,4.8
	c-0.6,1.7-1.4,3.1-2.5,4.1c-1.1,1-2.3,1.6-3.7,1.9C222.9,1165.2,221.3,1165.1,219.7,1164.5z M218.3,1160.7l2.2,0.8
	c1,0.4,2,0.5,2.8,0.3c0.8-0.1,1.6-0.5,2.2-1.2c0.6-0.7,1.1-1.6,1.6-2.8c0.4-1.2,0.6-2.3,0.5-3.2c-0.1-0.9-0.4-1.7-1-2.2
	c-0.6-0.6-1.4-1.1-2.4-1.4l-2.2-0.8L218.3,1160.7z M230.3,1168.1l5.6-16.5l11.1,3.8l-1,2.9l-7.6-2.6l-1.3,3.9l7.1,2.4l-1,2.9
	l-7.1-2.4l-1.3,3.9l7.7,2.6l-1,2.9L230.3,1168.1z M244.3,1172.8l5.6-16.5l11.1,3.8l-1,2.9l-7.6-2.6l-1.3,3.9l7.1,2.4l-1,2.9
	l-7.1-2.4l-1.3,3.9l7.7,2.6l-1,2.9L244.3,1172.8z M258.2,1177.5l5.6-16.5l6.5,2.2c1.3,0.4,2.2,1,3,1.8c0.7,0.8,1.2,1.7,1.4,2.7
	c0.2,1,0.1,2-0.3,3.1c-0.4,1.1-0.9,2-1.7,2.7c-0.8,0.7-1.7,1.1-2.7,1.3c-1.1,0.2-2.2,0-3.5-0.4l-4.2-1.4l0.9-2.8l3.6,1.2
	c0.7,0.2,1.3,0.3,1.8,0.2c0.5-0.1,1-0.3,1.3-0.6c0.4-0.3,0.6-0.8,0.8-1.3c0.2-0.5,0.2-1.1,0.2-1.5c-0.1-0.5-0.3-0.9-0.7-1.3
	c-0.4-0.4-0.9-0.7-1.6-0.9l-2.4-0.8l-4.6,13.7L258.2,1177.5z"/>
<path class="st17" d="M211.7,1188.1l-5.9-2l5.6-16.5l5.9,2c1.7,0.6,3,1.4,4,2.4c1,1.1,1.6,2.3,1.8,3.8c0.2,1.4,0.1,3-0.5,4.8
	c-0.6,1.7-1.4,3.1-2.5,4.1c-1.1,1-2.3,1.7-3.7,1.9C214.9,1188.8,213.4,1188.6,211.7,1188.1z M210.3,1184.3l2.2,0.8
	c1,0.3,2,0.5,2.8,0.3c0.8-0.1,1.6-0.5,2.2-1.2c0.6-0.7,1.1-1.6,1.6-2.8c0.4-1.2,0.6-2.3,0.5-3.2c-0.1-0.9-0.4-1.7-1-2.2
	c-0.6-0.6-1.4-1.1-2.4-1.4l-2.2-0.8L210.3,1184.3z M222.4,1191.7l5.6-16.5l11.1,3.8l-1,2.9l-7.6-2.6l-1.3,3.9l7.1,2.4l-1,2.9
	l-7.1-2.4l-1.3,3.9l7.7,2.6l-1,2.9L222.4,1191.7z M236.3,1196.4l5.6-16.5l11.1,3.8l-1,2.9l-7.6-2.6l-1.3,3.9l7.1,2.4l-1,2.9
	l-7.1-2.4l-1.3,4l7.7,2.6l-1,2.9L236.3,1196.4z M250.2,1201.1l5.6-16.5l6.5,2.2c1.3,0.4,2.2,1,3,1.8c0.7,0.8,1.2,1.7,1.4,2.7
	c0.2,1,0.1,2-0.3,3.1s-0.9,2-1.7,2.7c-0.8,0.7-1.7,1.1-2.7,1.3c-1.1,0.2-2.2,0-3.5-0.4l-4.2-1.4l0.9-2.8l3.6,1.2
	c0.7,0.2,1.3,0.3,1.8,0.2c0.5-0.1,1-0.3,1.3-0.6c0.4-0.3,0.6-0.8,0.8-1.3c0.2-0.6,0.2-1.1,0.2-1.6c-0.1-0.5-0.3-0.9-0.7-1.3
	c-0.4-0.4-0.9-0.7-1.6-0.9l-2.4-0.8l-4.6,13.7L250.2,1201.1z"/>
<path class="st2" d="M1179.1,1833.6l69.6,133l-51.6,27c0,0-7.9-47.5-21.5-73.4c-13.6-26-48.1-59.5-48.1-59.5L1179.1,1833.6z"/>
<path class="st18" d="M1180.9,1829.3l69.3,132.4l-50.9,26.6c0,0,0-0.1,0-0.1c-0.1-0.4-0.2-0.9-0.3-1.6c-0.2-1.3-0.6-3.3-1.1-5.7
	c-1-4.9-2.4-11.6-4.2-19.2c-3.7-15.1-9.1-33.5-15.9-46.5c-6.8-13-18.8-27.9-29.2-39.6c-5.2-5.8-9.9-10.8-13.3-14.4
	c-1.7-1.8-3.1-3.2-4.1-4.2c-0.5-0.5-0.9-0.9-1.1-1.1c0,0,0,0-0.1-0.1L1180.9,1829.3z"/>
<path class="st2" d="M1166.5,1871.9l15.8-8.2l3.3,6.3c0.6,1.2,0.9,2.2,1,3.2c0.1,1-0.1,1.8-0.5,2.5c-0.4,0.7-1,1.3-1.8,1.7
	c-0.6,0.3-1.2,0.5-1.8,0.5c-0.6,0-1.1-0.2-1.7-0.4c-0.5-0.3-1-0.7-1.4-1.1l-0.1,0.1c0.3,0.6,0.4,1.3,0.4,1.9c0,0.7-0.3,1.4-0.7,2
	s-1,1.1-1.8,1.5c-0.8,0.4-1.7,0.6-2.6,0.5c-0.9-0.1-1.7-0.4-2.5-1c-0.8-0.6-1.5-1.5-2.1-2.7L1166.5,1871.9z M1170.9,1873.8l1.4,2.7
	c0.5,0.9,1,1.5,1.6,1.8c0.6,0.2,1.2,0.2,1.8-0.1c0.4-0.2,0.8-0.5,1-0.9c0.2-0.4,0.3-0.8,0.3-1.3c0-0.5-0.2-1-0.4-1.5l-1.4-2.8
	L1170.9,1873.8z M1177.4,1870.5l1.3,2.5c0.2,0.5,0.5,0.8,0.9,1.1c0.3,0.3,0.7,0.4,1.1,0.5c0.4,0,0.8,0,1.2-0.2
	c0.6-0.3,0.9-0.7,1.1-1.3s0-1.2-0.4-2l-1.3-2.5L1177.4,1870.5z M1189.3,1896.7c-1.7,0.9-3.4,1.3-4.9,1.3c-1.5,0-2.9-0.4-4.1-1.2
	c-1.2-0.8-2.2-1.9-2.9-3.3c-0.7-1.4-1.1-2.8-1-4.3c0.1-1.4,0.5-2.8,1.4-4.1c0.9-1.3,2.2-2.3,3.9-3.2s3.4-1.3,4.9-1.3
	c1.5,0,2.9,0.4,4.1,1.2c1.2,0.8,2.2,1.9,2.9,3.3c0.7,1.4,1.1,2.8,1,4.2c-0.1,1.5-0.5,2.8-1.4,4.1
	C1192.3,1894.7,1191,1895.8,1189.3,1896.7z M1187.5,1893.3c1.1-0.6,2-1.2,2.6-2s0.9-1.5,1-2.3c0.1-0.8-0.1-1.6-0.5-2.4
	c-0.4-0.8-1-1.4-1.7-1.8c-0.7-0.4-1.5-0.6-2.5-0.5c-0.9,0.1-2,0.4-3.1,1c-1.1,0.6-2,1.2-2.6,1.9c-0.6,0.7-0.9,1.5-1,2.3
	c-0.1,0.8,0.1,1.6,0.5,2.4c0.4,0.8,1,1.4,1.7,1.8c0.7,0.4,1.5,0.6,2.5,0.5C1185.4,1894.2,1186.4,1893.9,1187.5,1893.3z
	 M1205.3,1908.3l-15.8,8.2l-1.5-2.9l6.4-12l-0.1-0.1l-9.9,5.1l-1.7-3.3l15.8-8.2l1.5,2.9l-6.4,11.9l0.1,0.1l9.9-5.1L1205.3,1908.3z
	 M1211.8,1920.8l1.7,3.3l-10.2,5.3c-1.2,0.6-2.3,0.8-3.4,0.7c-1.2-0.1-2.2-0.5-3.2-1.2c-1-0.7-1.8-1.8-2.5-3.1
	c-0.7-1.3-1-2.6-1.1-3.8c0-1.2,0.3-2.3,0.8-3.3s1.5-1.8,2.6-2.4l10.2-5.3l1.7,3.3l-10,5.2c-0.6,0.3-1.1,0.7-1.4,1.2
	c-0.3,0.5-0.5,1.1-0.5,1.7c0,0.6,0.1,1.2,0.5,1.9c0.3,0.7,0.8,1.1,1.3,1.5c0.5,0.3,1.1,0.5,1.7,0.6c0.6,0,1.2-0.1,1.8-0.4
	L1211.8,1920.8z M1214.8,1937.8c0.6-0.4,0.9-0.9,1-1.5c0.1-0.7-0.1-1.4-0.5-2.2c-0.3-0.5-0.6-1-0.9-1.3c-0.3-0.3-0.7-0.5-1.1-0.5
	c-0.4-0.1-0.7,0-1.1,0.2c-0.3,0.1-0.5,0.3-0.7,0.6c-0.1,0.2-0.2,0.5-0.3,0.8c0,0.3,0,0.7,0,1c0,0.4,0.1,0.7,0.2,1.1l0.4,1.6
	c0.2,0.8,0.3,1.5,0.4,2.2c0,0.7,0,1.4-0.2,2c-0.2,0.6-0.4,1.2-0.8,1.7s-0.9,0.9-1.6,1.3c-1,0.5-1.9,0.7-2.9,0.6
	c-1-0.1-1.9-0.5-2.7-1.2c-0.9-0.7-1.6-1.7-2.3-3c-0.7-1.3-1-2.5-1.1-3.6c-0.1-1.2,0.1-2.2,0.6-3.1c0.5-0.9,1.3-1.7,2.4-2.3l1.7,3.2
	c-0.5,0.3-0.9,0.7-1.1,1.1c-0.2,0.5-0.3,1-0.2,1.5c0.1,0.6,0.2,1.1,0.5,1.7c0.3,0.6,0.6,1,1,1.3c0.4,0.3,0.8,0.5,1.2,0.6
	s0.8,0,1.2-0.2c0.4-0.2,0.6-0.4,0.7-0.8c0.1-0.3,0.2-0.7,0.1-1.2c0-0.5-0.1-1-0.3-1.7l-0.5-1.9c-0.4-1.5-0.4-2.8-0.1-3.9
	c0.3-1.1,1-2,2.2-2.6c0.9-0.5,1.9-0.7,2.9-0.5c1,0.2,1.9,0.6,2.8,1.3c0.9,0.7,1.6,1.6,2.2,2.8c0.6,1.2,0.9,2.3,1,3.4
	c0,1.1-0.2,2.1-0.6,2.9c-0.5,0.9-1.2,1.5-2.1,2L1214.8,1937.8z"/>
<rect id="_x3C_Slice_x3E_" x="-146" y="14" class="st19" width="1444" height="3096"/>
<rect id="_x3C_Slice_x3E__00000089544562762458176240000007292357592101149838_" x="144" y="2830" class="st19" width="215" height="132"/>
<rect id="_x3C_Slice_x3E__00000025428485712485947050000018049466260423152274_" x="144" y="2830" class="st19" width="215" height="132"/>
</svg>
