<svg width="1312" height="3112" viewBox="0 0 1312 3112" fill="none" xmlns="http://www.w3.org/2000/svg">
<path d="M-141 78.9997C77 58.4997 230.403 142.352 425.938 106.017C847.845 27.6169 1088.66 61.7302 1171.37 185.018C1254.09 308.305 1224.5 560.5 1171.37 879.856C1130.99 1122.6 536.5 831 347.5 990C190.841 1121.79 162.613 1514.85 279.102 1683.02C425.938 1895 679.963 1810.5 847.845 1784.16C1015.73 1757.83 1119.49 1785.6 1171.37 1864C1246.87 1978.09 1281.5 2179.76 1205.14 2467.63C1101.41 2858.71 88 2088.5 267.5 3100.5" stroke="black" stroke-width="127"/>
<path d="M-141 78.9997C77 58.4997 230.403 142.352 425.938 106.017C847.845 27.6169 1088.66 61.7302 1171.37 185.018C1254.09 308.305 1224.5 560.5 1171.37 879.856C1130.99 1122.6 536.5 831 347.5 990C190.841 1121.79 162.613 1514.85 279.102 1683.02C425.938 1895 679.963 1810.5 847.845 1784.16C1015.73 1757.83 1119.49 1785.6 1171.37 1864C1246.87 1978.09 1281.5 2179.76 1205.14 2467.63C1101.41 2858.71 88 2088.5 267.5 3100.5" stroke="#F8F4DF" stroke-width="123"/>
<path d="M-141 78.9997C77 58.4997 230.403 142.352 425.938 106.017C847.845 27.6169 1088.66 61.7302 1171.37 185.018C1254.09 308.305 1224.5 560.5 1171.37 879.856C1130.99 1122.6 536.5 831 347.5 990C190.841 1121.79 162.613 1514.85 279.102 1683.02C425.938 1895 679.963 1810.5 847.845 1784.16C1015.73 1757.83 1119.49 1785.6 1171.37 1864C1246.87 1978.09 1281.5 2179.76 1205.14 2467.63C1101.41 2858.71 88 2088.5 267.5 3100.5" stroke="black" stroke-width="100" stroke-dasharray="200 5"/>
<path d="M144 2836.06L341.779 2830L359 2962H144V2836.06Z" fill="#F8F4DF"/>
<path d="M162.218 2843.74L337.045 2838.22L338.844 2895.25L252.591 2934.78L164.017 2900.77L162.218 2843.74Z" fill="#66ADD8"/>
<path d="M208.54 2891.11L207.918 2873.66L215.123 2873.41C216.429 2873.36 217.565 2873.55 218.53 2873.99C219.5 2874.42 220.26 2875.07 220.808 2875.92C221.355 2876.77 221.65 2877.8 221.693 2878.99C221.736 2880.2 221.509 2881.23 221.011 2882.1C220.513 2882.96 219.786 2883.63 218.831 2884.1C217.876 2884.58 216.734 2884.84 215.405 2884.88L210.848 2885.05L210.73 2881.72L214.503 2881.59C215.139 2881.57 215.667 2881.47 216.087 2881.29C216.512 2881.1 216.83 2880.83 217.039 2880.48C217.248 2880.13 217.343 2879.68 217.324 2879.14C217.304 2878.6 217.178 2878.16 216.944 2877.82C216.709 2877.47 216.373 2877.21 215.936 2877.05C215.498 2876.89 214.963 2876.81 214.333 2876.84L212.255 2876.91L212.756 2890.96L208.54 2891.11ZM218.076 2882.78L222.705 2890.6L218.105 2890.77L213.562 2882.94L218.076 2882.78ZM224.421 2890.54L223.798 2873.1L235.961 2872.66L236.083 2876.09L228.136 2876.37L228.264 2879.95L235.589 2879.69L235.712 2883.12L228.387 2883.38L228.515 2886.97L236.461 2886.68L236.584 2890.11L224.421 2890.54ZM242.997 2889.88L238.466 2890.04L243.729 2872.38L249.341 2872.18L255.85 2889.42L251.319 2889.58L246.756 2876.68L246.62 2876.68L242.997 2889.88ZM242.147 2883.03L251.618 2882.69L251.733 2885.9L242.262 2886.24L242.147 2883.03ZM264.175 2889.12L257.728 2889.35L257.105 2871.91L263.544 2871.68C265.321 2871.61 266.864 2871.91 268.172 2872.56C269.486 2873.21 270.515 2874.17 271.26 2875.45C272.005 2876.73 272.41 2878.27 272.475 2880.08C272.54 2881.9 272.246 2883.47 271.594 2884.8C270.948 2886.14 269.993 2887.17 268.729 2887.92C267.465 2888.66 265.947 2889.06 264.175 2889.12ZM261.815 2885.61L263.885 2885.53C264.862 2885.5 265.682 2885.3 266.346 2884.95C267.016 2884.59 267.51 2884.03 267.83 2883.27C268.155 2882.5 268.295 2881.49 268.25 2880.23C268.205 2878.98 267.994 2877.99 267.615 2877.25C267.236 2876.52 266.697 2876 265.998 2875.69C265.305 2875.38 264.459 2875.24 263.459 2875.28L261.449 2875.35L261.815 2885.61ZM272.609 2871.35L277.319 2871.19L281.267 2878.35L281.421 2878.35L284.848 2870.92L289.558 2870.75L283.593 2882.59L283.801 2888.42L279.611 2888.57L279.403 2882.74L272.609 2871.35ZM295.037 2882.67L295.024 2882.32C294.99 2881.36 295.042 2880.58 295.18 2880.01C295.324 2879.43 295.546 2878.96 295.846 2878.6C296.146 2878.24 296.515 2877.9 296.953 2877.6C297.303 2877.36 297.613 2877.12 297.883 2876.87C298.158 2876.62 298.373 2876.36 298.528 2876.08C298.683 2875.8 298.754 2875.49 298.742 2875.14C298.73 2874.81 298.64 2874.52 298.472 2874.27C298.304 2874.02 298.078 2873.83 297.795 2873.7C297.517 2873.57 297.211 2873.51 296.876 2873.52C296.541 2873.53 296.229 2873.62 295.939 2873.79C295.655 2873.95 295.424 2874.18 295.247 2874.47C295.075 2874.75 294.994 2875.09 295.002 2875.49L291.084 2875.63C291.059 2874.44 291.299 2873.45 291.806 2872.67C292.318 2871.89 293.01 2871.3 293.883 2870.91C294.756 2870.51 295.726 2870.29 296.793 2870.25C297.963 2870.21 299.009 2870.35 299.93 2870.68C300.857 2871.02 301.595 2871.53 302.143 2872.22C302.69 2872.91 302.983 2873.77 303.019 2874.8C303.043 2875.47 302.951 2876.07 302.742 2876.6C302.534 2877.12 302.232 2877.59 301.837 2878C301.448 2878.41 300.987 2878.78 300.453 2879.13C300.036 2879.39 299.691 2879.67 299.417 2879.95C299.148 2880.23 298.949 2880.55 298.82 2880.91C298.69 2881.26 298.634 2881.69 298.653 2882.19L298.665 2882.54L295.037 2882.67ZM297.118 2888.19C296.505 2888.21 295.972 2888.02 295.52 2887.6C295.073 2887.18 294.841 2886.67 294.825 2886.06C294.798 2885.45 294.992 2884.93 295.409 2884.49C295.83 2884.04 296.348 2883.81 296.961 2883.79C297.546 2883.77 298.068 2883.96 298.526 2884.38C298.984 2884.79 299.227 2885.3 299.254 2885.9C299.263 2886.31 299.168 2886.68 298.97 2887.02C298.778 2887.37 298.517 2887.64 298.19 2887.85C297.867 2888.07 297.51 2888.18 297.118 2888.19Z" fill="black"/>
<path d="M550.717 919.191L548.286 954.015L540.923 953.501L542.867 925.665L542.663 925.651L534.339 930.093L534.795 923.564L543.797 918.707L550.717 919.191ZM570.164 956.311C567.24 956.096 564.773 955.2 562.765 953.625C560.767 952.05 559.296 949.868 558.352 947.08C557.419 944.292 557.091 940.994 557.368 937.186C557.633 933.389 558.42 930.191 559.729 927.594C561.05 924.998 562.807 923.076 565.002 921.828C567.208 920.57 569.768 920.042 572.682 920.246C575.595 920.449 578.051 921.327 580.05 922.879C582.061 924.432 583.539 926.585 584.486 929.34C585.434 932.083 585.769 935.353 585.493 939.15C585.226 942.97 584.431 946.195 583.109 948.825C581.797 951.456 580.043 953.413 577.846 954.695C575.649 955.977 573.088 956.515 570.164 956.311ZM570.59 950.207C572.585 950.346 574.248 949.454 575.578 947.531C576.909 945.607 577.708 942.639 577.977 938.625C578.161 935.984 578.043 933.766 577.621 931.97C577.211 930.176 576.544 928.802 575.619 927.849C574.706 926.897 573.587 926.375 572.26 926.282C570.276 926.144 568.62 927.025 567.291 928.925C565.963 930.826 565.154 933.754 564.867 937.71C564.68 940.385 564.791 942.637 565.198 944.465C565.618 946.283 566.29 947.674 567.214 948.638C568.138 949.591 569.264 950.114 570.59 950.207Z" fill="#F8F4DF"/>
<path d="M448.49 1789.3L444.191 1823.95L436.866 1823.04L440.303 1795.35L440.1 1795.32L431.549 1799.31L432.355 1792.82L441.606 1788.45L448.49 1789.3ZM465.913 1827.42C463.005 1827.04 460.59 1826.02 458.669 1824.34C456.759 1822.66 455.408 1820.4 454.614 1817.56C453.833 1814.73 453.682 1811.42 454.164 1807.63C454.633 1803.85 455.591 1800.7 457.037 1798.18C458.495 1795.66 460.354 1793.83 462.612 1792.71C464.883 1791.57 467.468 1791.18 470.366 1791.54C473.264 1791.9 475.67 1792.91 477.582 1794.56C479.506 1796.22 480.867 1798.45 481.665 1801.25C482.463 1804.04 482.623 1807.33 482.142 1811.1C481.671 1814.9 480.704 1818.08 479.242 1820.64C477.791 1823.19 475.934 1825.05 473.671 1826.22C471.409 1827.38 468.823 1827.78 465.913 1827.42ZM466.667 1821.34C468.652 1821.59 470.36 1820.79 471.792 1818.94C473.224 1817.09 474.182 1814.17 474.666 1810.18C474.992 1807.55 474.993 1805.33 474.668 1803.51C474.355 1801.7 473.763 1800.29 472.891 1799.29C472.03 1798.29 470.94 1797.71 469.621 1797.54C467.647 1797.3 465.946 1798.09 464.517 1799.92C463.088 1801.74 462.124 1804.62 461.624 1808.56C461.293 1811.22 461.283 1813.47 461.592 1815.32C461.913 1817.16 462.509 1818.58 463.38 1819.6C464.252 1820.6 465.347 1821.18 466.667 1821.34Z" fill="#F8F4DF"/>
<path d="M441.25 2543.12L446.572 2577.62L439.277 2578.75L435.023 2551.17L434.821 2551.2L427.684 2557.37L426.686 2550.9L434.393 2544.18L441.25 2543.12ZM468.416 2575.03C465.517 2575.46 462.914 2575.13 460.606 2574.04C458.31 2572.95 456.394 2571.14 454.857 2568.63C453.331 2566.12 452.282 2562.98 451.712 2559.2C451.131 2555.44 451.192 2552.15 451.895 2549.32C452.61 2546.5 453.899 2544.24 455.764 2542.54C457.638 2540.82 460.018 2539.74 462.904 2539.3C465.791 2538.85 468.38 2539.16 470.673 2540.24C472.976 2541.31 474.894 2543.08 476.426 2545.56C477.956 2548.02 479.006 2551.14 479.575 2554.9C480.159 2558.69 480.096 2562.01 479.387 2564.87C478.69 2567.72 477.411 2570.02 475.552 2571.75C473.692 2573.49 471.314 2574.58 468.416 2575.03ZM467.483 2568.98C469.46 2568.67 470.884 2567.44 471.757 2565.27C472.63 2563.1 472.754 2560.03 472.129 2556.05C471.725 2553.43 471.12 2551.3 470.312 2549.64C469.516 2547.98 468.562 2546.79 467.449 2546.06C466.348 2545.34 465.141 2545.07 463.827 2545.28C461.861 2545.58 460.441 2546.81 459.565 2548.95C458.689 2551.1 458.547 2554.13 459.141 2558.06C459.55 2560.71 460.155 2562.88 460.956 2564.57C461.767 2566.25 462.73 2567.46 463.844 2568.2C464.956 2568.92 466.169 2569.18 467.483 2568.98Z" fill="#F8F4DF"/>
<rect x="395.346" y="98.7732" width="71.9036" height="26.6245" transform="rotate(-6.55392 395.346 98.7732)" fill="#DB94A3" stroke="#F8F4DF" stroke-width="1.77083"/>
<ellipse cx="434.268" cy="122.572" rx="36.8372" ry="16.3081" transform="rotate(-6.55392 434.268 122.572)" fill="#F8F4DF"/>
<ellipse cx="433.809" cy="118.569" rx="35.3023" ry="14.9651" transform="rotate(-6.55392 433.809 118.569)" fill="#DB94A3"/>
<path d="M466.678 89.6866C467.279 94.9122 464.068 100.256 457.992 104.656C451.942 109.037 443.209 112.349 433.226 113.496C423.242 114.643 413.986 113.398 407.099 110.503C400.184 107.595 395.845 103.119 395.245 97.8935C394.644 92.6679 397.855 87.3242 403.931 82.9241C409.981 78.5426 418.714 75.2311 428.698 74.0842C438.681 72.9372 447.937 74.1818 454.824 77.077C461.739 79.9846 466.078 84.461 466.678 89.6866Z" fill="#DB94A3" stroke="#F8F4DF" stroke-width="1.77083"/>
<rect x="797.664" y="46.5375" width="71.9036" height="26.6245" transform="rotate(7.48985 797.664 46.5375)" fill="#72609E" stroke="#F8F4DF" stroke-width="1.77083"/>
<ellipse cx="829.649" cy="79.0697" rx="36.8372" ry="16.3081" transform="rotate(7.48985 829.649 79.0697)" fill="#F8F4DF"/>
<ellipse cx="830.174" cy="75.075" rx="35.3023" ry="14.9651" transform="rotate(7.48985 830.174 75.075)" fill="#72609E"/>
<path d="M869.07 55.0322C868.384 60.2473 863.973 64.6522 857.011 67.4464C850.078 70.2288 840.803 71.3221 830.839 70.0122C820.876 68.7023 812.198 65.2486 806.22 60.7689C800.217 56.2701 797.094 50.8747 797.78 45.6596C798.466 40.4445 802.877 36.0395 809.839 33.2453C816.772 30.463 826.047 29.3697 836.011 30.6796C845.974 31.9895 854.652 35.4432 860.629 39.9229C866.633 44.4217 869.756 49.8171 869.07 55.0322Z" fill="#72609E" stroke="#F8F4DF" stroke-width="1.77083"/>
<path fill-rule="evenodd" clip-rule="evenodd" d="M1208.18 240.099L1224.17 235.224L1206.28 276.522L1168.4 252.228L1186.18 246.807C1151.77 140.502 1049.3 92.268 1002 81.6435L1007.04 59.2026C1058.56 70.7757 1170.41 122.733 1208.18 240.099Z" fill="#FFF3D6"/>
<mask id="path-19-inside-1_202_2" fill="white">
<path fill-rule="evenodd" clip-rule="evenodd" d="M1213.22 238.896L1229.2 234.022L1211.32 275.319L1173.43 251.025L1191.21 245.604C1156.8 139.299 1054.34 91.0654 1007.04 80.4409L1012.08 58C1063.6 69.5731 1175.44 121.531 1213.22 238.896Z"/>
</mask>
<path fill-rule="evenodd" clip-rule="evenodd" d="M1213.22 238.896L1229.2 234.022L1211.32 275.319L1173.43 251.025L1191.21 245.604C1156.8 139.299 1054.34 91.0654 1007.04 80.4409L1012.08 58C1063.6 69.5731 1175.44 121.531 1213.22 238.896Z" fill="black"/>
<path d="M1213.22 238.896L1211.31 239.509L1211.92 241.383L1213.8 240.809L1213.22 238.896ZM1229.2 234.022L1231.04 234.816L1232.76 230.847L1228.62 232.109L1229.2 234.022ZM1211.32 275.319L1210.24 277.003L1212.22 278.272L1213.15 276.114L1211.32 275.319ZM1173.43 251.025L1172.85 249.112L1168.71 250.373L1172.35 252.708L1173.43 251.025ZM1191.21 245.604L1191.8 247.517L1193.74 246.924L1193.12 244.988L1191.21 245.604ZM1007.04 80.4409L1005.08 80.0026L1004.65 81.9539L1006.6 82.3923L1007.04 80.4409ZM1012.08 58L1012.51 56.0486L1010.56 55.6103L1010.12 57.5617L1012.08 58ZM1213.8 240.809L1229.79 235.935L1228.62 232.109L1212.63 236.983L1213.8 240.809ZM1227.37 233.227L1209.48 274.524L1213.15 276.114L1231.04 234.816L1227.37 233.227ZM1212.4 273.636L1174.51 249.341L1172.35 252.708L1210.24 277.003L1212.4 273.636ZM1174.02 252.938L1191.8 247.517L1190.63 243.691L1172.85 249.112L1174.02 252.938ZM1193.12 244.988C1158.4 137.746 1055.14 89.1964 1007.47 78.4895L1006.6 82.3923C1053.53 92.9344 1155.2 140.852 1189.31 246.22L1193.12 244.988ZM1008.99 80.8792L1014.03 58.4383L1010.12 57.5617L1005.08 80.0026L1008.99 80.8792ZM1011.64 59.9514C1062.8 71.4427 1173.84 123.085 1211.31 239.509L1215.12 238.283C1177.04 119.976 1064.4 67.7034 1012.51 56.0486L1011.64 59.9514Z" fill="#F8F4DF" mask="url(#path-19-inside-1_202_2)"/>
<path fill-rule="evenodd" clip-rule="evenodd" d="M1032.61 2595.37L1034.53 2611.97L997.123 2586.95L1027.84 2554.05L1029.97 2572.52C1140.73 2557.79 1206.61 2465.67 1225.57 2421.06L1246.74 2430.05C1226.08 2478.65 1154.86 2579.32 1032.61 2595.37Z" fill="#FFF3D6"/>
<mask id="path-22-inside-2_202_2" fill="white">
<path fill-rule="evenodd" clip-rule="evenodd" d="M1032.89 2600.54L1034.81 2617.14L997.401 2592.12L1028.11 2559.22L1030.25 2577.69C1141.01 2562.96 1206.89 2470.84 1225.85 2426.23L1247.01 2435.22C1226.36 2483.82 1155.13 2584.49 1032.89 2600.54Z"/>
</mask>
<path fill-rule="evenodd" clip-rule="evenodd" d="M1032.89 2600.54L1034.81 2617.14L997.401 2592.12L1028.11 2559.22L1030.25 2577.69C1141.01 2562.96 1206.89 2470.84 1225.85 2426.23L1247.01 2435.22C1226.36 2483.82 1155.13 2584.49 1032.89 2600.54Z" fill="black"/>
<path d="M1032.89 2600.54L1032.63 2598.56L1030.68 2598.81L1030.9 2600.77L1032.89 2600.54ZM1034.81 2617.14L1033.69 2618.81L1037.29 2621.21L1036.79 2616.91L1034.81 2617.14ZM997.401 2592.12L995.939 2590.75L994.333 2592.47L996.289 2593.78L997.401 2592.12ZM1028.11 2559.22L1030.1 2558.99L1029.6 2554.7L1026.65 2557.86L1028.11 2559.22ZM1030.25 2577.69L1028.26 2577.92L1028.49 2579.94L1030.51 2579.67L1030.25 2577.69ZM1225.85 2426.23L1226.63 2424.38L1224.79 2423.6L1224.01 2425.44L1225.85 2426.23ZM1247.01 2435.22L1248.86 2436L1249.64 2434.16L1247.8 2433.38L1247.01 2435.22ZM1030.9 2600.77L1032.82 2617.37L1036.79 2616.91L1034.87 2600.31L1030.9 2600.77ZM1035.92 2615.48L998.513 2590.46L996.289 2593.78L1033.69 2618.81L1035.92 2615.48ZM998.862 2593.48L1029.58 2560.59L1026.65 2557.86L995.939 2590.75L998.862 2593.48ZM1026.13 2559.45L1028.26 2577.92L1032.23 2577.46L1030.1 2558.99L1026.13 2559.45ZM1030.51 2579.67C1142.25 2564.81 1208.58 2471.97 1227.69 2427.01L1224.01 2425.44C1205.19 2469.72 1139.77 2561.11 1029.98 2575.7L1030.51 2579.67ZM1225.06 2428.07L1246.23 2437.06L1247.8 2433.38L1226.63 2424.38L1225.06 2428.07ZM1245.17 2434.44C1224.67 2482.7 1153.89 2582.64 1032.63 2598.56L1033.15 2602.52C1156.38 2586.35 1228.06 2484.95 1248.86 2436L1245.17 2434.44Z" fill="#F8F4DF" mask="url(#path-22-inside-2_202_2)"/>
<circle cx="1207.5" cy="634.5" r="40" fill="black" stroke="#F8F4DF"/>
<circle cx="1207.5" cy="634.5" r="33.5" fill="#F8F4DF"/>
<path d="M1199.94 643.763C1198.19 643.582 1196.73 643.001 1195.55 642.021C1194.39 641.041 1193.54 639.708 1193.03 638.02C1192.52 636.333 1192.38 634.351 1192.62 632.074C1192.84 629.803 1193.37 627.901 1194.2 626.369C1195.04 624.837 1196.13 623.717 1197.47 623.008C1198.81 622.294 1200.35 622.024 1202.1 622.198C1203.84 622.372 1205.29 622.942 1206.46 623.908C1207.64 624.875 1208.49 626.192 1209.01 627.859C1209.52 629.52 1209.67 631.485 1209.43 633.755C1209.2 636.04 1208.67 637.958 1207.83 639.51C1207 641.063 1205.91 642.204 1204.57 642.933C1203.23 643.661 1201.69 643.938 1199.94 643.763ZM1200.3 640.113C1201.5 640.233 1202.51 639.728 1203.34 638.599C1204.17 637.471 1204.71 635.706 1204.94 633.306C1205.1 631.727 1205.07 630.395 1204.85 629.312C1204.63 628.23 1204.26 627.395 1203.72 626.807C1203.19 626.22 1202.53 625.887 1201.74 625.807C1200.55 625.689 1199.54 626.187 1198.71 627.302C1197.88 628.417 1197.34 630.157 1197.1 632.522C1196.94 634.122 1196.97 635.473 1197.18 636.576C1197.4 637.673 1197.77 638.518 1198.31 639.113C1198.85 639.7 1199.51 640.034 1200.3 640.113ZM1222.67 624.543L1220.59 645.367L1216.19 644.926L1217.85 628.282L1217.73 628.27L1212.66 630.782L1213.06 626.878L1218.54 624.13L1222.67 624.543Z" fill="black"/>
<circle cx="216.5" cy="1497.5" r="40" fill="black" stroke="#F8F4DF"/>
<circle cx="216.5" cy="1497.5" r="33.5" fill="#F8F4DF"/>
<path d="M207.506 1508.78C205.781 1509.11 204.214 1508.98 202.804 1508.38C201.401 1507.79 200.207 1506.76 199.222 1505.29C198.244 1503.83 197.536 1501.97 197.098 1499.72C196.655 1497.48 196.608 1495.51 196.957 1493.8C197.312 1492.09 198.027 1490.71 199.1 1489.64C200.179 1488.56 201.577 1487.86 203.295 1487.52C205.012 1487.18 206.571 1487.3 207.971 1487.88C209.378 1488.46 210.572 1489.48 211.553 1490.92C212.532 1492.36 213.24 1494.2 213.677 1496.44C214.123 1498.69 214.17 1500.68 213.819 1502.41C213.473 1504.14 212.766 1505.55 211.697 1506.63C210.627 1507.72 209.231 1508.43 207.506 1508.78ZM206.794 1505.18C207.97 1504.94 208.791 1504.17 209.259 1502.85C209.726 1501.52 209.722 1499.68 209.247 1497.32C208.938 1495.76 208.521 1494.49 207.995 1493.52C207.476 1492.55 206.874 1491.86 206.189 1491.45C205.511 1491.05 204.781 1490.92 204 1491.07C202.83 1491.31 202.01 1492.08 201.541 1493.38C201.071 1494.69 201.063 1496.51 201.519 1498.85C201.831 1500.42 202.249 1501.71 202.772 1502.7C203.301 1503.69 203.908 1504.39 204.594 1504.8C205.279 1505.21 206.012 1505.33 206.794 1505.18ZM218.801 1506.07L218.182 1502.94L224.148 1494.73C224.651 1494 225.065 1493.36 225.39 1492.8C225.723 1492.23 225.953 1491.69 226.083 1491.19C226.211 1490.68 226.221 1490.15 226.114 1489.61C225.994 1489.01 225.755 1488.52 225.395 1488.14C225.033 1487.75 224.592 1487.49 224.072 1487.35C223.55 1487.2 222.988 1487.19 222.386 1487.31C221.758 1487.43 221.235 1487.67 220.818 1488.01C220.401 1488.36 220.112 1488.8 219.952 1489.32C219.792 1489.85 219.777 1490.43 219.907 1491.09L215.787 1491.91C215.521 1490.56 215.594 1489.34 216.006 1488.23C216.418 1487.12 217.119 1486.18 218.107 1485.43C219.096 1484.67 220.305 1484.15 221.735 1483.86C223.205 1483.57 224.537 1483.58 225.729 1483.88C226.927 1484.18 227.921 1484.73 228.71 1485.52C229.5 1486.32 230.011 1487.31 230.246 1488.49C230.399 1489.26 230.397 1490.06 230.239 1490.88C230.088 1491.69 229.717 1492.64 229.124 1493.71C228.53 1494.78 227.656 1496.1 226.5 1497.66L224.085 1501.19L224.112 1501.33L232.733 1499.62L233.436 1503.17L218.801 1506.07Z" fill="black"/>
<circle cx="1247.5" cy="2093.5" r="40" fill="black" stroke="#F8F4DF"/>
<circle cx="1247.5" cy="2093.5" r="33.5" fill="#F8F4DF"/>
<path d="M1238.55 2102.96C1236.8 2102.95 1235.28 2102.52 1234.02 2101.66C1232.76 2100.8 1231.78 2099.56 1231.1 2097.93C1230.43 2096.3 1230.09 2094.35 1230.1 2092.06C1230.1 2089.78 1230.43 2087.83 1231.11 2086.22C1231.79 2084.61 1232.76 2083.39 1234.02 2082.55C1235.28 2081.71 1236.79 2081.28 1238.54 2081.28C1240.29 2081.28 1241.8 2081.7 1243.06 2082.55C1244.33 2083.39 1245.3 2084.62 1245.98 2086.22C1246.67 2087.83 1247 2089.77 1247 2092.05C1247 2094.34 1246.66 2096.31 1245.98 2097.93C1245.31 2099.56 1244.34 2100.81 1243.08 2101.67C1241.82 2102.52 1240.31 2102.95 1238.55 2102.96ZM1238.55 2099.29C1239.75 2099.29 1240.71 2098.68 1241.42 2097.48C1242.14 2096.27 1242.49 2094.46 1242.48 2092.05C1242.48 2090.46 1242.32 2089.14 1241.99 2088.09C1241.67 2087.03 1241.21 2086.24 1240.62 2085.71C1240.03 2085.18 1239.34 2084.91 1238.54 2084.91C1237.35 2084.91 1236.4 2085.51 1235.68 2086.7C1234.97 2087.89 1234.61 2089.68 1234.6 2092.05C1234.61 2093.66 1234.77 2095 1235.09 2096.08C1235.41 2097.15 1235.87 2097.95 1236.47 2098.49C1237.06 2099.02 1237.76 2099.29 1238.55 2099.29ZM1257.89 2102.77C1256.37 2102.77 1255.01 2102.51 1253.82 2101.99C1252.63 2101.46 1251.69 2100.73 1251.01 2099.8C1250.32 2098.87 1249.97 2097.79 1249.95 2096.57L1254.41 2096.57C1254.43 2097.08 1254.6 2097.53 1254.91 2097.92C1255.22 2098.3 1255.64 2098.6 1256.16 2098.81C1256.67 2099.02 1257.26 2099.12 1257.9 2099.12C1258.58 2099.12 1259.17 2099 1259.69 2098.77C1260.21 2098.53 1260.61 2098.2 1260.91 2097.77C1261.2 2097.35 1261.35 2096.86 1261.35 2096.31C1261.34 2095.75 1261.19 2095.26 1260.87 2094.83C1260.57 2094.4 1260.12 2094.05 1259.55 2093.81C1258.97 2093.56 1258.29 2093.44 1257.5 2093.44L1255.55 2093.44L1255.55 2090.19L1257.5 2090.19C1258.17 2090.19 1258.76 2090.08 1259.27 2089.85C1259.79 2089.61 1260.19 2089.29 1260.47 2088.88C1260.76 2088.47 1260.9 2087.98 1260.9 2087.43C1260.9 2086.91 1260.77 2086.45 1260.52 2086.05C1260.28 2085.65 1259.93 2085.34 1259.48 2085.11C1259.04 2084.89 1258.52 2084.78 1257.93 2084.78C1257.33 2084.78 1256.78 2084.89 1256.28 2085.11C1255.78 2085.32 1255.39 2085.62 1255.09 2086.02C1254.79 2086.41 1254.63 2086.87 1254.61 2087.41L1250.37 2087.41C1250.39 2086.2 1250.73 2085.14 1251.4 2084.22C1252.06 2083.3 1252.96 2082.58 1254.09 2082.06C1255.23 2081.54 1256.51 2081.27 1257.94 2081.27C1259.39 2081.27 1260.65 2081.53 1261.74 2082.06C1262.82 2082.58 1263.66 2083.29 1264.26 2084.18C1264.87 2085.07 1265.17 2086.06 1265.16 2087.16C1265.17 2088.34 1264.81 2089.31 1264.07 2090.1C1263.34 2090.88 1262.39 2091.38 1261.22 2091.59L1261.22 2091.75C1262.76 2091.95 1263.93 2092.49 1264.74 2093.36C1265.55 2094.22 1265.95 2095.31 1265.94 2096.61C1265.95 2097.8 1265.61 2098.86 1264.91 2099.78C1264.23 2100.71 1263.28 2101.44 1262.06 2101.97C1260.85 2102.5 1259.46 2102.77 1257.89 2102.77Z" fill="black"/>
<rect x="642.421" y="930.372" width="216.42" height="37.6006" transform="rotate(7.02159 642.421 930.372)" fill="#F8F4DF"/>
<rect x="637.628" y="923.557" width="220" height="41.4801" transform="rotate(7.02159 637.628 923.557)" fill="black" stroke="#F8F4DF"/>
<path d="M687.272 946.782C687.292 946.092 687.07 945.525 686.606 945.081C686.141 944.638 685.469 944.36 684.59 944.247C683.993 944.17 683.478 944.19 683.044 944.306C682.612 944.417 682.267 944.605 682.01 944.87C681.758 945.135 681.608 945.454 681.561 945.826C681.51 946.135 681.54 946.413 681.651 946.663C681.768 946.912 681.942 947.138 682.174 947.34C682.407 947.536 682.681 947.717 682.998 947.884C683.315 948.045 683.657 948.192 684.024 948.325L685.532 948.896C686.265 949.162 686.93 949.476 687.525 949.839C688.12 950.202 688.622 950.619 689.031 951.089C689.441 951.56 689.736 952.091 689.918 952.681C690.106 953.272 690.156 953.929 690.069 954.651C689.928 955.71 689.54 956.594 688.904 957.303C688.276 958.007 687.432 958.509 686.374 958.808C685.322 959.103 684.092 959.16 682.683 958.979C681.285 958.8 680.096 958.43 679.114 957.868C678.137 957.308 677.413 956.57 676.94 955.656C676.474 954.737 676.306 953.653 676.438 952.404L679.98 952.858C679.945 953.444 680.049 953.95 680.292 954.376C680.542 954.798 680.902 955.139 681.372 955.4C681.849 955.656 682.403 955.824 683.035 955.905C683.654 955.985 684.204 955.964 684.684 955.842C685.169 955.721 685.559 955.516 685.854 955.227C686.149 954.938 686.323 954.586 686.376 954.169C686.426 953.78 686.353 953.438 686.156 953.143C685.964 952.85 685.661 952.582 685.245 952.339C684.835 952.098 684.324 951.86 683.712 951.627L681.888 950.912C680.474 950.37 679.392 949.667 678.644 948.803C677.896 947.939 677.606 946.868 677.776 945.59C677.905 944.541 678.301 943.661 678.965 942.95C679.635 942.239 680.494 941.728 681.542 941.416C682.59 941.103 683.746 941.028 685.008 941.19C686.293 941.355 687.386 941.719 688.288 942.281C689.195 942.844 689.866 943.552 690.301 944.404C690.736 945.256 690.896 946.199 690.781 947.232L687.272 946.782ZM693.072 945.533L693.459 942.515L707.677 944.339L707.29 947.357L701.99 946.677L700.156 960.971L696.538 960.507L698.372 946.213L693.072 945.533ZM708.667 962.063L704.744 961.56L712.942 945.014L717.659 945.619L721.406 963.697L717.484 963.194L714.86 949.282L714.725 949.264L708.667 962.063ZM709.295 955.227L718.559 956.415L718.193 959.273L708.928 958.084L709.295 955.227ZM723.49 963.965L725.711 946.652L732.541 947.528C733.849 947.696 734.934 948.073 735.799 948.659C736.669 949.241 737.292 949.988 737.668 950.901C738.05 951.81 738.167 952.836 738.02 953.98C737.873 955.129 737.498 956.087 736.896 956.851C736.294 957.611 735.495 958.15 734.497 958.468C733.505 958.788 732.345 958.862 731.015 958.692L726.441 958.105L726.819 955.163L730.8 955.674C731.499 955.764 732.092 955.742 732.578 955.61C733.065 955.478 733.446 955.234 733.72 954.88C734.001 954.527 734.177 954.065 734.25 953.496C734.324 952.921 734.271 952.422 734.09 951.998C733.915 951.574 733.607 951.231 733.165 950.968C732.73 950.7 732.16 950.521 731.456 950.431L728.987 950.114L727.15 964.434L723.49 963.965ZM733.85 957.286L737.142 965.716L733.101 965.198L729.902 956.779L733.85 957.286ZM740.286 951.589L740.673 948.572L754.892 950.396L754.505 953.413L749.205 952.734L747.371 967.028L743.753 966.564L745.587 952.269L740.286 951.589ZM767.927 952.068L771.588 952.537L770.145 963.78C769.983 965.043 769.54 966.109 768.816 966.978C768.097 967.848 767.165 968.479 766.021 968.871C764.877 969.257 763.59 969.358 762.158 969.174C760.721 968.99 759.498 968.567 758.489 967.905C757.48 967.237 756.738 966.391 756.262 965.368C755.786 964.344 755.629 963.201 755.791 961.939L757.234 950.696L760.894 951.166L759.492 962.096C759.407 962.755 759.476 963.36 759.697 963.909C759.925 964.46 760.284 964.916 760.777 965.277C761.269 965.638 761.867 965.863 762.571 965.954C763.282 966.045 763.917 965.977 764.479 965.752C765.046 965.527 765.507 965.176 765.86 964.7C766.219 964.225 766.441 963.657 766.525 962.998L767.927 952.068ZM772.378 970.236L774.599 952.924L781.43 953.8C782.743 953.968 783.829 954.363 784.689 954.983C785.55 955.597 786.166 956.378 786.537 957.325C786.914 958.267 787.029 959.313 786.882 960.463C786.734 961.612 786.356 962.595 785.748 963.41C785.139 964.226 784.332 964.818 783.328 965.188C782.33 965.558 781.166 965.658 779.836 965.488L775.482 964.929L775.858 961.996L779.62 962.478C780.325 962.569 780.921 962.522 781.408 962.338C781.902 962.149 782.29 961.853 782.571 961.448C782.858 961.038 783.039 960.548 783.112 959.979C783.185 959.404 783.134 958.888 782.958 958.43C782.788 957.967 782.487 957.587 782.056 957.291C781.625 956.99 781.054 956.793 780.344 956.702L777.876 956.386L776.039 970.706L772.378 970.236ZM798.765 961.085C798.785 960.394 798.563 959.827 798.098 959.384C797.634 958.94 796.962 958.662 796.083 958.55C795.485 958.473 794.97 958.493 794.537 958.609C794.105 958.72 793.76 958.907 793.502 959.172C793.251 959.438 793.101 959.757 793.053 960.129C793.002 960.437 793.032 960.716 793.144 960.965C793.26 961.215 793.435 961.441 793.667 961.642C793.899 961.838 794.174 962.02 794.491 962.186C794.808 962.347 795.15 962.494 795.517 962.627L797.024 963.199C797.758 963.465 798.422 963.779 799.017 964.142C799.612 964.504 800.115 964.921 800.524 965.392C800.933 965.863 801.229 966.393 801.411 966.984C801.599 967.575 801.649 968.231 801.562 968.953C801.421 970.012 801.032 970.896 800.397 971.605C799.768 972.309 798.925 972.811 797.867 973.111C796.815 973.406 795.585 973.462 794.176 973.282C792.778 973.102 791.588 972.732 790.606 972.171C789.63 971.61 788.905 970.873 788.433 969.959C787.966 969.04 787.799 967.955 787.93 966.706L791.472 967.161C791.437 967.746 791.541 968.252 791.785 968.679C792.034 969.1 792.394 969.441 792.865 969.702C793.342 969.958 793.896 970.127 794.527 970.208C795.147 970.287 795.697 970.266 796.176 970.144C796.662 970.023 797.052 969.818 797.347 969.53C797.641 969.241 797.816 968.888 797.869 968.471C797.919 968.082 797.845 967.741 797.648 967.446C797.457 967.152 797.153 966.884 796.737 966.642C796.327 966.4 795.816 966.163 795.205 965.93L793.38 965.214C791.966 964.672 790.885 963.969 790.137 963.106C789.388 962.242 789.099 961.171 789.269 959.892C789.397 958.843 789.794 957.963 790.458 957.252C791.128 956.542 791.987 956.031 793.035 955.718C794.083 955.406 795.238 955.331 796.501 955.493C797.786 955.657 798.879 956.021 799.781 956.584C800.688 957.147 801.359 957.854 801.794 958.706C802.229 959.559 802.389 960.501 802.273 961.535L798.765 961.085Z" fill="#F8F4DF"/>
<rect x="579.837" y="1809.67" width="216.42" height="37.6006" transform="rotate(-7.96561 579.837 1809.67)" fill="#F8F4DF"/>
<rect x="573.445" y="1804.33" width="220" height="41.4801" transform="rotate(-7.96561 573.445 1804.33)" fill="black" stroke="#F8F4DF"/>
<path d="M636.857 1825.19L632.938 1825.72L636.578 1807.62L641.291 1806.98L649.586 1823.48L645.667 1824.01L639.535 1811.25L639.4 1811.26L636.857 1825.19ZM635.696 1818.43L644.953 1817.18L645.338 1820.04L636.081 1821.28L635.696 1818.43ZM660.747 1810.05C660.573 1809.66 660.358 1809.32 660.102 1809.03C659.845 1808.74 659.546 1808.51 659.207 1808.33C658.873 1808.14 658.5 1808.02 658.09 1807.95C657.686 1807.89 657.247 1807.89 656.774 1807.95C655.89 1808.07 655.143 1808.39 654.532 1808.92C653.926 1809.45 653.495 1810.16 653.236 1811.05C652.977 1811.93 652.928 1812.98 653.091 1814.18C653.253 1815.39 653.574 1816.39 654.054 1817.18C654.534 1817.98 655.139 1818.55 655.869 1818.91C656.598 1819.26 657.419 1819.37 658.331 1819.25C659.159 1819.14 659.846 1818.89 660.392 1818.52C660.943 1818.14 661.337 1817.66 661.574 1817.08C661.816 1816.5 661.888 1815.84 661.788 1815.1L662.546 1815.11L658.087 1815.71L657.716 1812.96L664.954 1811.98L665.248 1814.16C665.453 1815.68 665.308 1817.03 664.813 1818.21C664.318 1819.38 663.547 1820.34 662.5 1821.08C661.453 1821.82 660.203 1822.29 658.75 1822.48C657.129 1822.7 655.656 1822.54 654.332 1821.99C653.007 1821.43 651.912 1820.54 651.047 1819.31C650.186 1818.07 649.633 1816.54 649.387 1814.72C649.198 1813.31 649.232 1812.04 649.49 1810.88C649.752 1809.73 650.201 1808.71 650.835 1807.85C651.469 1806.98 652.25 1806.28 653.175 1805.75C654.101 1805.22 655.136 1804.88 656.279 1804.72C657.259 1804.59 658.19 1804.61 659.074 1804.79C659.956 1804.95 660.759 1805.25 661.482 1805.68C662.211 1806.11 662.831 1806.66 663.344 1807.31C663.857 1807.97 664.23 1808.71 664.463 1809.55L660.747 1810.05ZM668.949 1820.87L666.617 1803.57L678.273 1802L678.68 1805.01L670.681 1806.09L671.237 1810.21L678.636 1809.22L679.042 1812.23L671.643 1813.23L672.2 1817.36L680.232 1816.28L680.639 1819.29L668.949 1820.87ZM695.65 1799.66L697.981 1816.96L694.822 1817.38L685.829 1807.51L685.702 1807.53L687.17 1818.41L683.513 1818.91L681.181 1801.61L684.391 1801.17L693.324 1811.05L693.476 1811.03L692.009 1800.15L695.65 1799.66ZM698.419 1802.35L698.012 1799.34L712.219 1797.42L712.626 1800.44L707.33 1801.15L709.255 1815.44L705.64 1815.92L703.715 1801.64L698.419 1802.35ZM724.613 1800.82C724.454 1800.15 724.092 1799.66 723.529 1799.35C722.966 1799.04 722.245 1798.94 721.367 1799.06C720.77 1799.14 720.277 1799.3 719.889 1799.52C719.5 1799.74 719.215 1800.01 719.035 1800.33C718.861 1800.65 718.798 1801 718.849 1801.37C718.879 1801.68 718.98 1801.94 719.152 1802.16C719.33 1802.37 719.557 1802.54 719.833 1802.68C720.108 1802.8 720.42 1802.91 720.769 1802.99C721.117 1803.06 721.486 1803.11 721.874 1803.15L723.479 1803.31C724.256 1803.38 724.979 1803.51 725.647 1803.71C726.316 1803.9 726.909 1804.18 727.426 1804.52C727.943 1804.87 728.366 1805.31 728.695 1805.83C729.029 1806.35 729.247 1806.98 729.35 1807.7C729.487 1808.76 729.341 1809.71 728.91 1810.56C728.485 1811.4 727.8 1812.1 726.855 1812.67C725.916 1813.22 724.742 1813.6 723.334 1813.79C721.938 1813.98 720.693 1813.93 719.599 1813.64C718.511 1813.35 717.62 1812.82 716.927 1812.06C716.239 1811.29 715.797 1810.29 715.601 1809.05L719.14 1808.57C719.258 1809.15 719.489 1809.61 719.834 1809.96C720.184 1810.3 720.62 1810.54 721.142 1810.67C721.669 1810.79 722.248 1810.81 722.879 1810.73C723.498 1810.64 724.024 1810.48 724.456 1810.24C724.893 1810 725.217 1809.7 725.427 1809.34C725.637 1808.99 725.714 1808.6 725.658 1808.18C725.605 1807.8 725.446 1807.49 725.179 1807.25C724.919 1807.02 724.556 1806.84 724.092 1806.71C723.633 1806.58 723.078 1806.49 722.427 1806.42L720.48 1806.2C718.974 1806.04 717.747 1805.64 716.801 1805C715.855 1804.36 715.298 1803.4 715.131 1802.12C714.985 1801.08 715.14 1800.12 715.598 1799.26C716.061 1798.4 716.758 1797.69 717.69 1797.12C718.622 1796.54 719.719 1796.17 720.98 1796C722.264 1795.83 723.414 1795.9 724.43 1796.21C725.452 1796.52 726.284 1797.03 726.924 1797.74C727.565 1798.45 727.963 1799.32 728.118 1800.35L724.613 1800.82Z" fill="#F8F4DF"/>
<rect x="577.879" y="2536.62" width="216.42" height="37.6006" transform="rotate(3.21354 577.879 2536.62)" fill="#F8F4DF"/>
<rect x="572.644" y="2530.14" width="220" height="41.4801" transform="rotate(3.21354 572.644 2530.14)" fill="black" stroke="#F8F4DF"/>
<path d="M637.29 2563.3L638.356 2545.88L645.23 2546.3C646.545 2546.38 647.654 2546.69 648.555 2547.22C649.462 2547.74 650.134 2548.44 650.569 2549.33C651.01 2550.21 651.196 2551.23 651.125 2552.38C651.055 2553.53 650.744 2554.51 650.194 2555.32C649.644 2556.11 648.882 2556.71 647.908 2557.09C646.94 2557.47 645.786 2557.63 644.448 2557.54L639.846 2557.26L640.027 2554.3L644.033 2554.55C644.737 2554.59 645.327 2554.53 645.804 2554.37C646.28 2554.2 646.644 2553.93 646.895 2553.56C647.151 2553.19 647.296 2552.72 647.331 2552.14C647.367 2551.57 647.28 2551.07 647.072 2550.66C646.869 2550.25 646.539 2549.93 646.081 2549.69C645.629 2549.46 645.048 2549.32 644.339 2549.27L641.855 2549.12L640.973 2563.53L637.29 2563.3ZM647.184 2555.95L651.028 2564.15L646.962 2563.9L643.211 2555.71L647.184 2555.95ZM653.01 2564.27L654.077 2546.85L665.816 2547.56L665.63 2550.6L657.574 2550.11L657.32 2554.26L664.772 2554.71L664.586 2557.75L657.134 2557.3L656.88 2561.46L664.97 2561.95L664.784 2564.99L653.01 2564.27ZM667.678 2565.16L668.745 2547.74L675.618 2548.16C676.939 2548.24 678.05 2548.57 678.949 2549.13C679.848 2549.68 680.515 2550.42 680.948 2551.34C681.387 2552.26 681.572 2553.29 681.501 2554.45C681.43 2555.61 681.118 2556.61 680.565 2557.47C680.012 2558.32 679.246 2558.96 678.269 2559.4C677.297 2559.84 676.142 2560.01 674.804 2559.93L670.423 2559.66L670.604 2556.71L674.389 2556.94C675.098 2556.99 675.69 2556.9 676.164 2556.68C676.644 2556.46 677.011 2556.14 677.265 2555.72C677.524 2555.29 677.672 2554.79 677.707 2554.22C677.742 2553.64 677.657 2553.13 677.451 2552.68C677.25 2552.23 676.925 2551.87 676.475 2551.61C676.025 2551.33 675.442 2551.18 674.728 2551.13L672.244 2550.98L671.362 2565.39L667.678 2565.16ZM699.731 2558.38C699.615 2560.28 699.156 2561.88 698.354 2563.17C697.558 2564.45 696.52 2565.41 695.241 2566.04C693.968 2566.66 692.562 2566.93 691.026 2566.83C689.477 2566.74 688.109 2566.3 686.922 2565.52C685.734 2564.74 684.824 2563.67 684.191 2562.29C683.558 2560.91 683.299 2559.28 683.415 2557.38C683.532 2555.48 683.988 2553.89 684.784 2552.6C685.58 2551.31 686.615 2550.36 687.888 2549.73C689.162 2549.11 690.573 2548.84 692.121 2548.93C693.658 2549.03 695.02 2549.46 696.208 2550.24C697.401 2551.02 698.315 2552.09 698.948 2553.47C699.586 2554.84 699.848 2556.48 699.731 2558.38ZM695.997 2558.15C696.072 2556.92 695.951 2555.87 695.634 2555.01C695.323 2554.14 694.849 2553.47 694.212 2552.99C693.576 2552.51 692.812 2552.25 691.922 2552.19C691.031 2552.14 690.241 2552.31 689.551 2552.7C688.86 2553.1 688.305 2553.71 687.885 2554.53C687.47 2555.36 687.225 2556.38 687.15 2557.61C687.074 2558.84 687.192 2559.89 687.504 2560.76C687.821 2561.63 688.297 2562.3 688.934 2562.78C689.571 2563.25 690.335 2563.52 691.225 2563.57C692.115 2563.63 692.906 2563.46 693.596 2563.06C694.286 2562.67 694.839 2562.06 695.253 2561.23C695.674 2560.41 695.922 2559.38 695.997 2558.15ZM712.137 2555.43C712.111 2554.74 711.852 2554.19 711.359 2553.77C710.866 2553.36 710.177 2553.13 709.293 2553.08C708.692 2553.04 708.179 2553.09 707.754 2553.24C707.33 2553.38 706.999 2553.59 706.76 2553.87C706.526 2554.15 706.398 2554.48 706.375 2554.85C706.344 2555.16 706.393 2555.44 706.52 2555.68C706.654 2555.92 706.843 2556.14 707.088 2556.32C707.333 2556.5 707.619 2556.67 707.946 2556.81C708.273 2556.95 708.624 2557.07 708.999 2557.18L710.541 2557.65C711.291 2557.87 711.974 2558.14 712.592 2558.46C713.21 2558.78 713.739 2559.17 714.178 2559.61C714.618 2560.05 714.948 2560.56 715.169 2561.14C715.396 2561.72 715.49 2562.37 715.451 2563.09C715.38 2564.16 715.051 2565.07 714.465 2565.82C713.884 2566.56 713.076 2567.12 712.04 2567.49C711.01 2567.85 709.786 2567.99 708.368 2567.9C706.962 2567.82 705.75 2567.53 704.733 2567.03C703.722 2566.54 702.95 2565.85 702.417 2564.97C701.891 2564.08 701.652 2563.01 701.7 2561.76L705.264 2561.97C705.268 2562.56 705.406 2563.06 705.677 2563.47C705.954 2563.87 706.336 2564.19 706.823 2564.42C707.316 2564.64 707.88 2564.77 708.515 2564.81C709.139 2564.85 709.686 2564.79 710.156 2564.64C710.632 2564.49 711.008 2564.26 711.283 2563.95C711.558 2563.64 711.708 2563.28 711.734 2562.86C711.758 2562.47 711.662 2562.13 711.446 2561.85C711.235 2561.57 710.914 2561.32 710.483 2561.11C710.058 2560.89 709.533 2560.69 708.907 2560.5L707.039 2559.91C705.592 2559.46 704.466 2558.83 703.662 2558.02C702.858 2557.2 702.498 2556.16 702.583 2554.87C702.642 2553.81 702.979 2552.91 703.594 2552.16C704.215 2551.4 705.038 2550.83 706.063 2550.45C707.089 2550.07 708.236 2549.92 709.507 2550C710.8 2550.08 711.915 2550.37 712.852 2550.87C713.795 2551.37 714.511 2552.03 715.002 2552.85C715.492 2553.67 715.714 2554.6 715.668 2555.64L712.137 2555.43Z" fill="#F8F4DF"/>
<path d="M235.602 1117.35L229.741 1115.37L235.33 1098.84L241.24 1100.83C242.903 1101.4 244.223 1102.21 245.199 1103.28C246.178 1104.34 246.782 1105.6 247.011 1107.05C247.246 1108.5 247.073 1110.09 246.492 1111.8C245.91 1113.53 245.084 1114.9 244.015 1115.91C242.95 1116.93 241.701 1117.57 240.266 1117.82C238.836 1118.08 237.282 1117.92 235.602 1117.35ZM234.249 1113.56L236.47 1114.31C237.503 1114.66 238.434 1114.77 239.263 1114.64C240.099 1114.51 240.826 1114.12 241.443 1113.46C242.067 1112.8 242.588 1111.86 243.005 1110.63C243.417 1109.4 243.575 1108.34 243.476 1107.45C243.383 1106.55 243.045 1105.8 242.464 1105.2C241.883 1104.59 241.075 1104.12 240.042 1103.77L237.813 1103.01L234.249 1113.56ZM246.282 1120.96L251.871 1104.43L263.013 1108.19L262.039 1111.08L254.393 1108.49L253.061 1112.43L260.134 1114.82L259.16 1117.7L252.087 1115.31L250.753 1119.26L258.431 1121.86L257.457 1124.74L246.282 1120.96ZM260.204 1125.67L265.793 1109.13L276.935 1112.9L275.961 1115.78L268.315 1113.2L266.983 1117.14L274.056 1119.53L273.082 1122.41L266.009 1120.02L264.674 1123.97L272.353 1126.56L271.378 1129.45L260.204 1125.67ZM274.126 1130.37L279.714 1113.84L286.238 1116.04C287.492 1116.47 288.48 1117.07 289.201 1117.85C289.923 1118.62 290.373 1119.5 290.551 1120.51C290.735 1121.5 290.642 1122.55 290.271 1123.65C289.9 1124.75 289.335 1125.64 288.578 1126.32C287.82 1127 286.913 1127.42 285.856 1127.58C284.804 1127.75 283.643 1127.62 282.373 1127.19L278.214 1125.78L279.161 1122.98L282.754 1124.2C283.427 1124.42 284.021 1124.49 284.535 1124.41C285.056 1124.32 285.495 1124.11 285.85 1123.77C286.213 1123.42 286.486 1122.98 286.67 1122.43C286.855 1121.88 286.907 1121.37 286.824 1120.88C286.749 1120.4 286.529 1119.97 286.164 1119.59C285.801 1119.21 285.28 1118.9 284.602 1118.68L282.244 1117.88L277.622 1131.56L274.126 1130.37Z" fill="#F8F4DF"/>
<path d="M227.636 1140.92L221.774 1138.94L227.363 1122.41L233.273 1124.4C234.936 1124.97 236.256 1125.78 237.233 1126.85C238.211 1127.91 238.815 1129.17 239.044 1130.62C239.279 1132.07 239.106 1133.66 238.526 1135.37C237.944 1137.1 237.118 1138.47 236.048 1139.49C234.983 1140.5 233.734 1141.14 232.299 1141.39C230.869 1141.65 229.315 1141.49 227.636 1140.92ZM226.282 1137.13L228.503 1137.88C229.536 1138.23 230.467 1138.34 231.296 1138.21C232.132 1138.08 232.859 1137.69 233.476 1137.03C234.101 1136.37 234.621 1135.43 235.038 1134.2C235.451 1132.97 235.608 1131.91 235.509 1131.02C235.416 1130.12 235.079 1129.37 234.497 1128.77C233.916 1128.16 233.108 1127.69 232.075 1127.34L229.846 1126.58L226.282 1137.13ZM238.316 1144.53L243.904 1128L255.047 1131.76L254.072 1134.65L246.426 1132.06L245.094 1136L252.167 1138.39L251.193 1141.28L244.12 1138.88L242.786 1142.83L250.464 1145.43L249.49 1148.31L238.316 1144.53ZM252.237 1149.24L257.826 1132.7L268.968 1136.47L267.994 1139.35L260.348 1136.77L259.016 1140.71L266.089 1143.1L265.115 1145.98L258.042 1143.59L256.707 1147.54L264.386 1150.13L263.412 1153.02L252.237 1149.24ZM266.159 1153.94L271.748 1137.41L278.271 1139.61C279.526 1140.04 280.513 1140.64 281.234 1141.42C281.957 1142.19 282.407 1143.07 282.584 1144.08C282.768 1145.07 282.675 1146.12 282.304 1147.22C281.933 1148.32 281.368 1149.21 280.611 1149.89C279.853 1150.57 278.946 1150.99 277.889 1151.15C276.837 1151.32 275.676 1151.19 274.406 1150.76L270.248 1149.35L271.195 1146.55L274.788 1147.77C275.46 1147.99 276.054 1148.06 276.568 1147.98C277.09 1147.89 277.528 1147.68 277.883 1147.34C278.246 1146.99 278.519 1146.55 278.703 1146C278.888 1145.45 278.94 1144.94 278.858 1144.45C278.782 1143.97 278.562 1143.54 278.197 1143.16C277.834 1142.78 277.313 1142.47 276.635 1142.25L274.278 1141.45L269.655 1155.13L266.159 1153.94Z" fill="#F8F4DF" fill-opacity="0.75"/>
<path d="M219.669 1164.49L213.808 1162.51L219.396 1145.98L225.307 1147.98C226.97 1148.54 228.29 1149.35 229.266 1150.42C230.245 1151.48 230.849 1152.74 231.078 1154.19C231.313 1155.64 231.14 1157.23 230.559 1158.94C229.977 1160.67 229.151 1162.04 228.081 1163.06C227.017 1164.08 225.768 1164.71 224.333 1164.96C222.903 1165.22 221.349 1165.06 219.669 1164.49ZM218.316 1160.7L220.536 1161.45C221.57 1161.8 222.501 1161.91 223.33 1161.78C224.166 1161.65 224.893 1161.26 225.51 1160.6C226.134 1159.94 226.655 1159 227.071 1157.77C227.484 1156.54 227.642 1155.48 227.543 1154.59C227.45 1153.69 227.112 1152.94 226.531 1152.34C225.949 1151.73 225.142 1151.26 224.109 1150.91L221.88 1150.15L218.316 1160.7ZM230.349 1168.1L235.938 1151.57L247.08 1155.33L246.106 1158.22L238.46 1155.63L237.128 1159.57L244.201 1161.96L243.227 1164.85L236.154 1162.46L234.819 1166.4L242.498 1169L241.524 1171.88L230.349 1168.1ZM244.271 1172.81L249.86 1156.27L261.002 1160.04L260.028 1162.92L252.382 1160.34L251.05 1164.28L258.123 1166.67L257.148 1169.55L250.076 1167.16L248.741 1171.11L256.419 1173.7L255.445 1176.59L244.271 1172.81ZM258.192 1177.51L263.781 1160.98L270.305 1163.18C271.559 1163.61 272.547 1164.21 273.268 1164.99C273.99 1165.76 274.44 1166.65 274.618 1167.65C274.802 1168.64 274.709 1169.69 274.338 1170.79C273.966 1171.89 273.402 1172.78 272.645 1173.46C271.887 1174.14 270.98 1174.56 269.923 1174.72C268.871 1174.89 267.71 1174.76 266.439 1174.33L262.281 1172.92L263.228 1170.12L266.821 1171.34C267.494 1171.56 268.088 1171.64 268.602 1171.55C269.123 1171.46 269.562 1171.25 269.917 1170.91C270.28 1170.56 270.553 1170.12 270.737 1169.57C270.922 1169.02 270.974 1168.51 270.891 1168.02C270.816 1167.54 270.596 1167.11 270.231 1166.73C269.868 1166.35 269.347 1166.05 268.669 1165.82L266.311 1165.02L261.688 1178.7L258.192 1177.51Z" fill="#F8F4DF" fill-opacity="0.5"/>
<path d="M211.703 1188.06L205.841 1186.08L211.43 1169.55L217.34 1171.55C219.003 1172.11 220.323 1172.92 221.3 1173.99C222.278 1175.05 222.882 1176.31 223.111 1177.76C223.346 1179.21 223.173 1180.8 222.593 1182.52C222.01 1184.24 221.184 1185.61 220.115 1186.63C219.05 1187.65 217.801 1188.28 216.366 1188.53C214.936 1188.79 213.382 1188.63 211.703 1188.06ZM210.349 1184.27L212.57 1185.02C213.603 1185.37 214.534 1185.48 215.363 1185.35C216.199 1185.22 216.926 1184.83 217.543 1184.17C218.167 1183.51 218.688 1182.57 219.105 1181.34C219.518 1180.11 219.675 1179.06 219.576 1178.16C219.483 1177.26 219.145 1176.51 218.564 1175.91C217.983 1175.3 217.175 1174.83 216.142 1174.48L213.913 1173.73L210.349 1184.27ZM222.382 1191.67L227.971 1175.14L239.113 1178.9L238.139 1181.79L230.493 1179.2L229.161 1183.14L236.234 1185.53L235.26 1188.42L228.187 1186.03L226.853 1189.97L234.531 1192.57L233.557 1195.45L222.382 1191.67ZM236.304 1196.38L241.893 1179.84L253.035 1183.61L252.061 1186.49L244.415 1183.91L243.083 1187.85L250.156 1190.24L249.182 1193.12L242.109 1190.73L240.774 1194.68L248.453 1197.27L247.478 1200.16L236.304 1196.38ZM250.226 1201.09L255.815 1184.55L262.338 1186.75C263.593 1187.18 264.58 1187.78 265.301 1188.56C266.024 1189.33 266.473 1190.22 266.651 1191.22C266.835 1192.22 266.742 1193.26 266.371 1194.36C266 1195.46 265.435 1196.35 264.678 1197.03C263.92 1197.71 263.013 1198.13 261.956 1198.29C260.904 1198.46 259.743 1198.33 258.473 1197.9L254.315 1196.49L255.261 1193.69L258.854 1194.91C259.527 1195.13 260.121 1195.21 260.635 1195.12C261.156 1195.03 261.595 1194.82 261.95 1194.48C262.313 1194.13 262.586 1193.69 262.77 1193.14C262.955 1192.59 263.007 1192.08 262.924 1191.59C262.849 1191.11 262.629 1190.68 262.264 1190.3C261.901 1189.92 261.38 1189.62 260.702 1189.39L258.345 1188.59L253.722 1202.27L250.226 1201.09Z" fill="#F8F4DF" fill-opacity="0.25"/>
<path d="M1179.05 1833.6L1248.62 1966.56L1197.03 1993.56C1197.03 1993.56 1189.09 1946.1 1175.51 1920.13C1161.92 1894.17 1127.46 1860.59 1127.46 1860.59L1179.05 1833.6Z" fill="#F8F4DF"/>
<path d="M1180.86 1829.27L1250.12 1961.63L1199.25 1988.25C1199.24 1988.23 1199.24 1988.2 1199.23 1988.17C1199.17 1987.82 1199.08 1987.3 1198.96 1986.62C1198.71 1985.27 1198.35 1983.31 1197.87 1980.88C1196.91 1976.02 1195.5 1969.28 1193.65 1961.71C1189.97 1946.6 1184.58 1928.21 1177.77 1915.19C1170.96 1902.17 1158.92 1887.26 1148.6 1875.62C1143.44 1869.79 1138.7 1864.78 1135.26 1861.22C1133.54 1859.44 1132.14 1858.03 1131.17 1857.06C1130.68 1856.58 1130.3 1856.2 1130.05 1855.95C1130.03 1855.93 1130.01 1855.91 1129.99 1855.89L1180.86 1829.27Z" fill="black" stroke="#F8F4DF" stroke-width="0.679035"/>
<path d="M1166.47 1871.91L1182.26 1863.74L1185.53 1870.07C1186.13 1871.23 1186.46 1872.29 1186.51 1873.24C1186.57 1874.2 1186.39 1875.03 1185.98 1875.73C1185.58 1876.44 1184.98 1876.99 1184.19 1877.4C1183.57 1877.72 1182.97 1877.88 1182.37 1877.87C1181.78 1877.87 1181.23 1877.72 1180.7 1877.45C1180.19 1877.17 1179.73 1876.79 1179.32 1876.3L1179.17 1876.38C1179.45 1877 1179.57 1877.65 1179.53 1878.33C1179.49 1879.03 1179.27 1879.68 1178.88 1880.3C1178.49 1880.92 1177.91 1881.43 1177.13 1881.83C1176.29 1882.27 1175.44 1882.45 1174.56 1882.37C1173.7 1882.3 1172.86 1881.95 1172.07 1881.34C1171.27 1880.73 1170.57 1879.84 1169.95 1878.65L1166.47 1871.91ZM1170.92 1873.83L1172.33 1876.56C1172.81 1877.49 1173.34 1878.07 1173.91 1878.32C1174.49 1878.56 1175.08 1878.52 1175.68 1878.22C1176.12 1877.99 1176.45 1877.69 1176.67 1877.3C1176.9 1876.92 1177 1876.48 1176.99 1875.99C1176.98 1875.51 1176.84 1875 1176.56 1874.47L1175.12 1871.67L1170.92 1873.83ZM1177.38 1870.5L1178.66 1872.97C1178.89 1873.43 1179.18 1873.8 1179.53 1874.07C1179.88 1874.34 1180.25 1874.51 1180.66 1874.56C1181.06 1874.61 1181.48 1874.54 1181.89 1874.32C1182.46 1874.02 1182.82 1873.58 1182.96 1873C1183.1 1872.42 1182.98 1871.75 1182.6 1871.01L1181.29 1868.48L1177.38 1870.5ZM1189.29 1896.69C1187.56 1897.59 1185.93 1898.02 1184.38 1897.99C1182.84 1897.96 1181.46 1897.56 1180.24 1896.77C1179.03 1895.98 1178.07 1894.89 1177.35 1893.49C1176.62 1892.09 1176.29 1890.66 1176.35 1889.22C1176.41 1887.77 1176.88 1886.42 1177.75 1885.14C1178.63 1883.87 1179.92 1882.79 1181.64 1881.9C1183.36 1881.01 1185 1880.58 1186.54 1880.6C1188.08 1880.63 1189.46 1881.03 1190.67 1881.82C1191.88 1882.61 1192.85 1883.7 1193.58 1885.11C1194.3 1886.5 1194.63 1887.92 1194.56 1889.36C1194.51 1890.81 1194.05 1892.17 1193.17 1893.44C1192.3 1894.72 1191.01 1895.8 1189.29 1896.69ZM1187.54 1893.31C1188.65 1892.73 1189.51 1892.08 1190.1 1891.35C1190.69 1890.62 1191.04 1889.86 1191.12 1889.05C1191.21 1888.25 1191.04 1887.44 1190.62 1886.63C1190.2 1885.83 1189.64 1885.22 1188.94 1884.83C1188.23 1884.43 1187.41 1884.26 1186.47 1884.32C1185.53 1884.39 1184.51 1884.71 1183.39 1885.29C1182.27 1885.87 1181.42 1886.52 1180.82 1887.24C1180.23 1887.97 1179.89 1888.74 1179.81 1889.55C1179.72 1890.35 1179.89 1891.16 1180.3 1891.97C1180.72 1892.77 1181.28 1893.38 1181.99 1893.77C1182.7 1894.17 1183.52 1894.33 1184.45 1894.27C1185.39 1894.21 1186.42 1893.89 1187.54 1893.31ZM1205.29 1908.3L1189.49 1916.46L1188 1913.58L1194.39 1901.57L1194.33 1901.45L1184.39 1906.59L1182.67 1903.25L1198.46 1895.09L1199.98 1898.02L1193.57 1909.97L1193.64 1910.11L1203.57 1904.97L1205.29 1908.3ZM1211.76 1920.81L1213.48 1924.15L1203.23 1929.45C1202.07 1930.05 1200.92 1930.29 1199.78 1930.19C1198.63 1930.09 1197.56 1929.67 1196.57 1928.94C1195.59 1928.21 1194.76 1927.19 1194.08 1925.88C1193.4 1924.57 1193.05 1923.3 1193.02 1922.07C1193 1920.84 1193.28 1919.73 1193.86 1918.74C1194.44 1917.75 1195.31 1916.95 1196.46 1916.36L1206.71 1911.06L1208.44 1914.4L1198.47 1919.55C1197.87 1919.86 1197.4 1920.27 1197.07 1920.77C1196.74 1921.28 1196.56 1921.85 1196.55 1922.47C1196.53 1923.09 1196.69 1923.72 1197.02 1924.36C1197.35 1925.01 1197.78 1925.5 1198.29 1925.84C1198.81 1926.19 1199.37 1926.37 1199.97 1926.39C1200.58 1926.42 1201.18 1926.28 1201.79 1925.96L1211.76 1920.81ZM1214.79 1937.81C1215.38 1937.43 1215.72 1936.92 1215.83 1936.27C1215.93 1935.62 1215.77 1934.9 1215.36 1934.1C1215.08 1933.55 1214.76 1933.13 1214.41 1932.84C1214.07 1932.54 1213.71 1932.36 1213.34 1932.3C1212.98 1932.24 1212.62 1932.3 1212.28 1932.47C1211.99 1932.61 1211.78 1932.8 1211.63 1933.03C1211.49 1933.28 1211.4 1933.55 1211.37 1933.86C1211.34 1934.17 1211.35 1934.51 1211.39 1934.87C1211.44 1935.23 1211.51 1935.6 1211.62 1935.98L1212.01 1937.58C1212.21 1938.35 1212.33 1939.09 1212.37 1939.79C1212.41 1940.5 1212.35 1941.17 1212.2 1941.78C1212.04 1942.4 1211.77 1942.95 1211.38 1943.45C1210.99 1943.95 1210.47 1944.37 1209.81 1944.71C1208.84 1945.21 1207.88 1945.39 1206.92 1945.27C1205.96 1945.15 1205.05 1944.74 1204.19 1944.02C1203.33 1943.31 1202.57 1942.31 1201.91 1941.03C1201.25 1939.75 1200.87 1938.54 1200.77 1937.4C1200.68 1936.25 1200.88 1935.22 1201.37 1934.29C1201.87 1933.37 1202.68 1932.6 1203.8 1931.99L1205.47 1935.22C1204.96 1935.53 1204.6 1935.91 1204.38 1936.36C1204.17 1936.81 1204.1 1937.31 1204.15 1937.86C1204.21 1938.41 1204.39 1938.97 1204.69 1939.54C1204.98 1940.11 1205.32 1940.56 1205.7 1940.89C1206.08 1941.23 1206.48 1941.43 1206.89 1941.51C1207.3 1941.59 1207.7 1941.54 1208.08 1941.34C1208.43 1941.16 1208.68 1940.9 1208.81 1940.56C1208.95 1940.23 1209 1939.82 1208.96 1939.33C1208.92 1938.85 1208.83 1938.28 1208.67 1937.63L1208.21 1935.69C1207.85 1934.19 1207.81 1932.88 1208.1 1931.75C1208.39 1930.63 1209.12 1929.76 1210.29 1929.16C1211.24 1928.67 1212.21 1928.49 1213.19 1928.63C1214.17 1928.78 1215.1 1929.21 1215.97 1929.9C1216.84 1930.6 1217.57 1931.53 1218.16 1932.68C1218.77 1933.85 1219.1 1934.98 1219.15 1936.06C1219.2 1937.14 1219 1938.12 1218.53 1938.97C1218.07 1939.83 1217.38 1940.51 1216.44 1941.01L1214.79 1937.81Z" fill="#F8F4DF"/>
</svg>
