<svg width="139" height="34" viewBox="0 0 139 34" fill="none" xmlns="http://www.w3.org/2000/svg">
<g clip-path="url(#clip0_32_565)">
<path d="M11.4893 10.1141L14.1298 1.59906H37.4107L34.9113 10.1141H2.39864L0 18.5491H9.35267L11.4893 10.1141Z" fill="black"/>
<path d="M13.8276 25.3651L16.4681 16.8101H25.1959L22.8577 25.3651H4.87804L2.27783 33.96H11.4894L13.8276 25.3651Z" fill="black"/>
<path d="M42.0466 0H51.2783L51.3993 0.119929V2.67842L51.2783 2.79835H44.9088V5.83657H50.2302L50.3511 5.9565V8.43504L50.2302 8.57496H44.9088V14.4315L44.7879 14.5514H42.0667L41.9458 14.4315V0.119929L42.0466 0Z" fill="black"/>
<path d="M54.8866 0H60.994L61.115 0.119929V2.67842L60.994 2.79835H59.3815V11.8131H60.994L61.115 11.933V14.4315L60.994 14.5514H54.8866L54.7656 14.4315V11.953L54.8866 11.833H56.3983V2.81834H54.8866L54.7656 2.69841V0.119929L54.8866 0Z" fill="black"/>
<path d="M64.5817 0.039978H66.4966L71.9187 7.95532V0.159907L72.0397 0.039978H74.8213L74.9624 0.159907V14.4515L74.8213 14.5714H72.846L67.444 6.71605V14.4515L67.3029 14.5714H64.6019L64.481 14.4515V0.159907L64.5817 0.039978Z" fill="black"/>
<path d="M77.8651 0H87.0968L87.2177 0.119929V2.67842L87.0968 2.79835H80.7273V5.83657H86.0487L86.1696 5.9565V8.43504L86.0487 8.57496H80.7273V11.7931H87.0968L87.2177 11.913V14.4115L87.0968 14.5315H77.8651L77.7441 14.4115V0.119929L77.8651 0Z" fill="black"/>
<path d="M90.2409 0.0999451H100.44L100.561 0.219875V2.75838L100.44 2.87831H96.8321V14.4315L96.691 14.5514H94.0102L93.8893 14.4315V2.8983H90.2611L90.1401 2.77837V0.219875L90.2409 0.0999451Z" fill="black"/>
<path d="M103.363 0.0999451H106.144L106.265 0.219875V10.274L107.636 11.6332H109.349L110.72 10.274V0.219875L110.861 0.0999451H113.542L113.663 0.219875V11.4533L110.518 14.5714H106.447L103.222 11.4533V0.219875L103.363 0.0999451Z" fill="black"/>
<path d="M116.364 0.039978H118.279L123.701 7.95532V0.159907L123.822 0.039978H126.604L126.745 0.159907V14.4515L126.604 14.5714H124.628L119.226 6.71605V14.4515L119.085 14.5714H116.384L116.263 14.4515V0.159907L116.364 0.039978Z" fill="black"/>
<path d="M129.647 0H138.879L139 0.119929V2.67842L138.879 2.79835H132.51V5.83657H137.831L137.952 5.9565V8.43504L137.831 8.57496H132.51V11.7931H138.879L139 11.913V14.4115L138.879 14.5315H129.647L129.526 14.4115V0.119929L129.647 0Z" fill="black"/>
<path d="M42.0871 19.4685H44.8687L45.0098 19.5885V31.2416H51.5002L51.6413 31.3815V33.8601L51.5002 33.98H42.1073L41.9863 33.8601V19.5885L42.0871 19.4685Z" fill="black"/>
<path d="M58.7364 19.4885H60.6312C60.7924 19.4885 62.2235 22.3069 64.9245 27.9236V33.8801L64.7834 34H62.1026L61.9615 33.8801V31.0617H57.4263V33.8801L57.3053 34H54.6043L54.4834 33.8801V27.9236C57.1642 22.2869 58.5953 19.4885 58.7364 19.4885ZM59.6637 23.4262L57.4666 28.3033H61.901V28.2434L59.704 23.4262H59.6637Z" fill="black"/>
<path d="M67.9681 19.4885H75.4261L78.2681 22.3668V24.9853C78.2681 25.0652 77.6634 25.6649 76.4742 26.8042C77.6634 27.8436 78.2681 28.4433 78.2681 28.5832V31.1816L75.4261 34H67.9681L67.8472 33.8801V31.3815L67.9681 31.2616H68.8147V22.2669H67.9681L67.8472 22.147V19.6085L67.9681 19.4885ZM71.8785 22.2669V25.2851H73.7934L75.285 23.806V23.5461L74.1763 22.2869H71.8785V22.2669ZM71.8785 28.2434V31.2616H74.1965L75.3051 29.9424V29.7425L73.8135 28.2634H71.8785V28.2434Z" fill="black"/>
<path d="M83.8918 19.5085H88.6286L91.4706 22.3868V23.5661L91.3497 23.6861H88.6487L87.399 22.5068H85.1616L84.0328 23.5661V24.2058L85.1616 25.3251H88.6487L91.4908 28.1434V31.1816L88.6487 34H83.9119L81.0698 31.1816V29.9424L81.1908 29.8224H83.8918L85.1415 31.0617H87.3788L88.5076 29.9424V29.3627L87.3788 28.2434H83.8918L81.0698 25.3851V22.3868L83.8918 19.5085Z" fill="black"/>
</g>
<defs>
<clipPath id="clip0_32_565">
<rect width="139" height="34" fill="white"/>
</clipPath>
</defs>
</svg>
