<svg width="198" height="48" viewBox="0 0 198 48" fill="none" xmlns="http://www.w3.org/2000/svg">
<path d="M65.2251 41.2851V16.2377H68.9652L69.3213 18.2595H69.4994C70.568 16.8747 72.384 15.8828 74.9123 15.8828C79.5397 15.8828 83.2448 19.6443 83.2448 25.2122C83.2448 30.78 79.5429 34.5416 74.9123 34.5416C72.419 34.5416 70.6762 33.5117 69.7507 32.3423H69.5726V41.2819H65.2283L65.2251 41.2851ZM78.8973 25.2154C78.8973 21.9513 76.7951 19.8947 74.2317 19.8947C71.6684 19.8947 69.5662 21.9513 69.5662 25.2154C69.5662 28.4794 71.6684 30.536 74.2317 30.536C76.7951 30.536 78.8973 28.4794 78.8973 25.2154Z" fill="#FFF3D6"/>
<path d="M85.4487 25.2151C85.4487 19.7867 89.3637 15.8857 94.5985 15.8857C99.8333 15.8857 103.748 19.7867 103.748 25.2151C103.748 30.6435 99.8333 34.5445 94.5985 34.5445C89.3637 34.5445 85.4487 30.6055 85.4487 25.2151ZM99.369 25.2151C99.369 22.0208 97.2318 19.8945 94.5985 19.8945C91.9652 19.8945 89.793 22.024 89.793 25.2151C89.793 28.4062 91.9652 30.5009 94.5985 30.5009C97.2318 30.5009 99.369 28.4094 99.369 25.2151Z" fill="#FFF3D6"/>
<path d="M106.897 34.1898V9.35791H111.241V34.1929H106.897V34.1898Z" fill="#FFF3D6"/>
<path d="M127.369 16.2378H131.996L124.163 38.056C123.38 40.2204 122.312 41.2851 119.497 41.2851H115.296V37.2764H118.858C119.5 37.2764 119.853 36.9564 120.07 36.424L120.496 35.2546L113.162 16.2378H117.789L122.455 28.6917H123.167L127.369 16.2378Z" fill="#FFF3D6"/>
<path d="M132.826 35.0771H137.24C137.418 36.2465 138.592 37.8436 141.371 37.8436C143.97 37.8436 145.681 36.2116 145.681 33.7271V31.2078H145.503C144.542 32.2377 142.761 33.1599 140.481 33.1599C135.853 33.1599 132.292 29.6107 132.292 24.5023C132.292 19.394 135.853 15.8828 140.481 15.8828C142.866 15.8828 144.612 16.8398 145.716 18.1898H145.894L146.25 16.2377H150.025V33.7271C150.025 38.4806 146.819 41.64 141.371 41.64C135.284 41.64 132.934 37.6661 132.826 35.0771ZM145.681 24.5055C145.681 21.7042 143.687 19.7521 141.158 19.7521C138.63 19.7521 136.671 21.7042 136.671 24.5055C136.671 27.3069 138.665 29.2938 141.158 29.2938C143.652 29.2938 145.681 27.3417 145.681 24.5055Z" fill="#FFF3D6"/>
<path d="M153.043 25.2151C153.043 19.7867 156.958 15.8857 162.193 15.8857C167.428 15.8857 171.342 19.7867 171.342 25.2151C171.342 30.6435 167.428 34.5445 162.193 34.5445C156.958 34.5445 153.043 30.6055 153.043 25.2151ZM166.963 25.2151C166.963 22.0208 164.826 19.8945 162.193 19.8945C159.559 19.8945 157.387 22.024 157.387 25.2151C157.387 28.4062 159.559 30.5009 162.193 30.5009C164.826 30.5009 166.963 28.4094 166.963 25.2151Z" fill="#FFF3D6"/>
<path d="M174.367 34.1898V16.2377H178.104L178.46 17.9395H178.638C179.351 17.125 181.131 15.8828 183.835 15.8828C187.966 15.8828 190.955 18.8616 190.955 23.4027V34.1866H186.611V23.97C186.611 21.663 184.973 19.9961 182.731 19.9961C180.489 19.9961 178.708 21.7359 178.708 23.97V34.1866H174.364L174.367 34.1898Z" fill="#FFF3D6"/>
<path d="M39.9415 32.0949L50.621 25.9503C51.1871 25.6239 51.5369 25.0187 51.5369 24.369V12.0799C51.5369 11.4302 51.1871 10.825 50.621 10.4985L39.9415 4.35397C39.3754 4.02756 38.6725 4.03073 38.1096 4.35397L27.4301 10.4985C26.864 10.825 26.5142 11.4302 26.5142 12.0799V34.0406L19.0245 38.3472L11.5349 34.0406V25.4243L19.0245 21.1177L23.9636 23.9602V18.1801L19.9405 15.8636C19.6638 15.7051 19.3458 15.6196 19.0245 15.6196C18.7033 15.6196 18.3853 15.7051 18.1086 15.8636L7.42911 22.0082C6.86302 22.3346 6.51318 22.9398 6.51318 23.5895V35.8786C6.51318 36.5283 6.86302 37.1335 7.42911 37.4599L18.1086 43.6045C18.6747 43.9277 19.3744 43.9277 19.9405 43.6045L30.62 37.4599C31.1861 37.1335 31.5359 36.5283 31.5359 35.8786V13.9147L31.6695 13.8386L39.0224 9.60808L46.512 13.9147V22.531L39.0224 26.8376L34.0897 24.0014V29.7816L38.1064 32.0917C38.6725 32.415 39.3754 32.415 39.9383 32.0917L39.9415 32.0949Z" fill="#FFF3D6"/>
</svg>
